{"glyphs":{"0":{"ha":908,"x_min":90,"x_max":868,"o":"m 389 -6 q 228 36 296 -6 q 126 154 161 78 q 90 339 90 231 q 123 573 90 460 q 217 778 156 686 q 368 924 279 871 q 569 978 457 978 q 731 936 664 978 q 833 818 797 894 q 868 633 868 742 q 835 400 868 514 q 741 194 803 286 q 590 48 679 101 q 389 -6 501 -6 m 394 38 q 576 90 496 38 q 711 229 656 143 q 795 422 767 315 q 824 633 824 528 q 756 856 824 778 q 564 935 688 935 q 383 882 463 935 q 247 743 303 829 q 163 551 192 657 q 135 339 135 444 q 203 117 135 196 q 394 38 271 38 z "},"1":{"ha":482,"x_min":126,"x_max":425,"o":"m 186 0 l 376 949 l 392 929 l 126 929 l 136 972 l 425 972 l 231 0 l 186 0 z "},"2":{"ha":775,"x_min":-14,"x_max":743,"o":"m -14 0 l -7 33 l 500 450 q 619 564 576 514 q 679 660 661 614 q 697 754 697 706 q 639 885 697 836 q 458 935 581 935 q 294 905 372 935 q 164 818 217 875 l 131 849 q 278 944 190 911 q 463 978 365 978 q 619 950 557 978 q 713 873 682 922 q 743 758 743 824 q 724 653 743 704 q 658 545 704 601 q 532 422 613 489 l 44 22 l 26 43 l 653 43 l 644 0 l -14 0 z "},"3":{"ha":767,"x_min":-24,"x_max":775,"o":"m 300 -6 q 101 33 186 -6 q -24 129 15 71 l 8 163 q 118 73 42 108 q 303 38 194 38 q 476 70 403 38 q 590 163 550 103 q 629 301 629 222 q 563 450 629 399 q 363 501 497 501 l 317 501 l 324 535 l 718 946 l 725 929 l 169 929 l 178 972 l 775 972 l 768 939 l 372 526 l 357 542 l 368 542 q 538 514 469 542 q 640 433 606 486 q 675 303 675 379 q 628 142 675 211 q 497 33 582 72 q 300 -6 413 -6 z "},"4":{"ha":900,"x_min":46,"x_max":871,"o":"m 46 281 l 53 314 l 718 972 l 776 972 l 111 314 l 81 322 l 871 322 l 863 281 l 46 281 m 549 0 l 606 281 l 613 322 l 663 569 l 708 569 l 594 0 l 549 0 z "},"5":{"ha":767,"x_min":-3,"x_max":779,"o":"m 321 -6 q 121 33 206 -6 q -3 129 36 71 l 29 163 q 139 73 63 108 q 324 38 215 38 q 563 109 476 38 q 649 307 649 181 q 578 459 649 404 q 342 514 508 514 l 135 514 l 276 972 l 779 972 l 771 929 l 290 929 l 318 950 l 186 535 l 168 557 l 350 557 q 613 491 531 557 q 696 308 696 425 q 650 142 696 213 q 520 33 604 71 q 321 -6 436 -6 z "},"6":{"ha":828,"x_min":89,"x_max":822,"o":"m 429 -6 q 253 35 331 -6 q 133 159 176 76 q 89 365 89 242 q 106 535 89 449 q 161 701 124 622 q 258 842 199 779 q 405 941 318 904 q 606 978 492 978 q 724 967 668 978 q 822 928 779 956 l 797 888 q 708 924 758 914 q 601 935 657 935 q 421 901 499 935 q 289 810 343 868 q 201 680 235 753 q 153 526 168 607 q 138 368 138 446 q 138 328 138 343 q 139 301 138 313 l 119 297 q 188 454 136 394 q 313 541 240 514 q 460 568 385 568 q 617 537 549 568 q 726 446 686 506 q 767 301 767 386 q 724 137 767 206 q 606 31 682 68 q 429 -6 529 -6 m 429 36 q 640 106 561 36 q 719 297 719 176 q 645 469 719 410 q 453 528 571 528 q 296 492 364 528 q 190 399 228 457 q 151 268 151 340 q 183 159 151 213 q 276 71 214 106 q 429 36 338 36 z "},"7":{"ha":799,"x_min":124,"x_max":856,"o":"m 182 0 l 800 949 l 821 929 l 186 929 l 213 950 l 169 738 l 124 738 l 171 972 l 856 972 l 849 939 l 236 0 l 182 0 z "},"8":{"ha":871,"x_min":54,"x_max":839,"o":"m 396 -6 q 212 25 289 -6 q 94 111 135 56 q 54 243 54 167 q 100 392 54 329 q 231 488 146 454 q 433 522 315 522 q 620 494 543 522 q 738 411 697 465 q 778 282 778 357 q 731 130 778 194 q 598 30 683 65 q 396 -6 513 -6 m 399 36 q 643 102 554 36 q 732 281 732 168 q 653 432 732 376 q 431 488 574 488 q 188 421 276 488 q 100 244 100 354 q 178 92 100 147 q 399 36 257 36 m 494 493 q 326 519 396 493 q 219 595 256 546 q 183 711 183 644 q 226 853 183 793 q 345 945 268 913 q 528 978 422 978 q 692 950 622 978 q 800 871 761 922 q 839 750 839 819 q 799 614 839 672 q 681 524 758 556 q 494 493 604 493 m 497 528 q 714 587 635 528 q 793 743 793 646 q 721 885 793 833 q 525 936 649 936 q 311 876 390 936 q 232 717 232 817 q 301 579 232 631 q 497 528 369 528 z "},"9":{"ha":828,"x_min":56,"x_max":789,"o":"m 449 978 q 625 937 549 978 q 745 814 701 896 q 789 607 789 732 q 772 437 789 524 q 717 272 754 350 q 619 131 679 193 q 473 31 560 68 q 272 -6 386 -6 q 156 6 211 -6 q 56 44 100 18 l 81 85 q 170 48 119 58 q 276 38 221 38 q 457 71 379 38 q 589 162 535 104 q 676 292 643 219 q 725 447 710 365 q 740 604 740 528 q 741 644 742 629 q 739 671 740 660 l 758 675 q 690 519 743 579 q 566 431 638 458 q 418 404 494 404 q 261 435 331 404 q 151 526 192 467 q 111 671 111 586 q 153 835 111 767 q 272 941 196 904 q 449 978 349 978 m 449 936 q 238 866 317 936 q 158 675 158 796 q 233 503 158 563 q 425 444 308 444 q 583 480 515 444 q 688 574 650 515 q 726 704 726 633 q 696 813 726 760 q 603 901 665 867 q 449 936 542 936 z "},"\u0000":{"ha":0,"x_min":0,"x_max":0,"o":""},"\r":{"ha":351,"x_min":0,"x_max":0,"o":""}," ":{"ha":351,"x_min":0,"x_max":0,"o":""},"!":{"ha":342,"x_min":63,"x_max":319,"o":"m 136 269 l 267 972 l 319 972 l 169 269 l 136 269 m 107 -4 q 76 9 89 -4 q 63 39 63 22 q 76 73 63 60 q 108 86 90 86 q 140 73 126 86 q 153 42 153 60 q 147 18 153 29 q 130 1 140 7 q 107 -4 119 -4 z "},"\"":{"ha":478,"x_min":164,"x_max":490,"o":"m 164 621 l 231 972 l 275 972 l 201 621 l 164 621 m 379 621 l 446 972 l 490 972 l 417 621 l 379 621 z "},"#":{"ha":953,"x_min":32,"x_max":971,"o":"m 504 0 l 817 972 l 858 972 l 546 0 l 504 0 m 32 285 l 40 324 l 854 324 l 847 285 l 32 285 m 143 0 l 456 972 l 497 972 l 185 0 l 143 0 m 149 649 l 157 688 l 971 688 l 963 649 l 149 649 z "},"$":{"ha":839,"x_min":32,"x_max":828,"o":"m 299 -167 l 560 1139 l 596 1139 l 335 -167 l 299 -167 m 367 -6 q 231 13 297 -6 q 112 60 164 31 q 32 128 60 90 l 60 161 q 138 98 89 126 q 247 53 186 69 q 369 36 307 36 q 539 63 465 36 q 653 143 613 90 q 694 269 694 196 q 666 359 694 325 q 592 415 638 393 q 490 451 546 436 q 380 483 435 465 q 279 526 325 501 q 205 592 233 551 q 176 696 176 632 q 224 849 176 786 q 355 945 272 913 q 542 978 438 978 q 699 956 622 978 q 828 892 775 933 l 803 853 q 684 915 751 893 q 540 936 617 936 q 375 908 447 936 q 263 828 303 881 q 221 700 222 775 q 249 611 221 646 q 324 554 278 576 q 426 516 369 532 q 537 483 482 500 q 638 441 592 467 q 713 376 685 415 q 740 275 740 338 q 691 120 740 182 q 557 26 642 58 q 367 -6 472 -6 z "},"%":{"ha":1122,"x_min":132,"x_max":1039,"o":"m 135 0 l 989 972 l 1036 972 l 182 0 l 135 0 m 310 454 q 180 508 228 454 q 132 657 132 563 q 163 810 132 738 q 250 930 193 883 q 385 976 307 976 q 515 922 468 976 q 563 774 563 868 q 532 620 563 693 q 445 501 501 547 q 310 454 389 454 m 313 489 q 428 531 381 489 q 500 639 475 574 q 525 771 525 704 q 488 897 525 851 q 382 942 450 942 q 267 899 315 942 q 194 792 219 857 q 169 660 169 726 q 207 534 169 579 q 313 489 244 489 m 786 -6 q 656 49 704 -6 q 608 197 608 103 q 639 351 608 278 q 726 470 669 424 q 861 517 783 517 q 992 463 944 517 q 1039 314 1039 408 q 1008 160 1039 233 q 922 41 978 88 q 786 -6 865 -6 m 789 29 q 904 72 857 29 q 976 179 951 114 q 1001 311 1001 244 q 964 437 1001 392 q 858 482 926 482 q 744 440 792 482 q 672 332 696 397 q 647 200 647 267 q 685 74 647 119 q 789 29 722 29 z "},"&":{"ha":893,"x_min":46,"x_max":824,"o":"m 317 -6 q 173 22 233 -6 q 79 96 113 49 q 46 207 46 143 q 78 324 46 269 q 184 434 111 379 q 382 550 257 489 q 556 646 493 606 q 646 726 619 686 q 672 818 672 767 q 633 903 672 868 q 522 939 594 939 q 377 889 432 939 q 322 757 322 839 q 342 668 322 714 q 400 569 361 622 l 811 14 l 778 -14 l 361 551 q 301 653 322 604 q 279 753 279 701 q 310 872 279 821 q 395 950 340 922 q 524 978 450 978 q 624 958 581 978 q 690 903 667 938 q 713 819 713 868 q 683 713 713 760 q 585 619 653 665 q 401 517 518 574 q 215 410 283 458 q 119 313 147 361 q 92 210 92 265 q 152 83 92 132 q 319 33 213 33 q 508 75 421 33 q 666 201 596 117 q 786 413 736 285 l 824 403 q 694 174 771 264 q 523 39 618 83 q 317 -6 428 -6 z "},"'":{"ha":261,"x_min":164,"x_max":275,"o":"m 164 621 l 231 972 l 275 972 l 201 621 l 164 621 z "},"(":{"ha":438,"x_min":139,"x_max":497,"o":"m 196 -269 q 165 -156 178 -215 q 145 -36 151 -97 q 139 82 139 25 q 160 342 139 211 q 224 597 182 472 q 322 833 265 722 q 451 1031 379 943 l 497 1031 q 369 833 426 944 q 269 594 311 721 q 203 337 226 468 q 181 81 181 206 q 194 -93 181 -8 q 236 -269 208 -178 l 196 -269 z "},")":{"ha":438,"x_min":33,"x_max":392,"o":"m 33 -269 q 162 -72 104 -183 q 262 167 219 40 q 327 424 304 293 q 350 681 350 556 q 336 854 350 769 q 294 1031 322 939 l 335 1031 q 366 918 353 978 q 385 798 379 858 q 392 679 392 738 q 370 419 392 550 q 307 164 349 289 q 208 -72 265 39 q 79 -269 151 -182 l 33 -269 z "},"*":{"ha":507,"x_min":100,"x_max":581,"o":"m 581 893 l 361 781 l 363 799 l 536 686 l 514 656 l 342 769 l 353 774 l 308 550 l 274 550 l 318 774 l 332 767 l 115 654 l 100 686 l 319 799 l 318 783 l 144 896 l 165 926 l 338 814 l 326 807 l 369 1031 l 404 1031 l 360 807 l 349 813 l 567 926 l 581 893 z "},"+":{"ha":783,"x_min":124,"x_max":711,"o":"m 339 204 l 451 768 l 494 768 l 382 204 l 339 204 m 124 465 l 132 506 l 711 506 l 703 465 l 124 465 z "},",":{"ha":264,"x_min":-28,"x_max":114,"o":"m -28 -196 l 64 22 l 67 -4 q 36 9 50 -4 q 22 40 22 22 q 36 74 22 61 q 69 88 50 88 q 101 74 88 88 q 114 42 114 61 q 110 18 114 29 q 99 -7 106 7 l 8 -196 l -28 -196 z "},"-":{"ha":529,"x_min":86,"x_max":446,"o":"m 86 349 l 94 390 l 446 390 l 438 349 l 86 349 z "},".":{"ha":264,"x_min":22,"x_max":114,"o":"m 67 -4 q 36 9 50 -4 q 22 40 22 22 q 36 74 22 61 q 69 88 50 88 q 101 74 88 88 q 114 42 114 61 q 108 18 114 29 q 91 1 101 7 q 67 -4 81 -4 z "},"/":{"ha":429,"x_min":-131,"x_max":633,"o":"m -131 -139 l 586 1169 l 633 1169 l -83 -139 l -131 -139 z "},":":{"ha":264,"x_min":22,"x_max":243,"o":"m 196 635 q 165 648 179 635 q 151 679 151 661 q 165 713 151 700 q 199 726 179 726 q 230 713 217 726 q 243 681 243 700 q 237 657 243 668 q 220 640 231 646 q 196 635 210 635 m 67 -4 q 36 9 50 -4 q 22 40 22 22 q 36 74 22 61 q 69 88 50 88 q 101 74 88 88 q 114 42 114 61 q 108 18 114 29 q 91 1 101 7 q 67 -4 81 -4 z "},";":{"ha":264,"x_min":-28,"x_max":243,"o":"m 196 635 q 165 648 179 635 q 151 679 151 661 q 165 713 151 700 q 199 726 179 726 q 230 713 217 726 q 243 681 243 700 q 237 657 243 668 q 220 640 231 646 q 196 635 210 635 m -28 -196 l 64 22 l 67 -4 q 36 9 50 -4 q 22 40 22 22 q 36 74 22 61 q 69 88 50 88 q 101 74 88 88 q 114 42 114 61 q 110 18 114 29 q 99 -7 106 7 l 8 -196 l -28 -196 z "},"<":{"ha":783,"x_min":122,"x_max":756,"o":"m 756 749 l 746 701 l 144 474 l 149 494 l 661 265 l 653 224 l 122 464 l 131 508 l 756 749 z "},"=":{"ha":783,"x_min":93,"x_max":742,"o":"m 156 619 l 164 661 l 742 661 l 733 619 l 156 619 m 93 311 l 101 353 l 679 353 l 671 311 l 93 311 z "},">":{"ha":783,"x_min":76,"x_max":711,"o":"m 76 224 l 86 271 l 688 499 l 683 478 l 172 707 l 181 749 l 711 508 l 703 464 l 76 224 z "},"?":{"ha":774,"x_min":119,"x_max":732,"o":"m 324 269 q 367 383 336 336 q 440 463 399 429 q 524 527 481 497 q 603 589 567 557 q 663 664 640 621 q 686 768 686 707 q 628 892 686 847 q 461 936 569 936 q 283 907 358 936 q 150 818 208 878 l 119 850 q 267 945 181 913 q 465 978 353 978 q 610 953 550 978 q 701 884 669 929 q 732 772 732 839 q 709 657 732 704 q 649 574 686 610 q 569 509 613 539 q 485 447 526 479 q 414 373 444 415 q 371 269 383 331 l 324 269 m 301 -4 q 269 9 283 -4 q 256 39 256 22 q 269 73 256 60 q 301 86 283 86 q 334 73 321 86 q 347 42 347 60 q 341 18 347 29 q 324 1 335 7 q 301 -4 314 -4 z "},"@":{"ha":1433,"x_min":64,"x_max":1368,"o":"m 603 -275 q 313 -210 433 -275 q 128 -31 193 -146 q 64 232 64 83 q 115 516 64 382 q 263 754 167 650 q 498 918 360 858 q 810 978 636 978 q 1114 915 990 978 q 1303 739 1238 851 q 1368 476 1368 626 q 1345 294 1368 381 q 1283 141 1322 208 q 1192 35 1243 74 q 1083 -4 1142 -4 q 990 33 1022 -4 q 971 132 958 71 l 994 251 l 1031 347 l 1036 464 l 1086 714 l 1129 714 l 1017 147 q 1027 60 1006 86 q 1092 35 1049 35 q 1182 72 1139 35 q 1258 172 1225 108 q 1310 314 1290 235 q 1329 478 1329 393 q 1270 720 1329 617 q 1095 882 1211 824 q 804 940 979 940 q 515 884 644 940 q 294 730 386 828 q 153 504 203 632 q 104 232 104 376 q 163 -11 104 94 q 333 -176 221 -117 q 608 -236 446 -236 q 757 -219 685 -236 q 881 -174 829 -203 l 890 -211 q 758 -258 833 -242 q 603 -275 683 -275 m 656 -4 q 495 31 564 -4 q 389 133 426 67 q 351 288 351 199 q 381 458 351 379 q 465 595 411 536 q 592 687 518 654 q 754 719 667 719 q 974 643 897 719 q 1053 431 1051 567 q 1004 209 1054 308 q 865 53 954 110 q 656 -4 776 -4 m 664 36 q 849 86 768 36 q 975 224 929 136 q 1021 424 1021 313 q 950 613 1021 546 q 751 679 879 679 q 569 628 650 679 q 442 490 488 578 q 396 290 396 403 q 467 103 396 169 q 664 36 538 36 z "},"A":{"ha":967,"x_min":-62,"x_max":883,"o":"m -62 0 l 582 972 l 628 972 l 883 0 l 836 0 l 592 940 l 611 940 l -10 0 l -62 0 m 150 285 l 176 325 l 771 325 l 781 285 l 150 285 z "},"B":{"ha":1042,"x_min":106,"x_max":979,"o":"m 106 0 l 300 972 l 693 972 q 903 922 826 972 q 979 774 979 872 q 933 614 979 678 q 809 518 886 550 q 639 486 732 486 l 665 506 q 865 454 792 506 q 939 299 939 403 q 890 136 939 203 q 751 35 842 69 q 532 0 661 0 l 106 0 m 161 42 l 539 42 q 800 107 708 42 q 892 296 892 172 q 826 433 892 392 q 631 474 760 474 l 238 474 l 246 514 l 604 514 q 772 542 699 514 q 888 627 846 571 q 931 767 931 683 q 867 890 931 849 q 688 931 803 931 l 339 931 l 161 42 z "},"C":{"ha":990,"x_min":96,"x_max":1014,"o":"m 538 -6 q 297 44 396 -6 q 147 184 199 94 q 96 390 96 274 q 136 614 96 508 q 252 801 176 719 q 437 931 328 883 q 682 978 546 978 q 880 944 794 978 q 1014 850 965 911 l 981 821 q 857 906 932 878 q 679 935 782 935 q 456 892 556 935 q 288 774 357 849 q 181 600 218 699 q 143 392 143 501 q 188 208 143 288 q 322 83 233 128 q 542 38 410 38 q 729 69 646 38 q 874 157 813 100 l 901 122 q 744 29 840 64 q 538 -6 649 -6 z "},"D":{"ha":1147,"x_min":106,"x_max":1103,"o":"m 106 0 l 300 972 l 654 972 q 900 924 800 972 q 1051 787 1000 875 q 1103 582 1103 699 q 1060 349 1103 456 q 939 164 1018 242 q 748 43 860 86 q 497 0 636 0 l 106 0 m 161 43 l 501 43 q 796 112 672 43 q 988 302 919 181 q 1057 581 1057 424 q 1012 764 1057 685 q 876 886 967 843 q 650 929 786 929 l 338 929 l 161 43 z "},"E":{"ha":928,"x_min":106,"x_max":936,"o":"m 247 515 l 783 515 l 775 472 l 239 472 l 247 515 m 161 43 l 772 43 l 763 0 l 106 0 l 300 972 l 936 972 l 928 929 l 338 929 l 161 43 z "},"F":{"ha":875,"x_min":106,"x_max":936,"o":"m 242 485 l 778 485 l 768 443 l 233 443 l 242 485 m 153 0 l 106 0 l 300 972 l 936 972 l 928 929 l 338 929 l 153 0 z "},"G":{"ha":1075,"x_min":96,"x_max":1024,"o":"m 538 -6 q 297 44 396 -6 q 147 184 199 94 q 96 390 96 274 q 136 614 96 508 q 252 801 176 719 q 437 931 328 883 q 683 978 546 978 q 885 944 797 978 q 1024 850 974 910 l 990 819 q 863 906 940 876 q 679 935 785 935 q 458 892 557 935 q 288 774 358 849 q 181 601 218 699 q 143 392 143 503 q 188 208 143 288 q 322 83 233 128 q 543 38 411 38 q 716 69 639 38 q 857 156 793 100 l 878 119 q 726 28 814 63 q 538 -6 639 -6 m 833 122 l 904 479 l 949 479 l 878 119 l 833 122 z "},"H":{"ha":1132,"x_min":106,"x_max":1076,"o":"m 1029 972 l 1076 972 l 882 0 l 835 0 l 1029 972 m 153 0 l 106 0 l 300 972 l 347 972 l 153 0 m 938 472 l 239 472 l 247 515 l 946 515 l 938 472 z "},"I":{"ha":403,"x_min":106,"x_max":347,"o":"m 106 0 l 300 972 l 347 972 l 153 0 l 106 0 z "},"J":{"ha":671,"x_min":-44,"x_max":624,"o":"m 196 -6 q 47 33 111 -6 q -44 133 -17 71 l -7 160 q 72 71 19 104 q 200 38 125 38 q 353 91 294 38 q 438 276 411 144 l 568 929 l 207 929 l 215 972 l 624 972 l 483 271 q 425 110 463 171 q 331 22 388 49 q 196 -6 274 -6 z "},"K":{"ha":968,"x_min":106,"x_max":1043,"o":"m 196 250 l 207 315 l 978 972 l 1043 972 l 514 522 l 490 501 l 196 250 m 106 0 l 300 972 l 347 972 l 153 0 l 106 0 m 824 0 l 469 514 l 506 540 l 878 0 l 824 0 z "},"L":{"ha":808,"x_min":106,"x_max":732,"o":"m 106 0 l 300 972 l 347 972 l 161 43 l 732 43 l 722 0 l 106 0 z "},"M":{"ha":1328,"x_min":106,"x_max":1271,"o":"m 106 0 l 300 972 l 339 972 l 644 176 l 624 181 l 1229 972 l 1271 972 l 1076 0 l 1031 0 l 1211 904 l 1228 901 l 639 135 l 615 135 l 318 904 l 332 903 l 151 0 l 106 0 z "},"N":{"ha":1132,"x_min":106,"x_max":1076,"o":"m 106 0 l 300 972 l 339 972 l 864 54 l 847 58 l 1029 972 l 1076 972 l 882 0 l 843 0 l 318 918 l 335 914 l 153 0 l 106 0 z "},"O":{"ha":1163,"x_min":96,"x_max":1117,"o":"m 538 -6 q 297 44 394 -6 q 147 184 199 94 q 96 390 96 274 q 136 614 96 508 q 251 801 176 719 q 434 931 326 883 q 676 978 542 978 q 917 928 818 978 q 1066 789 1015 878 q 1117 582 1117 700 q 1077 358 1117 464 q 962 171 1038 253 q 779 42 886 89 q 538 -6 672 -6 m 542 38 q 760 81 663 38 q 926 199 857 124 q 1032 372 994 274 q 1069 581 1069 471 q 1025 765 1069 686 q 892 890 981 844 q 672 935 803 935 q 453 892 551 935 q 287 774 356 849 q 181 600 218 699 q 143 392 143 501 q 188 208 143 288 q 322 83 233 128 q 542 38 410 38 z "},"P":{"ha":989,"x_min":106,"x_max":963,"o":"m 106 0 l 300 972 l 632 972 q 876 903 789 972 q 963 710 963 835 q 909 499 963 585 q 756 370 856 414 q 519 326 657 326 l 197 326 l 222 349 l 153 0 l 106 0 m 222 349 l 206 369 l 519 369 q 813 454 708 369 q 917 707 917 539 q 843 872 917 814 q 632 929 769 929 l 318 929 l 343 953 l 222 349 z "},"Q":{"ha":1163,"x_min":96,"x_max":1117,"o":"m 538 -6 q 297 44 394 -6 q 147 184 199 94 q 96 390 96 274 q 136 614 96 508 q 251 801 176 719 q 434 931 326 883 q 676 978 542 978 q 917 928 818 978 q 1066 789 1015 878 q 1117 582 1117 700 q 1077 358 1117 464 q 962 171 1038 253 q 779 42 886 89 q 538 -6 672 -6 m 813 -178 q 649 -130 722 -178 q 513 7 575 -82 l 568 18 q 679 -97 618 -58 q 814 -136 740 -136 q 924 -113 874 -136 q 1013 -43 975 -90 l 1039 -72 q 936 -151 996 -125 q 813 -178 876 -178 m 542 38 q 760 81 663 38 q 926 199 857 124 q 1032 372 994 274 q 1069 581 1069 471 q 1025 765 1069 686 q 892 890 981 844 q 672 935 803 935 q 453 892 551 935 q 287 774 356 849 q 181 600 218 699 q 143 392 143 501 q 188 208 143 288 q 322 83 233 128 q 542 38 410 38 z "},"R":{"ha":997,"x_min":106,"x_max":964,"o":"m 106 0 l 300 972 l 633 972 q 877 903 790 972 q 964 710 964 835 q 910 499 964 585 q 756 371 856 414 q 521 328 657 328 l 197 328 l 222 349 l 153 0 l 106 0 m 792 0 l 592 353 l 644 353 l 843 0 l 792 0 m 222 349 l 206 369 l 519 369 q 813 454 708 369 q 917 707 917 539 q 843 872 917 814 q 632 929 769 929 l 318 929 l 343 951 l 222 349 z "},"S":{"ha":839,"x_min":32,"x_max":828,"o":"m 367 -6 q 231 13 297 -6 q 112 60 164 31 q 32 128 60 90 l 60 161 q 138 98 89 126 q 247 53 186 69 q 369 36 307 36 q 539 63 465 36 q 653 143 613 90 q 694 269 694 196 q 666 359 694 325 q 592 415 638 393 q 490 451 546 436 q 380 483 435 465 q 279 526 325 501 q 205 592 233 551 q 176 696 176 632 q 224 849 176 786 q 355 945 272 913 q 542 978 438 978 q 699 956 622 978 q 828 892 775 933 l 803 853 q 684 915 751 893 q 540 936 617 936 q 375 908 447 936 q 263 828 303 881 q 221 700 222 775 q 249 611 221 646 q 324 554 278 576 q 426 516 369 532 q 537 483 482 500 q 638 441 592 467 q 713 376 685 415 q 740 275 740 338 q 691 120 740 182 q 557 26 642 58 q 367 -6 472 -6 z "},"T":{"ha":771,"x_min":119,"x_max":888,"o":"m 289 0 l 475 929 l 119 929 l 128 972 l 888 972 l 878 929 l 522 929 l 336 0 l 289 0 z "},"U":{"ha":1101,"x_min":156,"x_max":1054,"o":"m 493 -6 q 285 51 363 -6 q 182 200 208 107 q 179 407 156 293 l 292 972 l 339 972 l 225 406 q 216 267 210 333 q 254 149 222 201 q 347 67 286 97 q 500 38 407 38 q 694 80 615 38 q 821 201 772 122 q 890 388 869 281 l 1008 972 l 1054 972 l 938 385 q 792 98 901 201 q 493 -6 682 -6 z "},"V":{"ha":940,"x_min":133,"x_max":1051,"o":"m 375 0 l 133 972 l 182 972 l 414 32 l 389 32 l 999 972 l 1051 972 l 421 0 l 375 0 z "},"W":{"ha":1511,"x_min":182,"x_max":1574,"o":"m 319 0 l 182 972 l 228 972 l 360 33 l 338 33 l 854 972 l 899 972 l 1039 33 l 1015 33 l 1525 972 l 1574 972 l 1047 0 l 999 0 l 861 921 l 875 921 l 367 0 l 319 0 z "},"X":{"ha":875,"x_min":-40,"x_max":938,"o":"m -40 0 l 450 517 l 447 492 l 181 972 l 231 972 l 481 519 l 460 526 l 883 972 l 938 972 l 483 494 l 485 514 l 771 0 l 721 0 l 454 482 l 471 479 l 15 0 l -40 0 z "},"Y":{"ha":856,"x_min":133,"x_max":968,"o":"m 332 0 l 401 346 l 407 314 l 133 972 l 182 972 l 436 358 l 414 357 l 914 972 l 968 972 l 431 311 l 449 346 l 379 0 l 332 0 z "},"Z":{"ha":892,"x_min":-6,"x_max":947,"o":"m -6 0 l 1 33 l 888 947 l 888 929 l 189 929 l 197 972 l 947 972 l 940 939 l 54 25 l 54 43 l 776 43 l 767 0 l -6 0 z "},"[":{"ha":411,"x_min":51,"x_max":510,"o":"m 51 -269 l 311 1031 l 510 1031 l 501 989 l 349 989 l 106 -228 l 260 -228 l 251 -269 l 51 -269 z "},"\\":{"ha":429,"x_min":118,"x_max":358,"o":"m 358 -139 l 317 -139 l 118 1169 l 160 1169 l 358 -139 z "},"]":{"ha":411,"x_min":-90,"x_max":368,"o":"m 108 -269 l -90 -269 l -82 -228 l 71 -228 l 314 989 l 161 989 l 169 1031 l 368 1031 l 108 -269 z "},"^":{"ha":786,"x_min":100,"x_max":621,"o":"m 100 201 l 453 771 l 497 771 l 621 201 l 581 201 l 464 750 l 482 750 l 146 201 l 100 201 z "},"_":{"ha":694,"x_min":-79,"x_max":624,"o":"m -79 -36 l -71 0 l 624 0 l 615 -36 l -79 -36 z "},"`":{"ha":833,"x_min":344,"x_max":582,"o":"m 526 843 l 344 1000 l 419 1000 l 582 843 l 526 843 z "},"a":{"ha":935,"x_min":65,"x_max":853,"o":"m 375 -4 q 212 31 282 -4 q 103 133 142 67 q 65 292 65 200 q 95 464 65 385 q 180 602 125 543 q 309 694 235 661 q 474 726 383 726 q 635 692 568 726 q 738 592 703 657 q 774 438 774 528 q 724 211 775 311 q 584 53 674 111 q 375 -4 494 -4 m 383 38 q 568 88 488 38 q 695 227 649 139 q 742 428 742 315 q 670 617 742 550 q 471 683 599 683 q 287 633 368 683 q 158 494 206 582 q 111 293 111 406 q 183 105 111 172 q 383 38 254 38 m 664 0 l 713 240 l 750 350 l 757 468 l 807 721 l 853 721 l 710 0 l 664 0 z "},"b":{"ha":935,"x_min":82,"x_max":869,"o":"m 82 0 l 288 1031 l 333 1031 l 224 481 l 185 371 l 178 256 l 126 0 l 82 0 m 461 -4 q 299 30 367 -4 q 197 128 232 64 q 161 285 163 193 q 190 460 161 379 q 271 600 218 540 q 397 693 324 660 q 560 726 471 726 q 724 690 654 726 q 831 588 793 654 q 869 429 869 522 q 839 257 869 336 q 754 119 808 178 q 625 28 700 60 q 461 -4 550 -4 m 464 38 q 649 88 568 38 q 776 227 729 139 q 824 428 824 315 q 752 617 824 550 q 551 683 681 683 q 367 633 449 683 q 240 495 286 583 q 193 293 193 407 q 265 105 193 172 q 464 38 336 38 z "},"c":{"ha":763,"x_min":65,"x_max":742,"o":"m 385 -4 q 214 32 286 -4 q 103 135 142 68 q 65 292 65 201 q 119 516 65 418 q 265 670 172 614 q 476 726 357 726 q 638 694 569 726 q 742 599 706 661 l 706 574 q 613 657 671 631 q 474 683 554 683 q 288 633 369 683 q 158 494 206 582 q 111 293 111 406 q 183 105 111 172 q 389 38 256 38 q 529 65 464 38 q 638 144 594 93 l 668 117 q 547 27 622 58 q 385 -4 471 -4 z "},"d":{"ha":935,"x_min":65,"x_max":915,"o":"m 375 -4 q 212 31 282 -4 q 103 133 142 67 q 65 292 65 200 q 95 464 65 385 q 180 602 125 543 q 309 694 235 661 q 474 726 383 726 q 635 692 568 726 q 738 592 703 657 q 774 438 774 528 q 745 261 774 342 q 664 122 717 181 q 538 29 611 63 q 375 -4 464 -4 m 383 38 q 568 88 488 38 q 695 227 649 139 q 742 428 742 315 q 670 617 742 550 q 471 683 599 683 q 287 633 368 683 q 158 494 206 582 q 111 293 111 406 q 183 105 111 172 q 383 38 254 38 m 664 0 l 713 240 l 750 350 l 757 468 l 869 1031 l 915 1031 l 710 0 l 664 0 z "},"e":{"ha":824,"x_min":67,"x_max":754,"o":"m 389 -4 q 216 31 289 -4 q 105 133 143 67 q 67 294 67 200 q 117 515 67 418 q 256 669 168 613 q 456 726 344 726 q 615 691 549 726 q 718 589 682 656 q 754 429 754 522 q 752 390 754 410 q 747 354 750 371 l 101 354 l 110 393 l 726 393 l 707 374 q 694 544 724 475 q 603 649 665 613 q 454 685 540 685 q 278 634 356 685 q 156 496 200 583 q 111 296 111 408 q 183 104 111 171 q 393 38 256 38 q 539 65 472 38 q 649 140 606 92 l 671 108 q 551 26 626 57 q 389 -4 476 -4 z "},"f":{"ha":442,"x_min":94,"x_max":617,"o":"m 94 0 l 264 846 q 337 988 282 940 q 481 1035 392 1035 q 558 1022 522 1035 q 617 985 594 1010 l 590 953 q 479 994 550 994 q 366 957 408 994 q 307 838 324 919 l 282 711 l 278 690 l 140 0 l 94 0 m 94 681 l 101 721 l 521 721 l 514 681 l 94 681 z "},"g":{"ha":943,"x_min":25,"x_max":863,"o":"m 331 -274 q 153 -243 232 -274 q 25 -157 74 -212 l 58 -124 q 173 -204 101 -176 q 333 -232 244 -232 q 571 -161 485 -232 q 686 63 657 -90 l 731 283 l 763 376 l 768 471 l 818 721 l 863 721 l 733 69 q 600 -192 697 -111 q 331 -274 503 -274 m 382 25 q 215 59 285 25 q 106 157 144 93 q 68 308 68 221 q 99 474 68 399 q 184 607 129 550 q 314 695 239 664 q 479 726 389 726 q 640 694 572 726 q 746 599 708 661 q 783 446 783 536 q 733 233 783 328 q 592 81 682 138 q 382 25 501 25 m 388 67 q 574 115 493 67 q 703 248 656 164 q 750 439 750 332 q 678 619 750 556 q 476 683 607 683 q 291 635 372 683 q 162 503 210 588 q 114 311 114 419 q 186 131 114 194 q 388 67 258 67 z "},"h":{"ha":931,"x_min":82,"x_max":815,"o":"m 551 726 q 711 688 650 726 q 794 581 772 649 q 797 422 815 513 l 713 0 l 667 0 l 751 422 q 723 613 775 543 q 542 683 671 683 q 323 611 411 683 q 207 397 235 539 l 128 0 l 82 0 l 288 1031 l 333 1031 l 229 513 l 213 517 q 351 676 264 626 q 551 726 439 726 z "},"i":{"ha":354,"x_min":82,"x_max":340,"o":"m 82 0 l 225 721 l 271 721 l 128 0 l 82 0 m 292 910 q 261 922 274 910 q 249 951 249 935 q 263 985 249 971 q 297 1000 278 1000 q 328 988 315 1000 q 340 958 340 975 q 326 924 340 939 q 292 910 311 910 z "},"j":{"ha":361,"x_min":-236,"x_max":347,"o":"m -94 -274 q -174 -261 -137 -274 q -236 -225 -211 -249 l -210 -190 q -92 -233 -162 -233 q 15 -197 -25 -233 q 72 -78 56 -160 l 232 721 l 278 721 l 117 -85 q -94 -274 81 -274 m 299 910 q 268 922 281 910 q 256 951 256 935 q 270 985 256 971 q 304 1000 285 1000 q 335 988 322 1000 q 347 958 347 975 q 333 924 347 939 q 299 910 318 910 z "},"k":{"ha":785,"x_min":82,"x_max":822,"o":"m 158 208 l 165 265 l 754 721 l 822 721 l 443 428 l 415 406 l 158 208 m 82 0 l 288 1031 l 333 1031 l 128 0 l 82 0 m 654 0 l 406 411 l 440 443 l 708 0 l 654 0 z "},"l":{"ha":354,"x_min":82,"x_max":333,"o":"m 82 0 l 288 1031 l 333 1031 l 128 0 l 82 0 z "},"m":{"ha":1481,"x_min":82,"x_max":1365,"o":"m 1107 726 q 1265 688 1206 726 q 1344 581 1324 649 q 1347 422 1365 513 l 1263 0 l 1217 0 l 1301 422 q 1275 613 1325 543 q 1100 683 1225 683 q 892 616 978 683 q 779 417 806 549 l 694 0 l 649 0 l 733 422 q 708 613 757 543 q 533 683 658 683 q 321 610 407 683 q 207 397 235 538 l 128 0 l 82 0 l 225 721 l 271 721 l 229 513 l 213 517 q 350 676 265 626 q 542 726 435 726 q 676 699 622 726 q 758 624 729 672 q 788 508 786 575 l 767 514 q 907 674 818 621 q 1107 726 996 726 z "},"n":{"ha":931,"x_min":82,"x_max":815,"o":"m 551 726 q 711 688 650 726 q 794 581 772 649 q 797 422 815 513 l 713 0 l 667 0 l 751 422 q 723 613 775 543 q 542 683 671 683 q 323 611 411 683 q 207 397 235 539 l 128 0 l 82 0 l 225 721 l 271 721 l 229 513 l 213 517 q 351 676 264 626 q 551 726 439 726 z "},"o":{"ha":853,"x_min":65,"x_max":788,"o":"m 378 -4 q 213 32 283 -4 q 103 135 142 68 q 65 292 65 201 q 118 515 65 417 q 263 669 171 613 q 475 726 356 726 q 642 690 572 726 q 749 588 711 654 q 788 429 788 521 q 735 207 788 306 q 590 52 682 108 q 378 -4 497 -4 m 383 38 q 568 88 488 38 q 695 227 649 139 q 742 428 742 315 q 670 617 742 550 q 471 683 599 683 q 287 633 368 683 q 158 494 206 582 q 111 293 111 406 q 183 105 111 172 q 383 38 254 38 z "},"p":{"ha":935,"x_min":28,"x_max":869,"o":"m 461 -4 q 299 30 367 -4 q 197 128 232 64 q 161 285 163 193 q 211 510 161 411 q 351 668 261 610 q 560 726 442 726 q 724 690 654 726 q 831 588 793 654 q 869 429 869 522 q 839 257 869 336 q 754 119 808 178 q 625 28 700 60 q 461 -4 550 -4 m 28 -269 l 225 721 l 271 721 l 222 482 l 185 371 l 178 253 l 74 -269 l 28 -269 m 464 38 q 649 88 568 38 q 776 227 729 139 q 824 428 824 315 q 752 617 824 550 q 551 683 681 683 q 367 633 449 683 q 240 495 286 583 q 193 293 193 407 q 265 105 193 172 q 464 38 336 38 z "},"q":{"ha":935,"x_min":65,"x_max":853,"o":"m 375 -4 q 212 31 282 -4 q 103 133 142 67 q 65 292 65 200 q 95 464 65 385 q 180 602 125 543 q 309 694 235 661 q 474 726 383 726 q 635 692 568 726 q 738 592 703 657 q 774 438 774 528 q 724 211 775 311 q 584 53 674 111 q 375 -4 494 -4 m 383 38 q 568 88 488 38 q 695 227 649 139 q 742 428 742 315 q 670 617 742 550 q 471 683 599 683 q 287 633 368 683 q 158 494 206 582 q 111 293 111 406 q 183 105 111 172 q 383 38 254 38 m 610 -269 l 711 240 l 750 350 l 757 465 l 808 721 l 853 721 l 656 -269 l 610 -269 z "},"r":{"ha":539,"x_min":82,"x_max":551,"o":"m 82 0 l 225 721 l 271 721 l 226 500 l 218 515 q 345 672 264 617 q 551 726 426 726 l 543 681 q 535 681 539 681 q 526 681 531 681 q 316 603 399 681 q 203 374 233 526 l 128 0 l 82 0 z "},"s":{"ha":653,"x_min":-7,"x_max":624,"o":"m 267 -4 q 108 22 183 -4 q -7 89 33 49 l 21 125 q 129 60 63 85 q 269 36 196 36 q 456 81 389 36 q 522 203 522 125 q 492 279 522 253 q 414 319 463 306 q 311 342 365 332 q 208 369 257 353 q 130 419 160 386 q 100 514 100 453 q 136 626 100 578 q 238 700 172 674 q 392 726 304 726 q 522 707 458 726 q 624 653 586 688 l 599 618 q 503 668 558 651 q 388 685 447 685 q 211 639 276 685 q 146 517 146 593 q 176 440 146 467 q 254 399 206 413 q 357 376 303 386 q 460 349 411 365 q 538 299 508 332 q 568 207 568 267 q 531 93 568 140 q 426 21 494 46 q 267 -4 358 -4 z "},"t":{"ha":544,"x_min":94,"x_max":521,"o":"m 283 -4 q 186 19 224 -4 q 135 88 149 43 q 133 194 121 132 l 269 879 l 315 879 l 181 200 q 192 77 164 118 q 292 36 219 36 q 358 47 326 36 q 414 79 389 58 l 432 46 q 361 8 401 19 q 283 -4 321 -4 m 94 681 l 101 721 l 521 721 l 514 681 l 94 681 z "},"u":{"ha":925,"x_min":117,"x_max":843,"o":"m 376 -4 q 219 34 279 -4 q 138 140 160 72 q 135 300 117 208 l 218 721 l 264 721 l 181 299 q 208 108 156 178 q 386 38 260 38 q 603 110 517 38 q 718 324 690 183 l 797 721 l 843 721 l 700 0 l 656 0 l 697 208 l 713 204 q 574 46 661 96 q 376 -4 488 -4 z "},"v":{"ha":718,"x_min":79,"x_max":783,"o":"m 264 0 l 79 721 l 126 721 l 303 28 l 282 28 l 733 721 l 783 721 l 311 0 l 264 0 z "},"w":{"ha":1175,"x_min":81,"x_max":1239,"o":"m 228 0 l 81 721 l 124 721 l 263 28 l 243 28 l 639 721 l 678 721 l 822 28 l 801 28 l 1192 721 l 1239 721 l 831 0 l 788 0 l 644 678 l 660 678 l 271 0 l 228 0 z "},"x":{"ha":704,"x_min":-37,"x_max":721,"o":"m -37 0 l 338 383 l 332 364 l 124 721 l 174 721 l 367 390 l 347 393 l 665 721 l 721 721 l 367 357 l 371 382 l 596 0 l 544 0 l 342 350 l 360 350 l 21 0 l -37 0 z "},"y":{"ha":718,"x_min":-153,"x_max":783,"o":"m 4 -274 q -86 -257 -43 -274 q -153 -210 -129 -240 l -122 -176 q -66 -219 -99 -206 q 10 -233 -33 -233 q 101 -206 58 -233 q 194 -103 144 -178 l 272 17 l 282 28 l 733 721 l 783 721 l 235 -118 q 159 -212 194 -178 q 86 -260 124 -246 q 4 -274 49 -274 m 269 -17 l 79 721 l 126 721 l 303 31 l 269 -17 z "},"z":{"ha":689,"x_min":-10,"x_max":689,"o":"m -10 0 l -4 32 l 629 696 l 646 681 l 135 681 l 142 721 l 689 721 l 682 689 l 50 26 l 29 40 l 561 40 l 553 0 l -10 0 z "},"{":{"ha":429,"x_min":89,"x_max":529,"o":"m 229 -269 q 153 -252 186 -269 q 108 -198 121 -235 q 106 -104 94 -161 l 185 288 q 179 344 192 326 q 138 361 167 361 l 89 361 l 97 401 l 144 401 q 197 418 179 401 q 221 474 214 435 l 306 890 q 363 995 319 960 q 489 1031 407 1031 l 529 1031 l 521 989 l 478 989 q 391 961 422 989 q 350 889 360 933 l 267 474 q 251 423 261 443 q 225 392 240 403 q 186 375 210 381 l 188 383 q 226 355 213 376 q 229 288 239 333 l 151 -101 q 164 -199 139 -171 q 235 -228 189 -228 l 278 -228 l 269 -269 l 229 -269 z "},"|":{"ha":400,"x_min":53,"x_max":357,"o":"m 53 -269 l 313 1031 l 357 1031 l 97 -269 l 53 -269 z "},"}":{"ha":429,"x_min":-92,"x_max":349,"o":"m -92 -269 l -83 -228 l -42 -228 q 46 -200 15 -228 q 86 -128 76 -172 l 169 288 q 186 341 176 321 q 212 372 196 361 q 251 386 228 382 l 249 378 q 210 406 224 385 q 207 474 197 428 l 285 863 q 274 960 300 932 q 203 989 249 989 l 160 989 l 168 1031 l 207 1031 q 285 1013 253 1031 q 330 959 317 996 q 331 865 343 922 l 253 474 q 258 417 246 435 q 300 400 269 400 l 349 400 l 340 360 l 292 360 q 240 343 257 360 q 215 288 222 326 l 132 -129 q 74 -234 118 -199 q -53 -269 31 -269 l -92 -269 z "},"~":{"ha":783,"x_min":101,"x_max":732,"o":"m 546 392 q 463 415 494 392 q 406 467 431 438 q 354 519 381 497 q 286 542 328 542 q 192 503 232 542 q 138 397 153 464 l 101 397 q 140 497 114 456 q 204 559 167 538 q 288 581 242 581 q 371 558 339 581 q 427 505 403 535 q 478 453 451 475 q 546 431 506 431 q 641 469 601 431 q 696 575 681 508 l 732 575 q 692 476 718 517 q 629 413 667 435 q 546 392 592 392 z "}," ":{"ha":351,"x_min":0,"x_max":0,"o":""},"¡":{"ha":342,"x_min":29,"x_max":281,"o":"m 29 -214 l 172 453 l 207 453 l 82 -214 l 29 -214 m 235 636 q 203 649 217 636 q 190 679 190 663 q 196 703 190 692 q 213 720 201 714 q 236 726 224 726 q 267 713 254 726 q 281 682 281 700 q 267 649 281 663 q 235 636 254 636 z "},"¢":{"ha":763,"x_min":65,"x_max":742,"o":"m 385 -4 q 214 32 286 -4 q 103 135 142 68 q 65 292 65 201 q 119 516 65 418 q 265 670 172 614 q 476 726 357 726 q 638 694 569 726 q 742 599 706 661 l 706 574 q 613 657 671 631 q 474 683 554 683 q 288 633 369 683 q 158 494 206 582 q 111 293 111 406 q 183 105 111 172 q 389 38 256 38 q 529 65 464 38 q 638 144 594 93 l 668 117 q 547 27 622 58 q 385 -4 471 -4 m 299 -167 l 508 888 l 546 888 l 335 -167 l 299 -167 z "},"£":{"ha":865,"x_min":-31,"x_max":943,"o":"m 136 15 l 265 661 q 342 840 288 769 q 481 944 397 910 q 671 978 564 978 q 826 958 754 978 q 943 894 897 938 l 915 857 q 808 917 871 899 q 669 935 746 935 q 431 867 522 935 q 311 656 340 800 l 183 15 l 136 15 m -31 0 l -22 43 l 763 43 l 753 0 l -31 0 m 63 468 l 69 504 l 689 504 l 681 468 l 63 468 z "},"¤":{"ha":972,"x_min":68,"x_max":935,"o":"m 233 679 l 68 846 l 96 875 l 264 708 l 233 679 m 769 679 l 739 708 l 906 875 l 935 846 l 769 679 m 906 7 l 739 174 l 769 203 l 935 36 l 906 7 m 96 7 l 68 36 l 233 203 l 264 174 l 96 7 m 501 67 q 351 95 421 67 q 228 176 282 124 q 144 296 175 228 q 114 439 114 364 q 144 585 114 517 q 228 706 175 654 q 351 787 282 757 q 501 817 421 817 q 653 787 582 817 q 777 706 724 757 q 861 585 831 654 q 892 439 892 517 q 861 296 892 364 q 777 176 831 228 q 653 95 724 124 q 501 67 582 67 m 501 108 q 677 153 599 108 q 803 274 756 199 q 850 439 850 349 q 803 608 850 532 q 677 729 756 683 q 501 775 599 775 q 328 729 407 775 q 202 608 249 683 q 156 439 156 532 q 202 274 156 349 q 328 153 249 199 q 501 108 407 108 z "},"¥":{"ha":939,"x_min":89,"x_max":1051,"o":"m 374 0 l 458 422 l 467 393 l 133 972 l 182 972 l 493 429 l 474 429 l 999 972 l 1051 972 l 489 389 l 506 422 l 421 0 l 374 0 m 89 208 l 96 243 l 796 243 l 788 208 l 89 208 m 128 400 l 135 435 l 835 435 l 826 400 l 128 400 z "},"¦":{"ha":400,"x_min":53,"x_max":357,"o":"m 215 544 l 313 1031 l 357 1031 l 260 544 l 215 544 m 53 -269 l 150 217 l 194 217 l 97 -269 l 53 -269 z "},"§":{"ha":661,"x_min":-37,"x_max":718,"o":"m 415 207 l 375 232 q 522 295 469 246 q 574 415 574 344 q 544 498 574 468 q 470 544 515 528 q 374 573 425 560 q 276 605 322 586 q 201 658 231 624 q 172 756 172 693 q 210 868 172 818 q 316 947 247 918 q 475 976 385 976 q 569 968 522 976 q 654 944 615 960 q 718 904 693 928 l 693 869 q 595 920 653 903 q 472 938 538 938 q 285 885 354 938 q 217 757 217 832 q 245 676 217 706 q 319 632 274 647 q 417 603 365 617 q 514 571 468 590 q 588 516 560 551 q 617 418 617 481 q 562 282 617 338 q 415 207 507 226 m 213 -143 q 67 -117 131 -143 q -37 -49 3 -90 l -11 -14 q 86 -79 31 -56 q 217 -103 142 -103 q 404 -52 336 -103 q 472 78 472 -1 q 443 157 472 128 q 368 202 414 186 q 271 232 322 218 q 174 266 219 246 q 100 321 129 286 q 71 417 71 356 q 123 549 71 492 q 267 625 175 606 l 306 600 q 165 535 215 585 q 114 419 114 485 q 143 339 114 368 q 217 293 172 310 q 315 263 263 276 q 412 229 367 249 q 486 175 457 210 q 515 79 515 140 q 478 -36 515 14 q 373 -115 440 -86 q 213 -143 306 -143 z "},"¨":{"ha":833,"x_min":371,"x_max":688,"o":"m 644 886 q 616 897 628 886 q 604 925 604 908 q 617 957 604 943 q 647 971 629 971 q 676 960 664 971 q 688 932 688 949 q 674 900 688 914 q 644 886 661 886 m 411 886 q 383 897 394 886 q 371 925 371 908 q 384 957 371 943 q 415 971 397 971 q 443 960 431 971 q 456 932 456 949 q 442 900 456 914 q 411 886 429 886 z "},"©":{"ha":1139,"x_min":104,"x_max":1085,"o":"m 593 -4 q 400 33 489 -4 q 244 138 311 71 q 141 294 178 206 q 104 486 104 383 q 142 678 104 589 q 246 834 179 767 q 402 939 313 901 q 596 976 492 976 q 790 940 700 976 q 945 836 879 903 q 1048 681 1011 769 q 1085 489 1085 593 q 1047 295 1085 385 q 942 138 1010 206 q 786 33 875 71 q 593 -4 697 -4 m 593 28 q 773 64 690 28 q 919 163 856 100 q 1017 309 982 225 q 1051 489 1051 393 q 1017 669 1051 586 q 922 813 983 751 q 776 910 860 875 q 596 944 693 944 q 415 909 499 944 q 269 810 331 874 q 172 665 207 747 q 138 486 138 582 q 172 307 138 390 q 269 161 207 224 q 414 63 331 99 q 593 28 497 28 m 604 194 q 458 232 522 194 q 356 335 393 269 q 319 486 319 400 q 356 638 319 572 q 458 740 393 703 q 604 778 522 778 q 725 753 669 778 q 817 681 781 729 l 786 653 q 706 719 754 697 q 603 740 658 740 q 478 708 533 740 q 392 619 424 676 q 360 486 360 561 q 392 353 360 411 q 478 264 424 296 q 603 232 533 232 q 706 253 658 232 q 786 319 754 275 l 817 292 q 725 219 781 244 q 604 194 669 194 z "},"ª":{"ha":550,"x_min":136,"x_max":557,"o":"m 450 601 l 469 700 l 471 714 l 503 872 q 483 971 517 940 q 382 1001 450 1001 q 293 987 339 1001 q 214 946 247 972 l 197 974 q 283 1018 233 1001 q 388 1035 333 1035 q 515 993 472 1035 q 542 869 557 951 l 488 601 l 450 601 m 283 599 q 175 626 214 599 q 136 703 136 654 q 158 776 136 746 q 222 822 181 806 q 318 838 263 838 l 507 838 l 501 811 l 315 811 q 212 783 250 811 q 174 707 174 756 q 290 628 174 628 q 398 653 353 628 q 475 726 443 679 l 482 703 q 404 627 454 656 q 283 599 354 599 z "},"«":{"ha":607,"x_min":78,"x_max":600,"o":"m 229 103 l 78 361 l 333 619 l 382 619 l 115 347 l 115 379 l 275 103 l 229 103 m 447 103 l 296 361 l 551 619 l 600 619 l 333 347 l 333 379 l 493 103 l 447 103 z "},"¬":{"ha":783,"x_min":124,"x_max":711,"o":"m 711 506 l 653 215 l 610 215 l 660 465 l 124 465 l 132 506 l 711 506 z "},"­":{"ha":529,"x_min":86,"x_max":446,"o":"m 86 349 l 94 390 l 446 390 l 438 349 l 86 349 z "},"®":{"ha":1139,"x_min":104,"x_max":1085,"o":"m 593 -4 q 400 33 489 -4 q 244 138 311 71 q 141 294 178 206 q 104 486 104 383 q 142 678 104 589 q 246 834 179 767 q 402 939 313 901 q 596 976 492 976 q 790 940 700 976 q 945 836 879 903 q 1048 681 1011 769 q 1085 489 1085 593 q 1047 295 1085 385 q 942 138 1010 206 q 786 33 875 71 q 593 -4 697 -4 m 794 199 l 650 422 l 694 422 l 839 199 l 794 199 m 593 28 q 773 64 690 28 q 919 163 856 100 q 1017 309 982 225 q 1051 489 1051 393 q 1017 669 1051 586 q 922 813 983 751 q 776 910 860 875 q 596 944 693 944 q 415 909 499 944 q 269 810 331 874 q 172 665 207 747 q 138 486 138 582 q 172 307 138 390 q 269 161 207 224 q 414 63 331 99 q 593 28 497 28 m 413 199 l 413 774 l 622 774 q 780 723 722 774 q 838 588 838 672 q 780 453 838 503 q 622 403 722 403 l 451 403 l 451 199 l 413 199 m 450 438 l 619 438 q 751 477 704 438 q 799 588 799 517 q 751 698 799 658 q 619 738 704 738 l 450 738 l 450 438 z "},"¯":{"ha":833,"x_min":329,"x_max":726,"o":"m 329 903 l 336 940 l 726 940 l 719 903 l 329 903 z "},"°":{"ha":583,"x_min":161,"x_max":585,"o":"m 372 554 q 267 583 315 554 q 190 659 218 611 q 161 765 161 707 q 190 873 161 825 q 267 949 218 921 q 372 978 315 978 q 480 949 432 978 q 556 873 528 921 q 585 765 585 825 q 556 659 585 707 q 480 583 528 611 q 372 554 432 554 m 372 588 q 463 612 422 588 q 526 676 503 636 q 550 765 550 717 q 526 856 550 815 q 463 920 503 896 q 372 944 422 944 q 283 920 324 944 q 219 856 243 896 q 196 765 196 817 q 219 676 196 717 q 283 612 243 636 q 372 588 324 588 z "},"±":{"ha":783,"x_min":31,"x_max":713,"o":"m 31 0 l 39 42 l 617 42 l 608 0 l 31 0 m 340 217 l 453 779 l 496 779 l 383 217 l 340 217 m 125 476 l 133 517 l 713 517 l 704 476 l 125 476 z "},"²":{"ha":597,"x_min":89,"x_max":588,"o":"m 89 454 l 94 481 l 411 714 q 498 786 468 756 q 538 842 528 817 q 549 894 549 868 q 508 972 549 944 q 393 999 468 999 q 281 982 332 999 q 193 931 231 965 l 169 957 q 268 1015 210 994 q 397 1035 326 1035 q 538 997 488 1035 q 588 896 588 960 q 576 835 588 865 q 532 772 564 806 q 439 693 500 738 l 142 475 l 124 489 l 539 489 l 532 454 l 89 454 z "},"³":{"ha":597,"x_min":86,"x_max":615,"o":"m 308 450 q 174 473 232 450 q 86 529 115 496 l 110 557 q 190 507 139 528 q 311 486 240 486 q 465 524 408 486 q 521 635 521 563 q 482 717 521 688 q 365 746 443 746 l 310 746 l 315 774 l 568 1010 l 574 996 l 188 996 l 194 1031 l 615 1031 l 610 1004 l 357 768 l 342 778 l 369 778 q 510 739 461 778 q 558 635 558 700 q 528 536 558 578 q 441 472 497 494 q 308 450 385 450 z "},"´":{"ha":833,"x_min":442,"x_max":731,"o":"m 442 843 l 651 1000 l 731 1000 l 500 843 l 442 843 z "},"µ":{"ha":933,"x_min":29,"x_max":851,"o":"m 29 -269 l 226 721 l 272 721 l 188 299 q 216 108 164 178 q 394 38 268 38 q 612 110 525 38 q 726 324 699 183 l 806 721 l 851 721 l 708 0 l 663 0 l 704 208 l 721 204 q 637 85 688 132 q 524 17 586 39 q 390 -4 461 -4 q 230 36 293 -4 q 149 160 167 76 l 165 185 l 75 -269 l 29 -269 z "},"¶":{"ha":844,"x_min":118,"x_max":800,"o":"m 213 -139 l 356 574 q 233 597 288 574 q 149 663 179 619 q 118 769 118 707 q 160 915 118 857 q 278 1001 203 972 q 450 1031 354 1031 l 800 1031 l 567 -139 l 525 -139 l 750 990 l 479 990 l 254 -139 l 213 -139 z "},"·":{"ha":319,"x_min":115,"x_max":207,"o":"m 160 324 q 129 337 143 324 q 115 368 115 350 q 129 402 115 389 q 161 415 143 415 q 194 402 181 415 q 207 369 207 389 q 201 347 207 357 q 183 330 194 336 q 160 324 172 324 z "},"¸":{"ha":833,"x_min":163,"x_max":419,"o":"m 272 -299 q 213 -290 242 -299 q 163 -262 183 -281 l 185 -233 q 224 -256 201 -249 q 275 -264 247 -264 q 351 -238 324 -264 q 379 -172 379 -212 q 358 -124 379 -142 q 296 -107 336 -107 l 274 -107 l 328 7 l 363 7 l 324 -76 q 394 -106 368 -81 q 419 -172 419 -132 q 378 -262 419 -225 q 272 -299 338 -299 z "},"¹":{"ha":597,"x_min":140,"x_max":529,"o":"m 324 468 l 433 1014 l 447 996 l 258 996 l 265 1031 l 475 1031 l 363 468 l 324 468 m 140 454 l 147 489 l 529 489 l 522 454 l 140 454 z "},"º":{"ha":568,"x_min":142,"x_max":607,"o":"m 344 599 q 238 622 283 599 q 167 686 193 644 q 142 783 142 728 q 176 912 142 856 q 269 1001 210 968 q 406 1035 329 1035 q 512 1011 467 1035 q 582 946 557 988 q 607 849 607 904 q 573 722 607 779 q 480 632 539 665 q 344 599 421 599 m 349 632 q 463 661 414 632 q 541 740 513 690 q 569 849 569 789 q 524 959 569 918 q 403 1000 478 1000 q 288 971 338 1000 q 209 893 238 942 q 181 785 181 844 q 227 674 181 715 q 349 632 274 632 z "},"»":{"ha":607,"x_min":7,"x_max":529,"o":"m 160 619 l 311 361 l 56 103 l 7 103 l 274 375 l 274 343 l 114 619 l 160 619 m 378 619 l 529 361 l 274 103 l 225 103 l 492 375 l 492 343 l 332 619 l 378 619 z "},"¼":{"ha":1419,"x_min":129,"x_max":1339,"o":"m 283 0 l 1138 972 l 1186 972 l 332 0 l 283 0 m 829 161 l 835 189 l 1206 576 l 1253 576 l 881 189 l 858 196 l 1339 196 l 1332 161 l 829 161 m 1125 0 l 1158 161 l 1167 196 l 1194 338 l 1231 338 l 1164 0 l 1125 0 z "},"½":{"ha":1419,"x_min":129,"x_max":1319,"o":"m 283 0 l 1138 972 l 1186 972 l 332 0 l 283 0 m 821 0 l 826 26 l 1143 260 q 1230 332 1200 301 q 1270 388 1260 363 q 1281 440 1281 414 q 1240 517 1281 490 q 1125 544 1200 544 q 1013 528 1064 544 q 925 476 963 511 l 901 503 q 1000 560 942 540 q 1129 581 1058 581 q 1269 543 1219 581 q 1319 442 1319 506 q 1308 381 1319 411 q 1264 317 1296 351 q 1171 239 1232 283 l 874 21 l 856 35 l 1271 35 l 1264 0 l 821 0 z "},"¾":{"ha":1419,"x_min":75,"x_max":1339,"o":"m 283 0 l 1138 972 l 1186 972 l 332 0 l 283 0 m 829 161 l 835 189 l 1206 576 l 1253 576 l 881 189 l 858 196 l 1339 196 l 1332 161 l 829 161 m 1125 0 l 1158 161 l 1167 196 l 1194 338 l 1231 338 l 1164 0 l 1125 0 z "},"¿":{"ha":774,"x_min":49,"x_max":660,"o":"m 315 -219 q 172 -195 232 -219 q 80 -125 111 -171 q 49 -15 49 -79 q 72 94 49 49 q 131 173 94 139 q 210 236 168 207 q 293 295 253 265 q 363 363 333 325 q 404 453 393 401 l 451 453 q 410 352 440 393 q 339 279 379 311 q 256 219 299 247 q 177 160 214 192 q 117 88 140 129 q 94 -11 94 47 q 153 -134 94 -90 q 319 -178 211 -178 q 497 -149 422 -178 q 631 -60 572 -119 l 660 -92 q 515 -186 600 -153 q 315 -219 429 -219 m 472 636 q 441 649 454 636 q 428 679 428 663 q 434 703 428 693 q 451 720 440 714 q 474 726 461 726 q 506 713 493 726 q 518 682 518 700 q 505 649 518 663 q 472 636 492 636 z "},"À":{"ha":967,"x_min":-62,"x_max":883,"o":"m -62 0 l 582 972 l 628 972 l 883 0 l 836 0 l 592 940 l 611 940 l -10 0 l -62 0 m 150 285 l 176 325 l 771 325 l 781 285 l 150 285 z "},"Á":{"ha":967,"x_min":-62,"x_max":883,"o":"m -62 0 l 582 972 l 628 972 l 883 0 l 836 0 l 592 940 l 611 940 l -10 0 l -62 0 m 150 285 l 176 325 l 771 325 l 781 285 l 150 285 z "},"Â":{"ha":967,"x_min":-62,"x_max":883,"o":"m -62 0 l 582 972 l 628 972 l 883 0 l 836 0 l 592 940 l 611 940 l -10 0 l -62 0 m 150 285 l 176 325 l 771 325 l 781 285 l 150 285 z "},"Ã":{"ha":967,"x_min":-62,"x_max":883,"o":"m -62 0 l 582 972 l 628 972 l 883 0 l 836 0 l 592 940 l 611 940 l -10 0 l -62 0 m 150 285 l 176 325 l 771 325 l 781 285 l 150 285 z "},"Ä":{"ha":967,"x_min":-62,"x_max":883,"o":"m -62 0 l 582 972 l 628 972 l 883 0 l 836 0 l 592 940 l 611 940 l -10 0 l -62 0 m 150 285 l 176 325 l 771 325 l 781 285 l 150 285 z "},"Å":{"ha":967,"x_min":-62,"x_max":883,"o":"m -62 0 l 582 972 l 628 972 l 883 0 l 836 0 l 592 940 l 611 940 l -10 0 l -62 0 m 150 285 l 176 325 l 771 325 l 781 285 l 150 285 m 653 1081 q 585 1098 614 1081 q 538 1145 556 1115 q 521 1210 521 1175 q 538 1275 521 1244 q 585 1324 556 1306 q 653 1342 615 1342 q 722 1324 692 1342 q 769 1275 751 1306 q 786 1210 786 1244 q 769 1145 786 1175 q 722 1098 751 1115 q 653 1081 692 1081 m 653 1111 q 725 1140 697 1111 q 753 1210 753 1169 q 725 1280 753 1250 q 653 1310 697 1310 q 583 1281 611 1310 q 554 1210 554 1251 q 582 1140 554 1168 q 653 1111 610 1111 z "},"Æ":{"ha":1406,"x_min":-62,"x_max":1414,"o":"m -62 0 l 740 972 l 792 972 l 783 931 l 738 931 l 772 944 l -7 0 l -62 0 m 203 285 l 224 325 l 663 325 l 654 285 l 203 285 m 583 0 l 778 972 l 1414 972 l 1406 929 l 815 929 l 639 43 l 1250 43 l 1240 0 l 583 0 m 717 472 l 725 515 l 1261 515 l 1253 472 l 717 472 z "},"Ç":{"ha":990,"x_min":96,"x_max":1014,"o":"m 538 -6 q 297 44 396 -6 q 147 184 199 94 q 96 390 96 274 q 136 614 96 508 q 252 801 176 719 q 437 931 328 883 q 682 978 546 978 q 880 944 794 978 q 1014 850 965 911 l 981 821 q 857 906 932 878 q 679 935 782 935 q 456 892 556 935 q 288 774 357 849 q 181 600 218 699 q 143 392 143 501 q 188 208 143 288 q 322 83 233 128 q 542 38 410 38 q 729 69 646 38 q 874 157 813 100 l 901 122 q 744 29 840 64 q 538 -6 649 -6 m 435 -299 q 375 -290 404 -299 q 325 -262 346 -281 l 347 -233 q 387 -256 364 -249 q 438 -264 410 -264 q 514 -238 486 -264 q 542 -172 542 -212 q 520 -124 542 -142 q 458 -107 499 -107 l 436 -107 l 490 7 l 525 7 l 486 -76 q 556 -106 531 -81 q 582 -172 582 -132 q 541 -262 582 -225 q 435 -299 500 -299 z "},"È":{"ha":928,"x_min":106,"x_max":936,"o":"m 247 515 l 783 515 l 775 472 l 239 472 l 247 515 m 161 43 l 772 43 l 763 0 l 106 0 l 300 972 l 936 972 l 928 929 l 338 929 l 161 43 z "},"É":{"ha":928,"x_min":106,"x_max":936,"o":"m 247 515 l 783 515 l 775 472 l 239 472 l 247 515 m 161 43 l 772 43 l 763 0 l 106 0 l 300 972 l 936 972 l 928 929 l 338 929 l 161 43 z "},"Ê":{"ha":928,"x_min":106,"x_max":936,"o":"m 247 515 l 783 515 l 775 472 l 239 472 l 247 515 m 161 43 l 772 43 l 763 0 l 106 0 l 300 972 l 936 972 l 928 929 l 338 929 l 161 43 z "},"Ë":{"ha":928,"x_min":106,"x_max":936,"o":"m 247 515 l 783 515 l 775 472 l 239 472 l 247 515 m 161 43 l 772 43 l 763 0 l 106 0 l 300 972 l 936 972 l 928 929 l 338 929 l 161 43 z "},"Ì":{"ha":403,"x_min":106,"x_max":408,"o":"m 106 0 l 300 972 l 347 972 l 153 0 l 106 0 z "},"Í":{"ha":403,"x_min":106,"x_max":557,"o":"m 106 0 l 300 972 l 347 972 l 153 0 l 106 0 z "},"Î":{"ha":403,"x_min":106,"x_max":540,"o":"m 106 0 l 300 972 l 347 972 l 153 0 l 106 0 z "},"Ï":{"ha":403,"x_min":106,"x_max":514,"o":"m 106 0 l 300 972 l 347 972 l 153 0 l 106 0 z "},"Ð":{"ha":1149,"x_min":47,"x_max":1104,"o":"m 107 0 l 301 972 l 656 972 q 901 924 801 972 q 1053 787 1001 875 q 1104 582 1104 699 q 1062 349 1104 456 q 940 164 1019 242 q 749 43 861 86 q 499 0 638 0 l 107 0 m 163 43 l 503 43 q 797 112 674 43 q 990 302 921 181 q 1058 581 1058 424 q 1013 764 1058 685 q 878 886 968 843 q 651 929 788 929 l 339 929 l 163 43 m 47 474 l 56 514 l 565 514 l 557 474 l 47 474 z "},"Ñ":{"ha":1132,"x_min":106,"x_max":1076,"o":"m 106 0 l 300 972 l 339 972 l 864 54 l 847 58 l 1029 972 l 1076 972 l 882 0 l 843 0 l 318 918 l 335 914 l 153 0 l 106 0 z "},"Ò":{"ha":1163,"x_min":96,"x_max":1117,"o":"m 538 -6 q 297 44 394 -6 q 147 184 199 94 q 96 390 96 274 q 136 614 96 508 q 251 801 176 719 q 434 931 326 883 q 676 978 542 978 q 917 928 818 978 q 1066 789 1015 878 q 1117 582 1117 700 q 1077 358 1117 464 q 962 171 1038 253 q 779 42 886 89 q 538 -6 672 -6 m 542 38 q 760 81 663 38 q 926 199 857 124 q 1032 372 994 274 q 1069 581 1069 471 q 1025 765 1069 686 q 892 890 981 844 q 672 935 803 935 q 453 892 551 935 q 287 774 356 849 q 181 600 218 699 q 143 392 143 501 q 188 208 143 288 q 322 83 233 128 q 542 38 410 38 z "},"Ó":{"ha":1163,"x_min":96,"x_max":1117,"o":"m 538 -6 q 297 44 394 -6 q 147 184 199 94 q 96 390 96 274 q 136 614 96 508 q 251 801 176 719 q 434 931 326 883 q 676 978 542 978 q 917 928 818 978 q 1066 789 1015 878 q 1117 582 1117 700 q 1077 358 1117 464 q 962 171 1038 253 q 779 42 886 89 q 538 -6 672 -6 m 542 38 q 760 81 663 38 q 926 199 857 124 q 1032 372 994 274 q 1069 581 1069 471 q 1025 765 1069 686 q 892 890 981 844 q 672 935 803 935 q 453 892 551 935 q 287 774 356 849 q 181 600 218 699 q 143 392 143 501 q 188 208 143 288 q 322 83 233 128 q 542 38 410 38 z "},"Ô":{"ha":1163,"x_min":96,"x_max":1117,"o":"m 538 -6 q 297 44 394 -6 q 147 184 199 94 q 96 390 96 274 q 136 614 96 508 q 251 801 176 719 q 434 931 326 883 q 676 978 542 978 q 917 928 818 978 q 1066 789 1015 878 q 1117 582 1117 700 q 1077 358 1117 464 q 962 171 1038 253 q 779 42 886 89 q 538 -6 672 -6 m 542 38 q 760 81 663 38 q 926 199 857 124 q 1032 372 994 274 q 1069 581 1069 471 q 1025 765 1069 686 q 892 890 981 844 q 672 935 803 935 q 453 892 551 935 q 287 774 356 849 q 181 600 218 699 q 143 392 143 501 q 188 208 143 288 q 322 83 233 128 q 542 38 410 38 z "},"Õ":{"ha":1163,"x_min":96,"x_max":1117,"o":"m 538 -6 q 297 44 394 -6 q 147 184 199 94 q 96 390 96 274 q 136 614 96 508 q 251 801 176 719 q 434 931 326 883 q 676 978 542 978 q 917 928 818 978 q 1066 789 1015 878 q 1117 582 1117 700 q 1077 358 1117 464 q 962 171 1038 253 q 779 42 886 89 q 538 -6 672 -6 m 542 38 q 760 81 663 38 q 926 199 857 124 q 1032 372 994 274 q 1069 581 1069 471 q 1025 765 1069 686 q 892 890 981 844 q 672 935 803 935 q 453 892 551 935 q 287 774 356 849 q 181 600 218 699 q 143 392 143 501 q 188 208 143 288 q 322 83 233 128 q 542 38 410 38 z "},"Ö":{"ha":1163,"x_min":96,"x_max":1117,"o":"m 538 -6 q 297 44 394 -6 q 147 184 199 94 q 96 390 96 274 q 136 614 96 508 q 251 801 176 719 q 434 931 326 883 q 676 978 542 978 q 917 928 818 978 q 1066 789 1015 878 q 1117 582 1117 700 q 1077 358 1117 464 q 962 171 1038 253 q 779 42 886 89 q 538 -6 672 -6 m 542 38 q 760 81 663 38 q 926 199 857 124 q 1032 372 994 274 q 1069 581 1069 471 q 1025 765 1069 686 q 892 890 981 844 q 672 935 803 935 q 453 892 551 935 q 287 774 356 849 q 181 600 218 699 q 143 392 143 501 q 188 208 143 288 q 322 83 233 128 q 542 38 410 38 z "},"×":{"ha":783,"x_min":181,"x_max":653,"o":"m 181 297 l 626 706 l 653 675 l 206 267 l 181 297 m 224 678 l 253 706 l 610 294 l 579 267 l 224 678 z "},"Ø":{"ha":1163,"x_min":40,"x_max":1169,"o":"m 538 -6 q 297 44 394 -6 q 147 184 199 94 q 96 390 96 274 q 136 614 96 508 q 251 801 176 719 q 434 931 326 883 q 676 978 542 978 q 917 928 818 978 q 1066 789 1015 878 q 1117 582 1117 700 q 1077 358 1117 464 q 962 171 1038 253 q 779 42 886 89 q 538 -6 672 -6 m 542 38 q 760 81 663 38 q 926 199 857 124 q 1032 372 994 274 q 1069 581 1069 471 q 1025 765 1069 686 q 892 890 981 844 q 672 935 803 935 q 453 892 551 935 q 287 774 356 849 q 181 600 218 699 q 143 392 143 501 q 188 208 143 288 q 322 83 233 128 q 542 38 410 38 m 40 -97 l 1122 1069 l 1169 1069 l 88 -97 l 40 -97 z "},"Ù":{"ha":1101,"x_min":156,"x_max":1054,"o":"m 493 -6 q 285 51 363 -6 q 182 200 208 107 q 179 407 156 293 l 292 972 l 339 972 l 225 406 q 216 267 210 333 q 254 149 222 201 q 347 67 286 97 q 500 38 407 38 q 694 80 615 38 q 821 201 772 122 q 890 388 869 281 l 1008 972 l 1054 972 l 938 385 q 792 98 901 201 q 493 -6 682 -6 z "},"Ú":{"ha":1101,"x_min":156,"x_max":1054,"o":"m 493 -6 q 285 51 363 -6 q 182 200 208 107 q 179 407 156 293 l 292 972 l 339 972 l 225 406 q 216 267 210 333 q 254 149 222 201 q 347 67 286 97 q 500 38 407 38 q 694 80 615 38 q 821 201 772 122 q 890 388 869 281 l 1008 972 l 1054 972 l 938 385 q 792 98 901 201 q 493 -6 682 -6 z "},"Û":{"ha":1101,"x_min":156,"x_max":1054,"o":"m 493 -6 q 285 51 363 -6 q 182 200 208 107 q 179 407 156 293 l 292 972 l 339 972 l 225 406 q 216 267 210 333 q 254 149 222 201 q 347 67 286 97 q 500 38 407 38 q 694 80 615 38 q 821 201 772 122 q 890 388 869 281 l 1008 972 l 1054 972 l 938 385 q 792 98 901 201 q 493 -6 682 -6 z "},"Ü":{"ha":1101,"x_min":156,"x_max":1054,"o":"m 493 -6 q 285 51 363 -6 q 182 200 208 107 q 179 407 156 293 l 292 972 l 339 972 l 225 406 q 216 267 210 333 q 254 149 222 201 q 347 67 286 97 q 500 38 407 38 q 694 80 615 38 q 821 201 772 122 q 890 388 869 281 l 1008 972 l 1054 972 l 938 385 q 792 98 901 201 q 493 -6 682 -6 z "},"Ý":{"ha":856,"x_min":133,"x_max":968,"o":"m 332 0 l 401 346 l 407 314 l 133 972 l 182 972 l 436 358 l 414 357 l 914 972 l 968 972 l 431 311 l 449 346 l 379 0 l 332 0 z "},"Þ":{"ha":989,"x_min":106,"x_max":936,"o":"m 175 190 l 183 232 l 492 232 q 785 317 682 232 q 889 571 889 403 q 815 735 889 678 q 604 793 742 793 l 296 793 l 304 835 l 606 835 q 849 767 763 835 q 936 572 936 699 q 882 363 936 447 q 728 234 828 278 q 493 190 629 190 l 175 190 m 106 0 l 300 972 l 347 972 l 153 0 l 106 0 z "},"ß":{"ha":910,"x_min":81,"x_max":844,"o":"m 454 -4 q 373 2 417 -4 q 301 19 329 8 l 317 60 q 385 43 349 49 q 454 38 422 38 q 625 72 551 38 q 739 170 699 107 q 779 322 779 233 q 713 461 779 417 q 543 506 647 506 l 461 506 l 469 547 q 640 581 567 547 q 756 676 714 614 q 799 822 799 738 q 747 947 799 901 q 593 993 694 993 q 385 926 471 993 q 267 703 299 860 l 126 0 l 81 0 l 221 701 q 297 894 244 821 q 426 1001 350 967 q 596 1035 503 1035 q 728 1010 672 1035 q 814 938 783 985 q 844 825 844 890 q 801 670 844 739 q 684 561 758 601 q 518 521 610 521 l 556 540 q 696 515 636 540 q 790 442 756 490 q 825 324 825 394 q 777 150 825 224 q 646 36 729 76 q 454 -4 563 -4 z "},"à":{"ha":935,"x_min":65,"x_max":853,"o":"m 375 -4 q 212 31 282 -4 q 103 133 142 67 q 65 292 65 200 q 95 464 65 385 q 180 602 125 543 q 309 694 235 661 q 474 726 383 726 q 635 692 568 726 q 738 592 703 657 q 774 438 774 528 q 724 211 775 311 q 584 53 674 111 q 375 -4 494 -4 m 383 38 q 568 88 488 38 q 695 227 649 139 q 742 428 742 315 q 670 617 742 550 q 471 683 599 683 q 287 633 368 683 q 158 494 206 582 q 111 293 111 406 q 183 105 111 172 q 383 38 254 38 m 664 0 l 713 240 l 750 350 l 757 468 l 807 721 l 853 721 l 710 0 l 664 0 m 554 843 l 372 1000 l 447 1000 l 610 843 l 554 843 z "},"á":{"ha":935,"x_min":65,"x_max":853,"o":"m 375 -4 q 212 31 282 -4 q 103 133 142 67 q 65 292 65 200 q 95 464 65 385 q 180 602 125 543 q 309 694 235 661 q 474 726 383 726 q 635 692 568 726 q 738 592 703 657 q 774 438 774 528 q 724 211 775 311 q 584 53 674 111 q 375 -4 494 -4 m 383 38 q 568 88 488 38 q 695 227 649 139 q 742 428 742 315 q 670 617 742 550 q 471 683 599 683 q 287 633 368 683 q 158 494 206 582 q 111 293 111 406 q 183 105 111 172 q 383 38 254 38 m 664 0 l 713 240 l 750 350 l 757 468 l 807 721 l 853 721 l 710 0 l 664 0 m 469 843 l 679 1000 l 758 1000 l 528 843 l 469 843 z "},"â":{"ha":935,"x_min":65,"x_max":853,"o":"m 375 -4 q 212 31 282 -4 q 103 133 142 67 q 65 292 65 200 q 95 464 65 385 q 180 602 125 543 q 309 694 235 661 q 474 726 383 726 q 635 692 568 726 q 738 592 703 657 q 774 438 774 528 q 724 211 775 311 q 584 53 674 111 q 375 -4 494 -4 m 383 38 q 568 88 488 38 q 695 227 649 139 q 742 428 742 315 q 670 617 742 550 q 471 683 599 683 q 287 633 368 683 q 158 494 206 582 q 111 293 111 406 q 183 105 111 172 q 383 38 254 38 m 664 0 l 713 240 l 750 350 l 757 468 l 807 721 l 853 721 l 710 0 l 664 0 m 339 843 l 529 1000 l 588 1000 l 742 843 l 693 843 l 543 979 l 569 979 l 393 843 l 339 843 z "},"ã":{"ha":935,"x_min":65,"x_max":853,"o":"m 375 -4 q 212 31 282 -4 q 103 133 142 67 q 65 292 65 200 q 95 464 65 385 q 180 602 125 543 q 309 694 235 661 q 474 726 383 726 q 635 692 568 726 q 738 592 703 657 q 774 438 774 528 q 724 211 775 311 q 584 53 674 111 q 375 -4 494 -4 m 383 38 q 568 88 488 38 q 695 227 649 139 q 742 428 742 315 q 670 617 742 550 q 471 683 599 683 q 287 633 368 683 q 158 494 206 582 q 111 293 111 406 q 183 105 111 172 q 383 38 254 38 m 664 0 l 713 240 l 750 350 l 757 468 l 807 721 l 853 721 l 710 0 l 664 0 m 644 857 q 590 872 613 857 q 549 905 568 886 q 510 938 529 924 q 468 953 492 953 q 414 928 436 953 q 385 861 392 903 l 350 861 q 391 954 358 919 q 469 989 424 989 q 522 974 500 989 q 563 941 544 960 q 601 908 582 922 q 644 893 619 893 q 699 918 676 893 q 728 982 722 943 l 763 982 q 722 892 753 926 q 644 857 692 857 z "},"ä":{"ha":935,"x_min":65,"x_max":853,"o":"m 375 -4 q 212 31 282 -4 q 103 133 142 67 q 65 292 65 200 q 95 464 65 385 q 180 602 125 543 q 309 694 235 661 q 474 726 383 726 q 635 692 568 726 q 738 592 703 657 q 774 438 774 528 q 724 211 775 311 q 584 53 674 111 q 375 -4 494 -4 m 383 38 q 568 88 488 38 q 695 227 649 139 q 742 428 742 315 q 670 617 742 550 q 471 683 599 683 q 287 633 368 683 q 158 494 206 582 q 111 293 111 406 q 183 105 111 172 q 383 38 254 38 m 664 0 l 713 240 l 750 350 l 757 468 l 807 721 l 853 721 l 710 0 l 664 0 m 672 886 q 644 897 656 886 q 632 925 632 908 q 644 957 632 943 q 675 971 657 971 q 703 960 692 971 q 715 932 715 949 q 702 900 715 914 q 672 886 689 886 m 439 886 q 410 897 422 886 q 399 925 399 908 q 412 957 399 943 q 443 971 425 971 q 471 960 458 971 q 483 932 483 949 q 470 900 483 914 q 439 886 457 886 z "},"å":{"ha":935,"x_min":65,"x_max":853,"o":"m 375 -4 q 212 31 282 -4 q 103 133 142 67 q 65 292 65 200 q 95 464 65 385 q 180 602 125 543 q 309 694 235 661 q 474 726 383 726 q 635 692 568 726 q 738 592 703 657 q 774 438 774 528 q 724 211 775 311 q 584 53 674 111 q 375 -4 494 -4 m 383 38 q 568 88 488 38 q 695 227 649 139 q 742 428 742 315 q 670 617 742 550 q 471 683 599 683 q 287 633 368 683 q 158 494 206 582 q 111 293 111 406 q 183 105 111 172 q 383 38 254 38 m 664 0 l 713 240 l 750 350 l 757 468 l 807 721 l 853 721 l 710 0 l 664 0 m 564 829 q 496 847 525 829 q 449 894 467 864 q 432 958 432 924 q 449 1024 432 993 q 497 1072 467 1054 q 564 1090 526 1090 q 633 1072 603 1090 q 680 1024 663 1054 q 697 958 697 993 q 680 894 697 924 q 633 847 663 864 q 564 829 603 829 m 564 860 q 636 889 608 860 q 664 958 664 918 q 636 1028 664 999 q 564 1058 608 1058 q 494 1029 522 1058 q 465 958 465 1000 q 493 888 465 917 q 564 860 521 860 z "},"æ":{"ha":1367,"x_min":53,"x_max":1299,"o":"m 290 -4 q 163 17 215 -4 q 81 78 110 39 q 53 174 53 118 q 131 335 53 276 q 351 394 210 394 l 626 394 l 619 357 l 349 357 q 165 309 231 357 q 99 176 99 261 q 149 72 99 108 q 294 35 199 35 q 428 63 367 35 q 534 146 490 92 q 594 281 578 200 l 629 457 q 606 626 651 569 q 443 683 560 683 q 298 658 368 683 q 179 589 228 632 l 158 624 q 242 678 194 656 q 343 714 290 701 q 447 726 396 726 q 633 664 576 726 q 676 496 689 601 l 658 508 q 745 626 693 576 q 862 701 797 675 q 999 726 926 726 q 1159 691 1092 726 q 1263 589 1226 656 q 1299 429 1299 522 q 1296 391 1299 410 q 1290 357 1293 372 l 646 357 l 653 394 l 1271 394 l 1250 374 q 1238 544 1267 475 q 1146 649 1208 613 q 996 685 1083 685 q 821 634 899 685 q 698 496 743 583 q 653 296 653 408 q 725 103 653 169 q 935 38 797 38 q 1079 65 1014 38 q 1189 140 1144 92 l 1214 108 q 1092 26 1165 57 q 931 -4 1018 -4 q 772 25 840 -4 q 661 113 703 54 q 611 260 619 172 l 631 257 q 553 106 607 164 q 432 22 500 49 q 290 -4 364 -4 z "},"ç":{"ha":763,"x_min":65,"x_max":742,"o":"m 385 -4 q 214 32 286 -4 q 103 135 142 68 q 65 292 65 201 q 119 516 65 418 q 265 670 172 614 q 476 726 357 726 q 638 694 569 726 q 742 599 706 661 l 706 574 q 613 657 671 631 q 474 683 554 683 q 288 633 369 683 q 158 494 206 582 q 111 293 111 406 q 183 105 111 172 q 389 38 256 38 q 529 65 464 38 q 638 144 594 93 l 668 117 q 547 27 622 58 q 385 -4 471 -4 m 321 -303 q 261 -294 290 -303 q 211 -267 232 -285 l 233 -237 q 273 -260 250 -253 q 324 -268 296 -268 q 400 -242 372 -268 q 428 -176 428 -217 q 406 -128 428 -146 q 344 -111 385 -111 l 322 -111 l 376 3 l 411 3 l 372 -81 q 442 -110 417 -85 q 468 -176 468 -136 q 427 -266 468 -229 q 321 -303 386 -303 z "},"è":{"ha":824,"x_min":67,"x_max":754,"o":"m 389 -4 q 216 31 289 -4 q 105 133 143 67 q 67 294 67 200 q 117 515 67 418 q 256 669 168 613 q 456 726 344 726 q 615 691 549 726 q 718 589 682 656 q 754 429 754 522 q 752 390 754 410 q 747 354 750 371 l 101 354 l 110 393 l 726 393 l 707 374 q 694 544 724 475 q 603 649 665 613 q 454 685 540 685 q 278 634 356 685 q 156 496 200 583 q 111 296 111 408 q 183 104 111 171 q 393 38 256 38 q 539 65 472 38 q 649 140 606 92 l 671 108 q 551 26 626 57 q 389 -4 476 -4 m 513 843 l 331 1000 l 406 1000 l 568 843 l 513 843 z "},"é":{"ha":824,"x_min":67,"x_max":754,"o":"m 389 -4 q 216 31 289 -4 q 105 133 143 67 q 67 294 67 200 q 117 515 67 418 q 256 669 168 613 q 456 726 344 726 q 615 691 549 726 q 718 589 682 656 q 754 429 754 522 q 752 390 754 410 q 747 354 750 371 l 101 354 l 110 393 l 726 393 l 707 374 q 694 544 724 475 q 603 649 665 613 q 454 685 540 685 q 278 634 356 685 q 156 496 200 583 q 111 296 111 408 q 183 104 111 171 q 393 38 256 38 q 539 65 472 38 q 649 140 606 92 l 671 108 q 551 26 626 57 q 389 -4 476 -4 m 428 843 l 638 1000 l 717 1000 l 486 843 l 428 843 z "},"ê":{"ha":824,"x_min":67,"x_max":754,"o":"m 389 -4 q 216 31 289 -4 q 105 133 143 67 q 67 294 67 200 q 117 515 67 418 q 256 669 168 613 q 456 726 344 726 q 615 691 549 726 q 718 589 682 656 q 754 429 754 522 q 752 390 754 410 q 747 354 750 371 l 101 354 l 110 393 l 726 393 l 707 374 q 694 544 724 475 q 603 649 665 613 q 454 685 540 685 q 278 634 356 685 q 156 496 200 583 q 111 296 111 408 q 183 104 111 171 q 393 38 256 38 q 539 65 472 38 q 649 140 606 92 l 671 108 q 551 26 626 57 q 389 -4 476 -4 m 297 843 l 488 1000 l 546 1000 l 700 843 l 651 843 l 501 979 l 528 979 l 351 843 l 297 843 z "},"ë":{"ha":824,"x_min":67,"x_max":754,"o":"m 389 -4 q 216 31 289 -4 q 105 133 143 67 q 67 294 67 200 q 117 515 67 418 q 256 669 168 613 q 456 726 344 726 q 615 691 549 726 q 718 589 682 656 q 754 429 754 522 q 752 390 754 410 q 747 354 750 371 l 101 354 l 110 393 l 726 393 l 707 374 q 694 544 724 475 q 603 649 665 613 q 454 685 540 685 q 278 634 356 685 q 156 496 200 583 q 111 296 111 408 q 183 104 111 171 q 393 38 256 38 q 539 65 472 38 q 649 140 606 92 l 671 108 q 551 26 626 57 q 389 -4 476 -4 m 631 886 q 602 897 614 886 q 590 925 590 908 q 603 957 590 943 q 633 971 615 971 q 662 960 650 971 q 674 932 674 949 q 660 900 674 914 q 631 886 647 886 m 397 886 q 369 897 381 886 q 357 925 357 908 q 370 957 357 943 q 401 971 383 971 q 429 960 417 971 q 442 932 442 949 q 428 900 442 914 q 397 886 415 886 z "},"ì":{"ha":354,"x_min":82,"x_max":342,"o":"m 82 0 l 225 721 l 271 721 l 128 0 l 82 0 m 286 843 l 104 1000 l 179 1000 l 342 843 l 286 843 z "},"í":{"ha":354,"x_min":82,"x_max":490,"o":"m 82 0 l 225 721 l 271 721 l 128 0 l 82 0 m 201 843 l 411 1000 l 490 1000 l 260 843 l 201 843 z "},"î":{"ha":354,"x_min":82,"x_max":439,"o":"m 82 0 l 225 721 l 271 721 l 128 0 l 82 0 m 106 843 l 263 1000 l 318 1000 l 439 843 l 390 843 l 278 979 l 299 979 l 158 843 l 106 843 z "},"ï":{"ha":354,"x_min":82,"x_max":411,"o":"m 82 0 l 225 721 l 271 721 l 128 0 l 82 0 m 368 886 q 341 897 351 886 q 331 925 331 908 q 343 957 331 943 q 374 971 356 971 q 401 960 390 971 q 411 932 411 949 q 398 900 411 914 q 368 886 385 886 m 204 886 q 178 897 189 886 q 167 925 167 908 q 180 957 167 943 q 211 971 193 971 q 238 960 226 971 q 249 932 249 949 q 235 900 249 914 q 204 886 222 886 z "},"ð":{"ha":864,"x_min":56,"x_max":843,"o":"m 349 -6 q 194 26 260 -6 q 92 117 128 58 q 56 253 56 175 q 106 435 56 358 q 244 556 157 513 q 442 600 331 600 q 605 562 538 600 q 705 455 672 524 q 722 294 738 386 l 707 294 q 766 456 749 368 q 783 622 783 543 q 698 861 783 782 q 458 940 613 940 q 353 932 407 940 q 261 910 300 924 l 257 949 q 350 973 294 964 q 460 982 406 982 q 656 942 572 982 q 784 822 739 901 q 829 624 829 742 q 810 449 829 538 q 752 280 790 361 q 656 134 714 199 q 521 32 597 69 q 349 -6 444 -6 m 354 36 q 477 59 417 36 q 586 124 538 82 q 664 220 635 165 q 693 339 693 275 q 626 500 693 442 q 442 558 558 558 q 265 520 342 558 q 144 414 188 482 q 101 256 101 346 q 168 94 101 153 q 354 36 235 36 m 282 714 l 268 750 l 829 978 l 843 942 l 282 714 z "},"ñ":{"ha":931,"x_min":82,"x_max":815,"o":"m 551 726 q 711 688 650 726 q 794 581 772 649 q 797 422 815 513 l 713 0 l 667 0 l 751 422 q 723 613 775 543 q 542 683 671 683 q 323 611 411 683 q 207 397 235 539 l 128 0 l 82 0 l 225 721 l 271 721 l 229 513 l 213 517 q 351 676 264 626 q 551 726 439 726 m 667 857 q 613 872 635 857 q 571 905 590 886 q 533 938 551 924 q 490 953 514 953 q 436 928 458 953 q 407 861 414 903 l 372 861 q 413 954 381 919 q 492 989 446 989 q 544 974 522 989 q 585 941 567 960 q 623 908 604 922 q 667 893 642 893 q 722 918 699 893 q 750 982 744 943 l 785 982 q 744 892 775 926 q 667 857 714 857 z "},"ò":{"ha":853,"x_min":65,"x_max":788,"o":"m 378 -4 q 213 32 283 -4 q 103 135 142 68 q 65 292 65 201 q 118 515 65 417 q 263 669 171 613 q 475 726 356 726 q 642 690 572 726 q 749 588 711 654 q 788 429 788 521 q 735 207 788 306 q 590 52 682 108 q 378 -4 497 -4 m 383 38 q 568 88 488 38 q 695 227 649 139 q 742 428 742 315 q 670 617 742 550 q 471 683 599 683 q 287 633 368 683 q 158 494 206 582 q 111 293 111 406 q 183 105 111 172 q 383 38 254 38 m 536 843 l 354 1000 l 429 1000 l 592 843 l 536 843 z "},"ó":{"ha":853,"x_min":65,"x_max":788,"o":"m 378 -4 q 213 32 283 -4 q 103 135 142 68 q 65 292 65 201 q 118 515 65 417 q 263 669 171 613 q 475 726 356 726 q 642 690 572 726 q 749 588 711 654 q 788 429 788 521 q 735 207 788 306 q 590 52 682 108 q 378 -4 497 -4 m 383 38 q 568 88 488 38 q 695 227 649 139 q 742 428 742 315 q 670 617 742 550 q 471 683 599 683 q 287 633 368 683 q 158 494 206 582 q 111 293 111 406 q 183 105 111 172 q 383 38 254 38 m 451 843 l 661 1000 l 740 1000 l 510 843 l 451 843 z "},"ô":{"ha":853,"x_min":65,"x_max":788,"o":"m 378 -4 q 213 32 283 -4 q 103 135 142 68 q 65 292 65 201 q 118 515 65 417 q 263 669 171 613 q 475 726 356 726 q 642 690 572 726 q 749 588 711 654 q 788 429 788 521 q 735 207 788 306 q 590 52 682 108 q 378 -4 497 -4 m 383 38 q 568 88 488 38 q 695 227 649 139 q 742 428 742 315 q 670 617 742 550 q 471 683 599 683 q 287 633 368 683 q 158 494 206 582 q 111 293 111 406 q 183 105 111 172 q 383 38 254 38 m 321 843 l 511 1000 l 569 1000 l 724 843 l 675 843 l 525 979 l 551 979 l 375 843 l 321 843 z "},"õ":{"ha":853,"x_min":65,"x_max":788,"o":"m 378 -4 q 213 32 283 -4 q 103 135 142 68 q 65 292 65 201 q 118 515 65 417 q 263 669 171 613 q 475 726 356 726 q 642 690 572 726 q 749 588 711 654 q 788 429 788 521 q 735 207 788 306 q 590 52 682 108 q 378 -4 497 -4 m 383 38 q 568 88 488 38 q 695 227 649 139 q 742 428 742 315 q 670 617 742 550 q 471 683 599 683 q 287 633 368 683 q 158 494 206 582 q 111 293 111 406 q 183 105 111 172 q 383 38 254 38 m 626 857 q 572 872 594 857 q 531 905 550 886 q 492 938 511 924 q 450 953 474 953 q 396 928 418 953 q 367 861 374 903 l 332 861 q 373 954 340 919 q 451 989 406 989 q 504 974 482 989 q 545 941 526 960 q 583 908 564 922 q 626 893 601 893 q 681 918 658 893 q 710 982 704 943 l 744 982 q 704 892 735 926 q 626 857 674 857 z "},"ö":{"ha":853,"x_min":65,"x_max":788,"o":"m 378 -4 q 213 32 283 -4 q 103 135 142 68 q 65 292 65 201 q 118 515 65 417 q 263 669 171 613 q 475 726 356 726 q 642 690 572 726 q 749 588 711 654 q 788 429 788 521 q 735 207 788 306 q 590 52 682 108 q 378 -4 497 -4 m 383 38 q 568 88 488 38 q 695 227 649 139 q 742 428 742 315 q 670 617 742 550 q 471 683 599 683 q 287 633 368 683 q 158 494 206 582 q 111 293 111 406 q 183 105 111 172 q 383 38 254 38 m 654 886 q 626 897 638 886 q 614 925 614 908 q 626 957 614 943 q 657 971 639 971 q 685 960 674 971 q 697 932 697 949 q 684 900 697 914 q 654 886 671 886 m 421 886 q 392 897 404 886 q 381 925 381 908 q 394 957 381 943 q 425 971 407 971 q 453 960 440 971 q 465 932 465 949 q 452 900 465 914 q 421 886 439 886 z "},"÷":{"ha":783,"x_min":124,"x_max":711,"o":"m 124 465 l 132 506 l 711 506 l 703 465 l 124 465 m 365 188 q 335 201 347 188 q 322 231 322 214 q 335 263 322 250 q 367 276 349 276 q 397 264 385 276 q 410 233 410 251 q 397 201 410 215 q 365 188 383 188 m 467 696 q 436 709 449 696 q 424 739 424 722 q 437 772 424 758 q 468 785 450 785 q 499 772 486 785 q 511 742 511 760 q 498 710 511 724 q 467 696 485 696 z "},"ø":{"ha":853,"x_min":4,"x_max":844,"o":"m 378 -4 q 213 32 283 -4 q 103 135 142 68 q 65 292 65 201 q 118 515 65 417 q 263 669 171 613 q 475 726 356 726 q 642 690 572 726 q 749 588 711 654 q 788 429 788 521 q 735 207 788 306 q 590 52 682 108 q 378 -4 497 -4 m 383 38 q 568 88 488 38 q 695 227 649 139 q 742 428 742 315 q 670 617 742 550 q 471 683 599 683 q 287 633 368 683 q 158 494 206 582 q 111 293 111 406 q 183 105 111 172 q 383 38 254 38 m 4 -96 l 801 819 l 844 819 l 47 -96 l 4 -96 z "},"ù":{"ha":925,"x_min":117,"x_max":843,"o":"m 376 -4 q 219 34 279 -4 q 138 140 160 72 q 135 300 117 208 l 218 721 l 264 721 l 181 299 q 208 108 156 178 q 386 38 260 38 q 603 110 517 38 q 718 324 690 183 l 797 721 l 843 721 l 700 0 l 656 0 l 697 208 l 713 204 q 574 46 661 96 q 376 -4 488 -4 m 569 843 l 388 1000 l 463 1000 l 625 843 l 569 843 z "},"ú":{"ha":925,"x_min":117,"x_max":843,"o":"m 376 -4 q 219 34 279 -4 q 138 140 160 72 q 135 300 117 208 l 218 721 l 264 721 l 181 299 q 208 108 156 178 q 386 38 260 38 q 603 110 517 38 q 718 324 690 183 l 797 721 l 843 721 l 700 0 l 656 0 l 697 208 l 713 204 q 574 46 661 96 q 376 -4 488 -4 m 485 843 l 694 1000 l 774 1000 l 543 843 l 485 843 z "},"û":{"ha":925,"x_min":117,"x_max":843,"o":"m 376 -4 q 219 34 279 -4 q 138 140 160 72 q 135 300 117 208 l 218 721 l 264 721 l 181 299 q 208 108 156 178 q 386 38 260 38 q 603 110 517 38 q 718 324 690 183 l 797 721 l 843 721 l 700 0 l 656 0 l 697 208 l 713 204 q 574 46 661 96 q 376 -4 488 -4 m 354 843 l 544 1000 l 603 1000 l 757 843 l 708 843 l 558 979 l 585 979 l 408 843 l 354 843 z "},"ü":{"ha":925,"x_min":117,"x_max":843,"o":"m 376 -4 q 219 34 279 -4 q 138 140 160 72 q 135 300 117 208 l 218 721 l 264 721 l 181 299 q 208 108 156 178 q 386 38 260 38 q 603 110 517 38 q 718 324 690 183 l 797 721 l 843 721 l 700 0 l 656 0 l 697 208 l 713 204 q 574 46 661 96 q 376 -4 488 -4 m 688 886 q 659 897 671 886 q 647 925 647 908 q 660 957 647 943 q 690 971 672 971 q 719 960 707 971 q 731 932 731 949 q 717 900 731 914 q 688 886 704 886 m 454 886 q 426 897 438 886 q 414 925 414 908 q 427 957 414 943 q 458 971 440 971 q 486 960 474 971 q 499 932 499 949 q 485 900 499 914 q 454 886 472 886 z "},"ý":{"ha":718,"x_min":-153,"x_max":783,"o":"m 4 -274 q -86 -257 -43 -274 q -153 -210 -129 -240 l -122 -176 q -66 -219 -99 -206 q 10 -233 -33 -233 q 101 -206 58 -233 q 194 -103 144 -178 l 272 17 l 282 28 l 733 721 l 783 721 l 235 -118 q 159 -212 194 -178 q 86 -260 124 -246 q 4 -274 49 -274 m 269 -17 l 79 721 l 126 721 l 303 31 l 269 -17 m 364 843 l 574 1000 l 653 1000 l 422 843 l 364 843 z "},"þ":{"ha":935,"x_min":28,"x_max":869,"o":"m 28 -269 l 288 1031 l 333 1031 l 224 482 l 185 371 l 178 253 l 74 -269 l 28 -269 m 461 -4 q 299 30 367 -4 q 197 128 232 64 q 161 285 163 193 q 211 510 161 411 q 351 668 261 610 q 560 726 442 726 q 724 690 654 726 q 831 588 793 654 q 869 429 869 522 q 839 257 869 336 q 754 119 808 178 q 625 28 700 60 q 461 -4 550 -4 m 464 38 q 649 88 568 38 q 776 227 729 139 q 824 428 824 315 q 752 617 824 550 q 551 683 681 683 q 367 633 449 683 q 240 495 286 583 q 193 293 193 407 q 265 105 193 172 q 464 38 336 38 z "},"ÿ":{"ha":718,"x_min":-153,"x_max":783,"o":"m 4 -274 q -86 -257 -43 -274 q -153 -210 -129 -240 l -122 -176 q -66 -219 -99 -206 q 10 -233 -33 -233 q 101 -206 58 -233 q 194 -103 144 -178 l 272 17 l 282 28 l 733 721 l 783 721 l 235 -118 q 159 -212 194 -178 q 86 -260 124 -246 q 4 -274 49 -274 m 269 -17 l 79 721 l 126 721 l 303 31 l 269 -17 m 567 886 q 538 897 550 886 q 526 925 526 908 q 539 957 526 943 q 569 971 551 971 q 598 960 586 971 q 610 932 610 949 q 597 900 610 914 q 567 886 583 886 m 333 886 q 305 897 317 886 q 293 925 293 908 q 306 957 293 943 q 338 971 319 971 q 365 960 353 971 q 378 932 378 949 q 365 900 378 914 q 333 886 351 886 z "},"Ā":{"ha":967,"x_min":-62,"x_max":883,"o":"m -62 0 l 582 972 l 628 972 l 883 0 l 836 0 l 592 940 l 611 940 l -10 0 l -62 0 m 150 285 l 176 325 l 771 325 l 781 285 l 150 285 z "},"ā":{"ha":935,"x_min":65,"x_max":853,"o":"m 375 -4 q 212 31 282 -4 q 103 133 142 67 q 65 292 65 200 q 95 464 65 385 q 180 602 125 543 q 309 694 235 661 q 474 726 383 726 q 635 692 568 726 q 738 592 703 657 q 774 438 774 528 q 724 211 775 311 q 584 53 674 111 q 375 -4 494 -4 m 383 38 q 568 88 488 38 q 695 227 649 139 q 742 428 742 315 q 670 617 742 550 q 471 683 599 683 q 287 633 368 683 q 158 494 206 582 q 111 293 111 406 q 183 105 111 172 q 383 38 254 38 m 664 0 l 713 240 l 750 350 l 757 468 l 807 721 l 853 721 l 710 0 l 664 0 m 357 903 l 364 940 l 754 940 l 747 903 l 357 903 z "},"Ă":{"ha":967,"x_min":-62,"x_max":883,"o":"m -62 0 l 582 972 l 628 972 l 883 0 l 836 0 l 592 940 l 611 940 l -10 0 l -62 0 m 150 285 l 176 325 l 771 325 l 781 285 l 150 285 z "},"ă":{"ha":935,"x_min":65,"x_max":853,"o":"m 375 -4 q 212 31 282 -4 q 103 133 142 67 q 65 292 65 200 q 95 464 65 385 q 180 602 125 543 q 309 694 235 661 q 474 726 383 726 q 635 692 568 726 q 738 592 703 657 q 774 438 774 528 q 724 211 775 311 q 584 53 674 111 q 375 -4 494 -4 m 383 38 q 568 88 488 38 q 695 227 649 139 q 742 428 742 315 q 670 617 742 550 q 471 683 599 683 q 287 633 368 683 q 158 494 206 582 q 111 293 111 406 q 183 105 111 172 q 383 38 254 38 m 664 0 l 713 240 l 750 350 l 757 468 l 807 721 l 853 721 l 710 0 l 664 0 m 556 839 q 462 858 503 839 q 398 915 421 878 q 379 1000 375 951 l 417 1000 q 453 908 413 942 q 557 874 493 874 q 667 908 619 874 q 724 1000 715 942 l 761 1000 q 692 883 750 926 q 556 839 633 839 z "},"Ą":{"ha":967,"x_min":-62,"x_max":883,"o":"m -62 0 l 582 972 l 628 972 l 883 0 l 836 0 l 592 940 l 611 940 l -10 0 l -62 0 m 150 285 l 176 325 l 771 325 l 781 285 l 150 285 m 743 -299 q 662 -272 693 -299 q 631 -199 631 -244 q 655 -117 631 -156 q 731 -42 679 -78 q 865 26 783 -6 l 883 0 q 765 -59 813 -28 q 694 -124 717 -90 q 671 -193 671 -157 q 691 -245 671 -226 q 749 -264 711 -264 q 799 -255 774 -264 q 846 -231 825 -246 l 858 -261 q 804 -289 833 -279 q 743 -299 775 -299 z "},"ą":{"ha":935,"x_min":65,"x_max":853,"o":"m 375 -4 q 212 31 282 -4 q 103 133 142 67 q 65 292 65 200 q 95 464 65 385 q 180 602 125 543 q 309 694 235 661 q 474 726 383 726 q 635 692 568 726 q 738 592 703 657 q 774 438 774 528 q 724 211 775 311 q 584 53 674 111 q 375 -4 494 -4 m 383 38 q 568 88 488 38 q 695 227 649 139 q 742 428 742 315 q 670 617 742 550 q 471 683 599 683 q 287 633 368 683 q 158 494 206 582 q 111 293 111 406 q 183 105 111 172 q 383 38 254 38 m 664 0 l 713 240 l 750 350 l 757 468 l 807 721 l 853 721 l 710 0 l 664 0 m 568 -299 q 487 -272 518 -299 q 456 -199 456 -244 q 480 -117 456 -156 q 556 -42 504 -78 q 690 26 608 -6 l 708 0 q 590 -59 638 -28 q 519 -124 542 -90 q 496 -193 496 -157 q 516 -245 496 -226 q 574 -264 536 -264 q 624 -255 599 -264 q 671 -231 650 -246 l 683 -261 q 629 -289 658 -279 q 568 -299 600 -299 z "},"Ć":{"ha":990,"x_min":96,"x_max":1014,"o":"m 538 -6 q 297 44 396 -6 q 147 184 199 94 q 96 390 96 274 q 136 614 96 508 q 252 801 176 719 q 437 931 328 883 q 682 978 546 978 q 880 944 794 978 q 1014 850 965 911 l 981 821 q 857 906 932 878 q 679 935 782 935 q 456 892 556 935 q 288 774 357 849 q 181 600 218 699 q 143 392 143 501 q 188 208 143 288 q 322 83 233 128 q 542 38 410 38 q 729 69 646 38 q 874 157 813 100 l 901 122 q 744 29 840 64 q 538 -6 649 -6 z "},"ć":{"ha":763,"x_min":65,"x_max":742,"o":"m 385 -4 q 214 32 286 -4 q 103 135 142 68 q 65 292 65 201 q 119 516 65 418 q 265 670 172 614 q 476 726 357 726 q 638 694 569 726 q 742 599 706 661 l 706 574 q 613 657 671 631 q 474 683 554 683 q 288 633 369 683 q 158 494 206 582 q 111 293 111 406 q 183 105 111 172 q 389 38 256 38 q 529 65 464 38 q 638 144 594 93 l 668 117 q 547 27 622 58 q 385 -4 471 -4 m 432 843 l 642 1000 l 721 1000 l 490 843 l 432 843 z "},"Ĉ":{"ha":990,"x_min":96,"x_max":1014,"o":"m 538 -6 q 297 44 396 -6 q 147 184 199 94 q 96 390 96 274 q 136 614 96 508 q 252 801 176 719 q 437 931 328 883 q 682 978 546 978 q 880 944 794 978 q 1014 850 965 911 l 981 821 q 857 906 932 878 q 679 935 782 935 q 456 892 556 935 q 288 774 357 849 q 181 600 218 699 q 143 392 143 501 q 188 208 143 288 q 322 83 233 128 q 542 38 410 38 q 729 69 646 38 q 874 157 813 100 l 901 122 q 744 29 840 64 q 538 -6 649 -6 z "},"ĉ":{"ha":763,"x_min":65,"x_max":742,"o":"m 385 -4 q 214 32 286 -4 q 103 135 142 68 q 65 292 65 201 q 119 516 65 418 q 265 670 172 614 q 476 726 357 726 q 638 694 569 726 q 742 599 706 661 l 706 574 q 613 657 671 631 q 474 683 554 683 q 288 633 369 683 q 158 494 206 582 q 111 293 111 406 q 183 105 111 172 q 389 38 256 38 q 529 65 464 38 q 638 144 594 93 l 668 117 q 547 27 622 58 q 385 -4 471 -4 m 301 843 l 492 1000 l 550 1000 l 704 843 l 656 843 l 506 979 l 532 979 l 356 843 l 301 843 z "},"Ċ":{"ha":990,"x_min":96,"x_max":1014,"o":"m 538 -6 q 297 44 396 -6 q 147 184 199 94 q 96 390 96 274 q 136 614 96 508 q 252 801 176 719 q 437 931 328 883 q 682 978 546 978 q 880 944 794 978 q 1014 850 965 911 l 981 821 q 857 906 932 878 q 679 935 782 935 q 456 892 556 935 q 288 774 357 849 q 181 600 218 699 q 143 392 143 501 q 188 208 143 288 q 322 83 233 128 q 542 38 410 38 q 729 69 646 38 q 874 157 813 100 l 901 122 q 744 29 840 64 q 538 -6 649 -6 z "},"ċ":{"ha":763,"x_min":65,"x_max":742,"o":"m 385 -4 q 214 32 286 -4 q 103 135 142 68 q 65 292 65 201 q 119 516 65 418 q 265 670 172 614 q 476 726 357 726 q 638 694 569 726 q 742 599 706 661 l 706 574 q 613 657 671 631 q 474 683 554 683 q 288 633 369 683 q 158 494 206 582 q 111 293 111 406 q 183 105 111 172 q 389 38 256 38 q 529 65 464 38 q 638 144 594 93 l 668 117 q 547 27 622 58 q 385 -4 471 -4 m 518 886 q 489 898 501 886 q 476 926 476 910 q 490 960 476 946 q 522 975 503 975 q 551 963 539 975 q 564 935 564 951 q 551 901 564 915 q 518 886 538 886 z "},"Č":{"ha":990,"x_min":96,"x_max":1014,"o":"m 538 -6 q 297 44 396 -6 q 147 184 199 94 q 96 390 96 274 q 136 614 96 508 q 252 801 176 719 q 437 931 328 883 q 682 978 546 978 q 880 944 794 978 q 1014 850 965 911 l 981 821 q 857 906 932 878 q 679 935 782 935 q 456 892 556 935 q 288 774 357 849 q 181 600 218 699 q 143 392 143 501 q 188 208 143 288 q 322 83 233 128 q 542 38 410 38 q 729 69 646 38 q 874 157 813 100 l 901 122 q 744 29 840 64 q 538 -6 649 -6 z "},"č":{"ha":763,"x_min":65,"x_max":742,"o":"m 385 -4 q 214 32 286 -4 q 103 135 142 68 q 65 292 65 201 q 119 516 65 418 q 265 670 172 614 q 476 726 357 726 q 638 694 569 726 q 742 599 706 661 l 706 574 q 613 657 671 631 q 474 683 554 683 q 288 633 369 683 q 158 494 206 582 q 111 293 111 406 q 183 105 111 172 q 389 38 256 38 q 529 65 464 38 q 638 144 594 93 l 668 117 q 547 27 622 58 q 385 -4 471 -4 m 486 843 l 332 1000 l 381 1000 l 531 864 l 504 864 l 681 1000 l 735 1000 l 544 843 l 486 843 z "},"Ď":{"ha":1147,"x_min":106,"x_max":1103,"o":"m 106 0 l 300 972 l 654 972 q 900 924 800 972 q 1051 787 1000 875 q 1103 582 1103 699 q 1060 349 1103 456 q 939 164 1018 242 q 748 43 860 86 q 497 0 636 0 l 106 0 m 161 43 l 501 43 q 796 112 672 43 q 988 302 919 181 q 1057 581 1057 424 q 1012 764 1057 685 q 876 886 967 843 q 650 929 786 929 l 338 929 l 161 43 z "},"ď":{"ha":935,"x_min":65,"x_max":1097,"o":"m 375 -4 q 212 31 282 -4 q 103 133 142 67 q 65 292 65 200 q 95 464 65 385 q 180 602 125 543 q 309 694 235 661 q 474 726 383 726 q 635 692 568 726 q 738 592 703 657 q 774 438 774 528 q 745 261 774 342 q 664 122 717 181 q 538 29 611 63 q 375 -4 464 -4 m 383 38 q 568 88 488 38 q 695 227 649 139 q 742 428 742 315 q 670 617 742 550 q 471 683 599 683 q 287 633 368 683 q 158 494 206 582 q 111 293 111 406 q 183 105 111 172 q 383 38 254 38 m 664 0 l 713 240 l 750 350 l 757 468 l 869 1031 l 915 1031 l 710 0 l 664 0 m 1006 808 l 1056 1061 l 1097 1061 l 1042 808 l 1006 808 z "},"Đ":{"ha":1149,"x_min":47,"x_max":1104,"o":"m 107 0 l 301 972 l 656 972 q 901 924 801 972 q 1053 787 1001 875 q 1104 582 1104 699 q 1062 349 1104 456 q 940 164 1019 242 q 749 43 861 86 q 499 0 638 0 l 107 0 m 163 43 l 503 43 q 797 112 674 43 q 990 302 921 181 q 1058 581 1058 424 q 1013 764 1058 685 q 878 886 968 843 q 651 929 788 929 l 339 929 l 163 43 m 47 474 l 56 514 l 565 514 l 557 474 l 47 474 z "},"đ":{"ha":935,"x_min":65,"x_max":1040,"o":"m 375 -4 q 212 31 282 -4 q 103 133 142 67 q 65 292 65 200 q 95 464 65 385 q 180 602 125 543 q 309 694 235 661 q 474 726 383 726 q 635 692 568 726 q 738 592 703 657 q 774 438 774 528 q 745 261 774 342 q 664 122 717 181 q 538 29 611 63 q 375 -4 464 -4 m 383 38 q 568 88 488 38 q 695 227 649 139 q 742 428 742 315 q 670 617 742 550 q 471 683 599 683 q 287 633 368 683 q 158 494 206 582 q 111 293 111 406 q 183 105 111 172 q 383 38 254 38 m 664 0 l 713 240 l 750 350 l 757 468 l 869 1031 l 915 1031 l 710 0 l 664 0 m 503 857 l 511 896 l 1040 896 l 1033 857 l 503 857 z "},"Ē":{"ha":928,"x_min":106,"x_max":936,"o":"m 247 515 l 783 515 l 775 472 l 239 472 l 247 515 m 161 43 l 772 43 l 763 0 l 106 0 l 300 972 l 936 972 l 928 929 l 338 929 l 161 43 z "},"ē":{"ha":824,"x_min":67,"x_max":754,"o":"m 389 -4 q 216 31 289 -4 q 105 133 143 67 q 67 294 67 200 q 117 515 67 418 q 256 669 168 613 q 456 726 344 726 q 615 691 549 726 q 718 589 682 656 q 754 429 754 522 q 752 390 754 410 q 747 354 750 371 l 101 354 l 110 393 l 726 393 l 707 374 q 694 544 724 475 q 603 649 665 613 q 454 685 540 685 q 278 634 356 685 q 156 496 200 583 q 111 296 111 408 q 183 104 111 171 q 393 38 256 38 q 539 65 472 38 q 649 140 606 92 l 671 108 q 551 26 626 57 q 389 -4 476 -4 m 315 903 l 322 940 l 713 940 l 706 903 l 315 903 z "},"Ĕ":{"ha":928,"x_min":106,"x_max":936,"o":"m 247 515 l 783 515 l 775 472 l 239 472 l 247 515 m 161 43 l 772 43 l 763 0 l 106 0 l 300 972 l 936 972 l 928 929 l 338 929 l 161 43 z "},"ĕ":{"ha":824,"x_min":67,"x_max":754,"o":"m 389 -4 q 216 31 289 -4 q 105 133 143 67 q 67 294 67 200 q 117 515 67 418 q 256 669 168 613 q 456 726 344 726 q 615 691 549 726 q 718 589 682 656 q 754 429 754 522 q 752 390 754 410 q 747 354 750 371 l 101 354 l 110 393 l 726 393 l 707 374 q 694 544 724 475 q 603 649 665 613 q 454 685 540 685 q 278 634 356 685 q 156 496 200 583 q 111 296 111 408 q 183 104 111 171 q 393 38 256 38 q 539 65 472 38 q 649 140 606 92 l 671 108 q 551 26 626 57 q 389 -4 476 -4 m 514 839 q 420 858 461 839 q 356 915 379 878 q 338 1000 333 951 l 375 1000 q 411 908 371 942 q 515 874 451 874 q 626 908 578 874 q 682 1000 674 942 l 719 1000 q 650 883 708 926 q 514 839 592 839 z "},"Ė":{"ha":928,"x_min":106,"x_max":936,"o":"m 247 515 l 783 515 l 775 472 l 239 472 l 247 515 m 161 43 l 772 43 l 763 0 l 106 0 l 300 972 l 936 972 l 928 929 l 338 929 l 161 43 z "},"ė":{"ha":824,"x_min":67,"x_max":754,"o":"m 389 -4 q 216 31 289 -4 q 105 133 143 67 q 67 294 67 200 q 117 515 67 418 q 256 669 168 613 q 456 726 344 726 q 615 691 549 726 q 718 589 682 656 q 754 429 754 522 q 752 390 754 410 q 747 354 750 371 l 101 354 l 110 393 l 726 393 l 707 374 q 694 544 724 475 q 603 649 665 613 q 454 685 540 685 q 278 634 356 685 q 156 496 200 583 q 111 296 111 408 q 183 104 111 171 q 393 38 256 38 q 539 65 472 38 q 649 140 606 92 l 671 108 q 551 26 626 57 q 389 -4 476 -4 m 514 886 q 485 898 497 886 q 472 926 472 910 q 485 960 472 946 q 518 975 499 975 q 547 963 535 975 q 560 935 560 951 q 547 901 560 915 q 514 886 533 886 z "},"Ę":{"ha":928,"x_min":106,"x_max":936,"o":"m 247 515 l 783 515 l 775 472 l 239 472 l 247 515 m 161 43 l 772 43 l 763 0 l 106 0 l 300 972 l 936 972 l 928 929 l 338 929 l 161 43 m 622 -299 q 541 -272 572 -299 q 510 -199 510 -244 q 534 -117 510 -156 q 610 -42 558 -78 q 744 26 663 -6 l 763 0 q 644 -59 692 -28 q 573 -124 596 -90 q 550 -193 550 -157 q 570 -245 550 -226 q 628 -264 590 -264 q 678 -255 653 -264 q 725 -231 704 -246 l 738 -261 q 683 -289 713 -279 q 622 -299 654 -299 z "},"ę":{"ha":824,"x_min":67,"x_max":758,"o":"m 464 -299 q 385 -272 415 -299 q 356 -199 356 -244 q 372 -126 356 -162 q 426 -52 389 -90 q 525 26 464 -14 l 526 17 q 459 1 493 7 q 390 -4 425 -4 q 217 31 290 -4 q 106 133 144 67 q 67 294 67 200 q 117 515 67 418 q 257 669 168 613 q 458 726 346 726 q 618 691 551 726 q 722 589 685 656 q 758 429 758 522 q 756 390 758 410 q 750 354 754 371 l 103 354 l 110 393 l 729 393 l 710 374 q 696 544 725 475 q 605 649 667 613 q 456 685 543 685 q 279 634 357 685 q 157 496 201 583 q 113 296 113 408 q 184 104 113 171 q 394 38 256 38 q 542 65 475 38 q 650 140 608 92 l 675 108 q 647 82 663 94 q 615 58 632 69 q 444 -79 494 -19 q 394 -193 394 -139 q 414 -245 394 -226 q 469 -264 433 -264 q 519 -255 494 -264 q 564 -231 543 -246 l 575 -261 q 523 -289 551 -279 q 464 -299 494 -299 z "},"Ě":{"ha":928,"x_min":106,"x_max":936,"o":"m 247 515 l 783 515 l 775 472 l 239 472 l 247 515 m 161 43 l 772 43 l 763 0 l 106 0 l 300 972 l 936 972 l 928 929 l 338 929 l 161 43 z "},"ě":{"ha":824,"x_min":67,"x_max":754,"o":"m 389 -4 q 216 31 289 -4 q 105 133 143 67 q 67 294 67 200 q 117 515 67 418 q 256 669 168 613 q 456 726 344 726 q 615 691 549 726 q 718 589 682 656 q 754 429 754 522 q 752 390 754 410 q 747 354 750 371 l 101 354 l 110 393 l 726 393 l 707 374 q 694 544 724 475 q 603 649 665 613 q 454 685 540 685 q 278 634 356 685 q 156 496 200 583 q 111 296 111 408 q 183 104 111 171 q 393 38 256 38 q 539 65 472 38 q 649 140 606 92 l 671 108 q 551 26 626 57 q 389 -4 476 -4 m 482 843 l 328 1000 l 376 1000 l 526 864 l 500 864 l 676 1000 l 731 1000 l 540 843 l 482 843 z "},"Ĝ":{"ha":1075,"x_min":96,"x_max":1024,"o":"m 538 -6 q 297 44 396 -6 q 147 184 199 94 q 96 390 96 274 q 136 614 96 508 q 252 801 176 719 q 437 931 328 883 q 683 978 546 978 q 885 944 797 978 q 1024 850 974 910 l 990 819 q 863 906 940 876 q 679 935 785 935 q 458 892 557 935 q 288 774 358 849 q 181 601 218 699 q 143 392 143 503 q 188 208 143 288 q 322 83 233 128 q 543 38 411 38 q 716 69 639 38 q 857 156 793 100 l 878 119 q 726 28 814 63 q 538 -6 639 -6 m 833 122 l 904 479 l 949 479 l 878 119 l 833 122 z "},"ĝ":{"ha":943,"x_min":25,"x_max":863,"o":"m 331 -274 q 153 -243 232 -274 q 25 -157 74 -212 l 58 -124 q 173 -204 101 -176 q 333 -232 244 -232 q 571 -161 485 -232 q 686 63 657 -90 l 731 283 l 763 376 l 768 471 l 818 721 l 863 721 l 733 69 q 600 -192 697 -111 q 331 -274 503 -274 m 382 25 q 215 59 285 25 q 106 157 144 93 q 68 308 68 221 q 99 474 68 399 q 184 607 129 550 q 314 695 239 664 q 479 726 389 726 q 640 694 572 726 q 746 599 708 661 q 783 446 783 536 q 733 233 783 328 q 592 81 682 138 q 382 25 501 25 m 388 67 q 574 115 493 67 q 703 248 656 164 q 750 439 750 332 q 678 619 750 556 q 476 683 607 683 q 291 635 372 683 q 162 503 210 588 q 114 311 114 419 q 186 131 114 194 q 388 67 258 67 m 335 843 l 525 1000 l 583 1000 l 738 843 l 689 843 l 539 979 l 565 979 l 389 843 l 335 843 z "},"Ğ":{"ha":1075,"x_min":96,"x_max":1024,"o":"m 538 -6 q 297 44 396 -6 q 147 184 199 94 q 96 390 96 274 q 136 614 96 508 q 252 801 176 719 q 437 931 328 883 q 683 978 546 978 q 885 944 797 978 q 1024 850 974 910 l 990 819 q 863 906 940 876 q 679 935 785 935 q 458 892 557 935 q 288 774 358 849 q 181 601 218 699 q 143 392 143 503 q 188 208 143 288 q 322 83 233 128 q 543 38 411 38 q 716 69 639 38 q 857 156 793 100 l 878 119 q 726 28 814 63 q 538 -6 639 -6 m 833 122 l 904 479 l 949 479 l 878 119 l 833 122 z "},"ğ":{"ha":943,"x_min":25,"x_max":863,"o":"m 331 -274 q 153 -243 232 -274 q 25 -157 74 -212 l 58 -124 q 173 -204 101 -176 q 333 -232 244 -232 q 571 -161 485 -232 q 686 63 657 -90 l 731 283 l 763 376 l 768 471 l 818 721 l 863 721 l 733 69 q 600 -192 697 -111 q 331 -274 503 -274 m 382 25 q 215 59 285 25 q 106 157 144 93 q 68 308 68 221 q 99 474 68 399 q 184 607 129 550 q 314 695 239 664 q 479 726 389 726 q 640 694 572 726 q 746 599 708 661 q 783 446 783 536 q 733 233 783 328 q 592 81 682 138 q 382 25 501 25 m 388 67 q 574 115 493 67 q 703 248 656 164 q 750 439 750 332 q 678 619 750 556 q 476 683 607 683 q 291 635 372 683 q 162 503 210 588 q 114 311 114 419 q 186 131 114 194 q 388 67 258 67 m 551 839 q 458 858 499 839 q 394 915 417 878 q 375 1000 371 951 l 413 1000 q 449 908 408 942 q 553 874 489 874 q 663 908 615 874 q 719 1000 711 942 l 757 1000 q 688 883 746 926 q 551 839 629 839 z "},"Ġ":{"ha":1075,"x_min":96,"x_max":1024,"o":"m 538 -6 q 297 44 396 -6 q 147 184 199 94 q 96 390 96 274 q 136 614 96 508 q 252 801 176 719 q 437 931 328 883 q 683 978 546 978 q 885 944 797 978 q 1024 850 974 910 l 990 819 q 863 906 940 876 q 679 935 785 935 q 458 892 557 935 q 288 774 358 849 q 181 601 218 699 q 143 392 143 503 q 188 208 143 288 q 322 83 233 128 q 543 38 411 38 q 716 69 639 38 q 857 156 793 100 l 878 119 q 726 28 814 63 q 538 -6 639 -6 m 833 122 l 904 479 l 949 479 l 878 119 l 833 122 z "},"ġ":{"ha":943,"x_min":25,"x_max":863,"o":"m 331 -274 q 153 -243 232 -274 q 25 -157 74 -212 l 58 -124 q 173 -204 101 -176 q 333 -232 244 -232 q 571 -161 485 -232 q 686 63 657 -90 l 731 283 l 763 376 l 768 471 l 818 721 l 863 721 l 733 69 q 600 -192 697 -111 q 331 -274 503 -274 m 382 25 q 215 59 285 25 q 106 157 144 93 q 68 308 68 221 q 99 474 68 399 q 184 607 129 550 q 314 695 239 664 q 479 726 389 726 q 640 694 572 726 q 746 599 708 661 q 783 446 783 536 q 733 233 783 328 q 592 81 682 138 q 382 25 501 25 m 388 67 q 574 115 493 67 q 703 248 656 164 q 750 439 750 332 q 678 619 750 556 q 476 683 607 683 q 291 635 372 683 q 162 503 210 588 q 114 311 114 419 q 186 131 114 194 q 388 67 258 67 m 551 886 q 522 898 535 886 q 510 926 510 910 q 523 960 510 946 q 556 975 536 975 q 585 963 572 975 q 597 935 597 951 q 584 901 597 915 q 551 886 571 886 z "},"Ģ":{"ha":1075,"x_min":96,"x_max":1024,"o":"m 538 -6 q 297 44 396 -6 q 147 184 199 94 q 96 390 96 274 q 136 614 96 508 q 252 801 176 719 q 437 931 328 883 q 683 978 546 978 q 885 944 797 978 q 1024 850 974 910 l 990 819 q 863 906 940 876 q 679 935 785 935 q 458 892 557 935 q 288 774 358 849 q 181 601 218 699 q 143 392 143 503 q 188 208 143 288 q 322 83 233 128 q 543 38 411 38 q 716 69 639 38 q 857 156 793 100 l 878 119 q 726 28 814 63 q 538 -6 639 -6 m 833 122 l 904 479 l 949 479 l 878 119 l 833 122 m 382 -361 l 442 -225 l 444 -247 q 415 -235 426 -247 q 403 -207 403 -222 q 415 -177 403 -189 q 444 -165 426 -165 q 475 -176 464 -165 q 486 -206 486 -187 q 483 -227 486 -217 q 471 -251 481 -237 l 414 -361 l 382 -361 z "},"ģ":{"ha":943,"x_min":25,"x_max":863,"o":"m 331 -274 q 153 -243 232 -274 q 25 -157 74 -212 l 58 -124 q 173 -204 101 -176 q 333 -232 244 -232 q 571 -161 485 -232 q 686 63 657 -90 l 731 283 l 763 376 l 768 471 l 818 721 l 863 721 l 733 69 q 600 -192 697 -111 q 331 -274 503 -274 m 382 25 q 215 59 285 25 q 106 157 144 93 q 68 308 68 221 q 99 474 68 399 q 184 607 129 550 q 314 695 239 664 q 479 726 389 726 q 640 694 572 726 q 746 599 708 661 q 783 446 783 536 q 733 233 783 328 q 592 81 682 138 q 382 25 501 25 m 388 67 q 574 115 493 67 q 703 248 656 164 q 750 439 750 332 q 678 619 750 556 q 476 683 607 683 q 291 635 372 683 q 162 503 210 588 q 114 311 114 419 q 186 131 114 194 q 388 67 258 67 m 546 839 q 513 851 525 839 q 501 878 501 863 q 506 901 501 890 q 518 925 510 911 l 588 1061 l 621 1061 l 549 899 l 546 919 q 576 908 564 919 q 588 881 588 897 q 576 851 588 864 q 546 839 565 839 z "},"Ĥ":{"ha":1132,"x_min":106,"x_max":1076,"o":"m 1029 972 l 1076 972 l 882 0 l 835 0 l 1029 972 m 153 0 l 106 0 l 300 972 l 347 972 l 153 0 m 938 472 l 239 472 l 247 515 l 946 515 l 938 472 z "},"ĥ":{"ha":931,"x_min":82,"x_max":815,"o":"m 551 726 q 711 688 650 726 q 794 581 772 649 q 797 422 815 513 l 713 0 l 667 0 l 751 422 q 723 613 775 543 q 542 683 671 683 q 323 611 411 683 q 207 397 235 539 l 128 0 l 82 0 l 288 1031 l 333 1031 l 229 513 l 213 517 q 351 676 264 626 q 551 726 439 726 z "},"Ħ":{"ha":1136,"x_min":99,"x_max":1193,"o":"m 1031 972 l 1078 972 l 883 0 l 836 0 l 1031 972 m 154 0 l 107 0 l 301 972 l 349 972 l 154 0 m 939 472 l 240 472 l 249 515 l 947 515 l 939 472 m 99 731 l 107 771 l 1193 771 l 1185 731 l 99 731 z "},"ħ":{"ha":931,"x_min":82,"x_max":815,"o":"m 551 726 q 711 688 650 726 q 794 581 772 649 q 797 422 815 513 l 713 0 l 667 0 l 751 422 q 723 613 775 543 q 542 683 671 683 q 323 611 411 683 q 207 397 235 539 l 128 0 l 82 0 l 288 1031 l 333 1031 l 229 513 l 213 517 q 351 676 264 626 q 551 726 439 726 m 99 857 l 107 896 l 636 896 l 629 857 l 99 857 z "},"Ĩ":{"ha":403,"x_min":106,"x_max":561,"o":"m 106 0 l 300 972 l 347 972 l 153 0 l 106 0 z "},"ĩ":{"ha":354,"x_min":82,"x_max":461,"o":"m 82 0 l 225 721 l 271 721 l 128 0 l 82 0 m 358 857 q 312 872 331 857 q 278 905 293 886 q 249 938 264 924 q 217 953 235 953 q 172 928 190 953 q 150 861 154 904 l 115 861 q 149 954 122 919 q 218 989 176 989 q 266 974 247 989 q 299 941 285 960 q 326 908 313 922 q 360 893 340 893 q 404 918 386 893 q 426 982 422 943 l 461 982 q 428 892 454 926 q 358 857 401 857 z "},"Ī":{"ha":403,"x_min":106,"x_max":518,"o":"m 106 0 l 300 972 l 347 972 l 153 0 l 106 0 z "},"ī":{"ha":354,"x_min":82,"x_max":451,"o":"m 82 0 l 225 721 l 271 721 l 128 0 l 82 0 m 126 903 l 133 940 l 451 940 l 444 903 l 126 903 z "},"Ĭ":{"ha":403,"x_min":106,"x_max":560,"o":"m 106 0 l 300 972 l 347 972 l 153 0 l 106 0 z "},"ĭ":{"ha":354,"x_min":82,"x_max":460,"o":"m 82 0 l 225 721 l 271 721 l 128 0 l 82 0 m 289 839 q 208 858 242 839 q 158 915 174 878 q 147 1000 142 951 l 182 1000 q 205 907 176 940 q 289 874 233 874 q 421 1000 406 874 l 460 1000 q 406 881 450 922 q 289 839 361 839 z "},"Į":{"ha":403,"x_min":-4,"x_max":347,"o":"m 106 0 l 300 972 l 347 972 l 153 0 l 106 0 m 82 -299 q 19 -274 43 -299 q -4 -207 -4 -249 q 37 -83 -4 -143 q 136 24 78 -22 l 153 0 q 67 -102 97 -50 q 36 -204 36 -154 q 51 -249 36 -235 q 89 -264 67 -264 q 120 -257 107 -264 q 146 -239 133 -250 l 158 -267 q 125 -290 144 -281 q 82 -299 106 -299 z "},"į":{"ha":354,"x_min":-29,"x_max":340,"o":"m 82 0 l 225 721 l 271 721 l 128 0 l 82 0 m 292 910 q 261 922 274 910 q 249 951 249 935 q 263 985 249 971 q 297 1000 278 1000 q 328 988 315 1000 q 340 958 340 975 q 326 924 340 939 q 292 910 311 910 m 57 -299 q -6 -274 18 -299 q -29 -207 -29 -249 q 12 -83 -29 -143 q 111 24 53 -22 l 128 0 q 42 -102 72 -50 q 11 -204 11 -154 q 26 -249 11 -235 q 64 -264 42 -264 q 95 -257 82 -264 q 121 -239 108 -250 l 133 -267 q 100 -290 119 -281 q 57 -299 81 -299 z "},"İ":{"ha":403,"x_min":106,"x_max":400,"o":"m 106 0 l 300 972 l 347 972 l 153 0 l 106 0 z "},"ı":{"ha":354,"x_min":82,"x_max":271,"o":"m 82 0 l 225 721 l 271 721 l 128 0 l 82 0 z "},"Ĳ":{"ha":993,"x_min":104,"x_max":944,"o":"m 403 -6 q 233 20 308 -6 q 104 85 157 46 l 132 124 q 253 61 185 85 q 404 38 322 38 q 655 128 561 38 q 786 410 749 218 l 899 972 l 944 972 l 832 404 q 685 95 790 196 q 403 -6 579 -6 m 179 407 l 292 972 l 339 972 l 225 407 l 179 407 z "},"ĳ":{"ha":715,"x_min":82,"x_max":701,"o":"m 82 0 l 225 721 l 271 721 l 128 0 l 82 0 m 292 910 q 261 922 274 910 q 249 951 249 935 q 263 985 249 971 q 297 1000 278 1000 q 328 988 315 1000 q 340 958 340 975 q 326 924 340 939 q 292 910 311 910 m 260 -274 q 180 -261 217 -274 q 118 -225 143 -249 l 144 -190 q 263 -233 192 -233 q 369 -197 329 -233 q 426 -78 410 -160 l 586 721 l 632 721 l 471 -85 q 260 -274 435 -274 m 653 910 q 622 922 635 910 q 610 951 610 935 q 624 985 610 971 q 658 1000 639 1000 q 689 988 676 1000 q 701 958 701 975 q 687 924 701 939 q 653 910 672 910 z "},"Ĵ":{"ha":671,"x_min":-44,"x_max":636,"o":"m 196 -6 q 47 33 111 -6 q -44 133 -17 71 l -7 160 q 72 71 19 104 q 200 38 125 38 q 353 91 294 38 q 438 276 411 144 l 568 929 l 207 929 l 215 972 l 624 972 l 483 271 q 425 110 463 171 q 331 22 388 49 q 196 -6 274 -6 z "},"ĵ":{"ha":361,"x_min":-236,"x_max":446,"o":"m -94 -274 q -174 -261 -137 -274 q -236 -225 -211 -249 l -210 -190 q -92 -233 -162 -233 q 15 -197 -25 -233 q 72 -78 56 -160 l 232 721 l 278 721 l 117 -85 q -94 -274 81 -274 m 113 843 l 269 1000 l 325 1000 l 446 843 l 397 843 l 285 979 l 306 979 l 165 843 l 113 843 z "},"Ķ":{"ha":968,"x_min":106,"x_max":1043,"o":"m 196 250 l 207 315 l 978 972 l 1043 972 l 514 522 l 490 501 l 196 250 m 106 0 l 300 972 l 347 972 l 153 0 l 106 0 m 824 0 l 469 514 l 506 540 l 878 0 l 824 0 m 339 -361 l 399 -225 l 401 -247 q 372 -235 383 -247 q 360 -207 360 -222 q 372 -177 360 -189 q 401 -165 383 -165 q 432 -176 421 -165 q 443 -206 443 -187 q 440 -227 443 -217 q 428 -251 438 -237 l 371 -361 l 339 -361 z "},"ķ":{"ha":785,"x_min":82,"x_max":822,"o":"m 158 208 l 165 265 l 754 721 l 822 721 l 443 428 l 415 406 l 158 208 m 82 0 l 288 1031 l 333 1031 l 128 0 l 82 0 m 654 0 l 406 411 l 440 443 l 708 0 l 654 0 m 251 -361 l 311 -225 l 314 -247 q 284 -235 296 -247 q 272 -207 272 -222 q 284 -177 272 -189 q 314 -165 296 -165 q 344 -176 333 -165 q 356 -206 356 -187 q 353 -227 356 -217 q 340 -251 350 -237 l 283 -361 l 251 -361 z "},"ĸ":{"ha":785,"x_min":82,"x_max":822,"o":"m 158 208 l 165 265 l 754 721 l 822 721 l 443 428 l 415 406 l 158 208 m 82 0 l 225 721 l 271 721 l 128 0 l 82 0 m 654 0 l 406 411 l 440 443 l 708 0 l 654 0 z "},"Ĺ":{"ha":808,"x_min":106,"x_max":732,"o":"m 106 0 l 300 972 l 347 972 l 161 43 l 732 43 l 722 0 l 106 0 z "},"ĺ":{"ha":354,"x_min":82,"x_max":543,"o":"m 82 0 l 288 1031 l 333 1031 l 128 0 l 82 0 z "},"Ļ":{"ha":808,"x_min":106,"x_max":732,"o":"m 106 0 l 300 972 l 347 972 l 161 43 l 732 43 l 722 0 l 106 0 m 325 -361 l 385 -225 l 388 -247 q 358 -235 369 -247 q 346 -207 346 -222 q 358 -177 346 -189 q 388 -165 369 -165 q 418 -176 407 -165 q 429 -206 429 -187 q 426 -227 429 -217 q 414 -251 424 -237 l 357 -361 l 325 -361 z "},"ļ":{"ha":354,"x_min":0,"x_max":333,"o":"m 82 0 l 288 1031 l 333 1031 l 128 0 l 82 0 m 0 -361 l 60 -225 l 63 -247 q 33 -235 44 -247 q 21 -207 21 -222 q 33 -177 21 -189 q 63 -165 44 -165 q 93 -176 82 -165 q 104 -206 104 -187 q 101 -227 104 -217 q 89 -251 99 -237 l 32 -361 l 0 -361 z "},"Ľ":{"ha":808,"x_min":106,"x_max":788,"o":"m 106 0 l 300 972 l 347 972 l 161 43 l 732 43 l 722 0 l 106 0 m 696 750 l 746 1003 l 788 1003 l 732 750 l 696 750 z "},"ľ":{"ha":354,"x_min":82,"x_max":517,"o":"m 82 0 l 288 1031 l 333 1031 l 128 0 l 82 0 m 425 808 l 475 1061 l 517 1061 l 461 808 l 425 808 z "},"Ŀ":{"ha":808,"x_min":106,"x_max":732,"o":"m 106 0 l 300 972 l 347 972 l 161 43 l 732 43 l 722 0 l 106 0 m 633 464 q 603 477 617 464 q 590 507 590 490 q 604 540 590 526 q 635 553 618 553 q 667 540 654 553 q 679 510 679 528 q 666 477 679 490 q 633 464 653 464 z "},"ŀ":{"ha":369,"x_min":82,"x_max":431,"o":"m 82 0 l 288 1031 l 333 1031 l 128 0 l 82 0 m 388 444 q 358 457 371 444 q 344 486 344 469 q 358 518 344 506 q 388 531 371 531 q 418 519 406 531 q 431 489 431 507 q 418 458 431 471 q 388 444 406 444 z "},"Ł":{"ha":811,"x_min":58,"x_max":733,"o":"m 107 0 l 301 972 l 349 972 l 163 43 l 733 43 l 724 0 l 107 0 m 79 382 l 58 413 l 465 676 l 485 644 l 79 382 z "},"ł":{"ha":358,"x_min":32,"x_max":376,"o":"m 83 0 l 289 1031 l 335 1031 l 129 0 l 83 0 m 50 368 l 32 397 l 358 610 l 376 579 l 50 368 z "},"Ń":{"ha":1132,"x_min":106,"x_max":1076,"o":"m 106 0 l 300 972 l 339 972 l 864 54 l 847 58 l 1029 972 l 1076 972 l 882 0 l 843 0 l 318 918 l 335 914 l 153 0 l 106 0 z "},"ń":{"ha":931,"x_min":82,"x_max":815,"o":"m 551 726 q 711 688 650 726 q 794 581 772 649 q 797 422 815 513 l 713 0 l 667 0 l 751 422 q 723 613 775 543 q 542 683 671 683 q 323 611 411 683 q 207 397 235 539 l 128 0 l 82 0 l 225 721 l 271 721 l 229 513 l 213 517 q 351 676 264 626 q 551 726 439 726 m 492 843 l 701 1000 l 781 1000 l 550 843 l 492 843 z "},"Ņ":{"ha":1132,"x_min":106,"x_max":1076,"o":"m 106 0 l 300 972 l 339 972 l 864 54 l 847 58 l 1029 972 l 1076 972 l 882 0 l 843 0 l 318 918 l 335 914 l 153 0 l 106 0 m 390 -361 l 450 -225 l 453 -247 q 423 -235 435 -247 q 411 -207 411 -222 q 423 -177 411 -189 q 453 -165 435 -165 q 483 -176 472 -165 q 494 -206 494 -187 q 492 -227 494 -217 q 479 -251 489 -237 l 422 -361 l 390 -361 z "},"ņ":{"ha":931,"x_min":82,"x_max":815,"o":"m 551 726 q 711 688 650 726 q 794 581 772 649 q 797 422 815 513 l 713 0 l 667 0 l 751 422 q 723 613 775 543 q 542 683 671 683 q 323 611 411 683 q 207 397 235 539 l 128 0 l 82 0 l 225 721 l 271 721 l 229 513 l 213 517 q 351 676 264 626 q 551 726 439 726 m 290 -361 l 350 -225 l 353 -247 q 323 -235 335 -247 q 311 -207 311 -222 q 323 -177 311 -189 q 353 -165 335 -165 q 383 -176 372 -165 q 394 -206 394 -187 q 392 -227 394 -217 q 379 -251 389 -237 l 322 -361 l 290 -361 z "},"Ň":{"ha":1132,"x_min":106,"x_max":1076,"o":"m 106 0 l 300 972 l 339 972 l 864 54 l 847 58 l 1029 972 l 1076 972 l 882 0 l 843 0 l 318 918 l 335 914 l 153 0 l 106 0 z "},"ň":{"ha":931,"x_min":82,"x_max":815,"o":"m 551 726 q 711 688 650 726 q 794 581 772 649 q 797 422 815 513 l 713 0 l 667 0 l 751 422 q 723 613 775 543 q 542 683 671 683 q 323 611 411 683 q 207 397 235 539 l 128 0 l 82 0 l 225 721 l 271 721 l 229 513 l 213 517 q 351 676 264 626 q 551 726 439 726 m 546 843 l 392 1000 l 440 1000 l 590 864 l 564 864 l 740 1000 l 794 1000 l 604 843 l 546 843 z "},"ŉ":{"ha":943,"x_min":57,"x_max":828,"o":"m 564 726 q 724 688 663 726 q 806 581 785 649 q 810 422 828 513 l 725 0 l 679 0 l 764 422 q 735 613 788 543 q 554 683 683 683 q 335 611 424 683 q 219 397 247 539 l 140 0 l 94 0 l 238 721 l 283 721 l 242 513 l 225 517 q 364 676 276 626 q 564 726 451 726 z "},"Ŋ":{"ha":1132,"x_min":106,"x_max":1076,"o":"m 106 0 l 300 972 l 339 972 l 864 56 l 843 1 l 318 918 l 335 915 l 153 0 l 106 0 m 596 -274 q 451 -237 514 -274 q 360 -140 388 -200 l 394 -112 q 474 -199 421 -167 q 600 -232 526 -232 q 751 -178 693 -232 q 836 7 810 -125 l 1029 972 l 1076 972 l 882 4 q 824 -159 863 -97 q 728 -247 785 -221 q 596 -274 672 -274 z "},"ŋ":{"ha":931,"x_min":82,"x_max":815,"o":"m 483 -274 q 403 -261 440 -274 q 342 -225 367 -249 l 369 -190 q 486 -233 415 -233 q 594 -197 553 -233 q 650 -79 635 -161 l 751 422 q 723 613 775 543 q 542 683 671 683 q 323 611 411 683 q 207 397 235 539 l 128 0 l 82 0 l 225 721 l 271 721 l 229 513 l 213 517 q 351 676 264 626 q 551 726 439 726 q 711 688 650 726 q 794 581 772 649 q 797 422 815 513 l 696 -85 q 483 -274 658 -274 z "},"Ō":{"ha":1163,"x_min":96,"x_max":1117,"o":"m 538 -6 q 297 44 394 -6 q 147 184 199 94 q 96 390 96 274 q 136 614 96 508 q 251 801 176 719 q 434 931 326 883 q 676 978 542 978 q 917 928 818 978 q 1066 789 1015 878 q 1117 582 1117 700 q 1077 358 1117 464 q 962 171 1038 253 q 779 42 886 89 q 538 -6 672 -6 m 542 38 q 760 81 663 38 q 926 199 857 124 q 1032 372 994 274 q 1069 581 1069 471 q 1025 765 1069 686 q 892 890 981 844 q 672 935 803 935 q 453 892 551 935 q 287 774 356 849 q 181 600 218 699 q 143 392 143 501 q 188 208 143 288 q 322 83 233 128 q 542 38 410 38 z "},"ō":{"ha":853,"x_min":65,"x_max":788,"o":"m 378 -4 q 213 32 283 -4 q 103 135 142 68 q 65 292 65 201 q 118 515 65 417 q 263 669 171 613 q 475 726 356 726 q 642 690 572 726 q 749 588 711 654 q 788 429 788 521 q 735 207 788 306 q 590 52 682 108 q 378 -4 497 -4 m 383 38 q 568 88 488 38 q 695 227 649 139 q 742 428 742 315 q 670 617 742 550 q 471 683 599 683 q 287 633 368 683 q 158 494 206 582 q 111 293 111 406 q 183 105 111 172 q 383 38 254 38 m 339 903 l 346 940 l 736 940 l 729 903 l 339 903 z "},"Ŏ":{"ha":1163,"x_min":96,"x_max":1117,"o":"m 538 -6 q 297 44 394 -6 q 147 184 199 94 q 96 390 96 274 q 136 614 96 508 q 251 801 176 719 q 434 931 326 883 q 676 978 542 978 q 917 928 818 978 q 1066 789 1015 878 q 1117 582 1117 700 q 1077 358 1117 464 q 962 171 1038 253 q 779 42 886 89 q 538 -6 672 -6 m 542 38 q 760 81 663 38 q 926 199 857 124 q 1032 372 994 274 q 1069 581 1069 471 q 1025 765 1069 686 q 892 890 981 844 q 672 935 803 935 q 453 892 551 935 q 287 774 356 849 q 181 600 218 699 q 143 392 143 501 q 188 208 143 288 q 322 83 233 128 q 542 38 410 38 z "},"ŏ":{"ha":853,"x_min":65,"x_max":788,"o":"m 378 -4 q 213 32 283 -4 q 103 135 142 68 q 65 292 65 201 q 118 515 65 417 q 263 669 171 613 q 475 726 356 726 q 642 690 572 726 q 749 588 711 654 q 788 429 788 521 q 735 207 788 306 q 590 52 682 108 q 378 -4 497 -4 m 383 38 q 568 88 488 38 q 695 227 649 139 q 742 428 742 315 q 670 617 742 550 q 471 683 599 683 q 287 633 368 683 q 158 494 206 582 q 111 293 111 406 q 183 105 111 172 q 383 38 254 38 m 538 839 q 444 858 485 839 q 380 915 403 878 q 361 1000 357 951 l 399 1000 q 435 908 394 942 q 539 874 475 874 q 649 908 601 874 q 706 1000 697 942 l 743 1000 q 674 883 732 926 q 538 839 615 839 z "},"Ő":{"ha":1163,"x_min":96,"x_max":1117,"o":"m 538 -6 q 297 44 394 -6 q 147 184 199 94 q 96 390 96 274 q 136 614 96 508 q 251 801 176 719 q 434 931 326 883 q 676 978 542 978 q 917 928 818 978 q 1066 789 1015 878 q 1117 582 1117 700 q 1077 358 1117 464 q 962 171 1038 253 q 779 42 886 89 q 538 -6 672 -6 m 542 38 q 760 81 663 38 q 926 199 857 124 q 1032 372 994 274 q 1069 581 1069 471 q 1025 765 1069 686 q 892 890 981 844 q 672 935 803 935 q 453 892 551 935 q 287 774 356 849 q 181 600 218 699 q 143 392 143 501 q 188 208 143 288 q 322 83 233 128 q 542 38 410 38 z "},"ő":{"ha":853,"x_min":65,"x_max":829,"o":"m 378 -4 q 213 32 283 -4 q 103 135 142 68 q 65 292 65 201 q 118 515 65 417 q 263 669 171 613 q 475 726 356 726 q 642 690 572 726 q 749 588 711 654 q 788 429 788 521 q 735 207 788 306 q 590 52 682 108 q 378 -4 497 -4 m 383 38 q 568 88 488 38 q 695 227 649 139 q 742 428 742 315 q 670 617 742 550 q 471 683 599 683 q 287 633 368 683 q 158 494 206 582 q 111 293 111 406 q 183 105 111 172 q 383 38 254 38 m 596 843 l 763 1000 l 829 1000 l 650 843 l 596 843 m 394 843 l 561 1000 l 628 1000 l 449 843 l 394 843 z "},"Œ":{"ha":1547,"x_min":96,"x_max":1556,"o":"m 544 0 q 299 49 400 0 q 147 186 199 97 q 96 390 96 275 q 138 624 96 517 q 260 808 181 731 q 451 929 339 886 q 701 972 563 972 l 932 972 l 924 929 l 699 929 q 404 860 529 929 q 211 670 279 792 q 143 392 143 549 q 188 209 143 288 q 324 87 233 131 q 550 43 414 43 l 746 43 l 738 0 l 544 0 m 725 0 l 919 972 l 1556 972 l 1547 929 l 957 929 l 781 43 l 1392 43 l 1382 0 l 725 0 m 858 472 l 867 515 l 1403 515 l 1394 472 l 858 472 z "},"œ":{"ha":1490,"x_min":65,"x_max":1421,"o":"m 376 -4 q 212 32 282 -4 q 103 135 142 68 q 65 292 65 201 q 118 515 65 417 q 263 669 171 613 q 474 726 354 726 q 638 690 569 726 q 744 588 707 654 q 782 429 782 521 q 730 207 782 306 q 586 52 678 108 q 376 -4 494 -4 m 383 38 q 568 88 488 38 q 695 227 649 139 q 742 428 742 315 q 670 617 742 550 q 471 683 599 683 q 287 633 368 683 q 158 494 206 582 q 111 293 111 406 q 183 105 111 172 q 383 38 254 38 m 1056 -4 q 883 31 956 -4 q 773 133 811 67 q 735 294 735 200 q 785 515 735 418 q 924 669 836 613 q 1122 726 1011 726 q 1282 691 1215 726 q 1385 589 1349 656 q 1421 429 1421 522 q 1419 390 1421 410 q 1414 354 1417 371 l 768 354 l 775 393 l 1393 393 l 1374 374 q 1360 544 1390 475 q 1269 649 1331 613 q 1121 685 1207 685 q 944 634 1022 685 q 822 496 867 583 q 776 296 776 408 q 849 104 776 171 q 1060 38 921 38 q 1206 65 1139 38 q 1315 140 1272 92 l 1338 108 q 1218 26 1293 57 q 1056 -4 1143 -4 z "},"Ŕ":{"ha":997,"x_min":106,"x_max":964,"o":"m 106 0 l 300 972 l 633 972 q 877 903 790 972 q 964 710 964 835 q 910 499 964 585 q 756 371 856 414 q 521 328 657 328 l 197 328 l 222 349 l 153 0 l 106 0 m 792 0 l 592 353 l 644 353 l 843 0 l 792 0 m 222 349 l 206 369 l 519 369 q 813 454 708 369 q 917 707 917 539 q 843 872 917 814 q 632 929 769 929 l 318 929 l 343 951 l 222 349 z "},"ŕ":{"ha":539,"x_min":82,"x_max":631,"o":"m 82 0 l 225 721 l 271 721 l 226 500 l 218 515 q 345 672 264 617 q 551 726 426 726 l 543 681 q 535 681 539 681 q 526 681 531 681 q 316 603 399 681 q 203 374 233 526 l 128 0 l 82 0 m 342 843 l 551 1000 l 631 1000 l 400 843 l 342 843 z "},"Ŗ":{"ha":997,"x_min":106,"x_max":964,"o":"m 106 0 l 300 972 l 633 972 q 877 903 790 972 q 964 710 964 835 q 910 499 964 585 q 756 371 856 414 q 521 328 657 328 l 197 328 l 222 349 l 153 0 l 106 0 m 792 0 l 592 353 l 644 353 l 843 0 l 792 0 m 222 349 l 206 369 l 519 369 q 813 454 708 369 q 917 707 917 539 q 843 872 917 814 q 632 929 769 929 l 318 929 l 343 951 l 222 349 m 333 -361 l 393 -225 l 396 -247 q 366 -235 378 -247 q 354 -207 354 -222 q 366 -177 354 -189 q 396 -165 378 -165 q 426 -176 415 -165 q 438 -206 438 -187 q 435 -227 438 -217 q 422 -251 432 -237 l 365 -361 l 333 -361 z "},"ŗ":{"ha":539,"x_min":0,"x_max":551,"o":"m 82 0 l 225 721 l 271 721 l 226 500 l 218 515 q 345 672 264 617 q 551 726 426 726 l 543 681 q 535 681 539 681 q 526 681 531 681 q 316 603 399 681 q 203 374 233 526 l 128 0 l 82 0 m 0 -361 l 60 -225 l 63 -247 q 33 -235 44 -247 q 21 -207 21 -222 q 33 -177 21 -189 q 63 -165 44 -165 q 93 -176 82 -165 q 104 -206 104 -187 q 101 -227 104 -217 q 89 -251 99 -237 l 32 -361 l 0 -361 z "},"Ř":{"ha":997,"x_min":106,"x_max":964,"o":"m 106 0 l 300 972 l 633 972 q 877 903 790 972 q 964 710 964 835 q 910 499 964 585 q 756 371 856 414 q 521 328 657 328 l 197 328 l 222 349 l 153 0 l 106 0 m 792 0 l 592 353 l 644 353 l 843 0 l 792 0 m 222 349 l 206 369 l 519 369 q 813 454 708 369 q 917 707 917 539 q 843 872 917 814 q 632 929 769 929 l 318 929 l 343 951 l 222 349 z "},"ř":{"ha":539,"x_min":82,"x_max":644,"o":"m 82 0 l 225 721 l 271 721 l 226 500 l 218 515 q 345 672 264 617 q 551 726 426 726 l 543 681 q 535 681 539 681 q 526 681 531 681 q 316 603 399 681 q 203 374 233 526 l 128 0 l 82 0 m 396 843 l 242 1000 l 290 1000 l 440 864 l 414 864 l 590 1000 l 644 1000 l 454 843 l 396 843 z "},"Ś":{"ha":839,"x_min":32,"x_max":828,"o":"m 367 -6 q 231 13 297 -6 q 112 60 164 31 q 32 128 60 90 l 60 161 q 138 98 89 126 q 247 53 186 69 q 369 36 307 36 q 539 63 465 36 q 653 143 613 90 q 694 269 694 196 q 666 359 694 325 q 592 415 638 393 q 490 451 546 436 q 380 483 435 465 q 279 526 325 501 q 205 592 233 551 q 176 696 176 632 q 224 849 176 786 q 355 945 272 913 q 542 978 438 978 q 699 956 622 978 q 828 892 775 933 l 803 853 q 684 915 751 893 q 540 936 617 936 q 375 908 447 936 q 263 828 303 881 q 221 700 222 775 q 249 611 221 646 q 324 554 278 576 q 426 516 369 532 q 537 483 482 500 q 638 441 592 467 q 713 376 685 415 q 740 275 740 338 q 691 120 740 182 q 557 26 642 58 q 367 -6 472 -6 z "},"ś":{"ha":653,"x_min":-7,"x_max":640,"o":"m 267 -4 q 108 22 183 -4 q -7 89 33 49 l 21 125 q 129 60 63 85 q 269 36 196 36 q 456 81 389 36 q 522 203 522 125 q 492 279 522 253 q 414 319 463 306 q 311 342 365 332 q 208 369 257 353 q 130 419 160 386 q 100 514 100 453 q 136 626 100 578 q 238 700 172 674 q 392 726 304 726 q 522 707 458 726 q 624 653 586 688 l 599 618 q 503 668 558 651 q 388 685 447 685 q 211 639 276 685 q 146 517 146 593 q 176 440 146 467 q 254 399 206 413 q 357 376 303 386 q 460 349 411 365 q 538 299 508 332 q 568 207 568 267 q 531 93 568 140 q 426 21 494 46 q 267 -4 358 -4 m 351 843 l 561 1000 l 640 1000 l 410 843 l 351 843 z "},"Ŝ":{"ha":839,"x_min":32,"x_max":828,"o":"m 367 -6 q 231 13 297 -6 q 112 60 164 31 q 32 128 60 90 l 60 161 q 138 98 89 126 q 247 53 186 69 q 369 36 307 36 q 539 63 465 36 q 653 143 613 90 q 694 269 694 196 q 666 359 694 325 q 592 415 638 393 q 490 451 546 436 q 380 483 435 465 q 279 526 325 501 q 205 592 233 551 q 176 696 176 632 q 224 849 176 786 q 355 945 272 913 q 542 978 438 978 q 699 956 622 978 q 828 892 775 933 l 803 853 q 684 915 751 893 q 540 936 617 936 q 375 908 447 936 q 263 828 303 881 q 221 700 222 775 q 249 611 221 646 q 324 554 278 576 q 426 516 369 532 q 537 483 482 500 q 638 441 592 467 q 713 376 685 415 q 740 275 740 338 q 691 120 740 182 q 557 26 642 58 q 367 -6 472 -6 z "},"ŝ":{"ha":653,"x_min":-7,"x_max":624,"o":"m 267 -4 q 108 22 183 -4 q -7 89 33 49 l 21 125 q 129 60 63 85 q 269 36 196 36 q 456 81 389 36 q 522 203 522 125 q 492 279 522 253 q 414 319 463 306 q 311 342 365 332 q 208 369 257 353 q 130 419 160 386 q 100 514 100 453 q 136 626 100 578 q 238 700 172 674 q 392 726 304 726 q 522 707 458 726 q 624 653 586 688 l 599 618 q 503 668 558 651 q 388 685 447 685 q 211 639 276 685 q 146 517 146 593 q 176 440 146 467 q 254 399 206 413 q 357 376 303 386 q 460 349 411 365 q 538 299 508 332 q 568 207 568 267 q 531 93 568 140 q 426 21 494 46 q 267 -4 358 -4 m 221 843 l 411 1000 l 469 1000 l 624 843 l 575 843 l 425 979 l 451 979 l 275 843 l 221 843 z "},"Ş":{"ha":839,"x_min":32,"x_max":828,"o":"m 367 -6 q 231 13 297 -6 q 112 60 164 31 q 32 128 60 90 l 60 161 q 138 98 89 126 q 247 53 186 69 q 369 36 307 36 q 539 63 465 36 q 653 143 613 90 q 694 269 694 196 q 666 359 694 325 q 592 415 638 393 q 490 451 546 436 q 380 483 435 465 q 279 526 325 501 q 205 592 233 551 q 176 696 176 632 q 224 849 176 786 q 355 945 272 913 q 542 978 438 978 q 699 956 622 978 q 828 892 775 933 l 803 853 q 684 915 751 893 q 540 936 617 936 q 375 908 447 936 q 263 828 303 881 q 221 700 222 775 q 249 611 221 646 q 324 554 278 576 q 426 516 369 532 q 537 483 482 500 q 638 441 592 467 q 713 376 685 415 q 740 275 740 338 q 691 120 740 182 q 557 26 642 58 q 367 -6 472 -6 m 297 -299 q 238 -290 267 -299 q 188 -262 208 -281 l 210 -233 q 249 -256 226 -249 q 300 -264 272 -264 q 376 -238 349 -264 q 404 -172 404 -212 q 383 -124 404 -142 q 321 -107 361 -107 l 299 -107 l 353 7 l 388 7 l 349 -76 q 419 -106 393 -81 q 444 -172 444 -132 q 403 -262 444 -225 q 297 -299 363 -299 z "},"ş":{"ha":653,"x_min":-7,"x_max":624,"o":"m 267 -4 q 108 22 183 -4 q -7 89 33 49 l 21 125 q 129 60 63 85 q 269 36 196 36 q 456 81 389 36 q 522 203 522 125 q 492 279 522 253 q 414 319 463 306 q 311 342 365 332 q 208 369 257 353 q 130 419 160 386 q 100 514 100 453 q 136 626 100 578 q 238 700 172 674 q 392 726 304 726 q 522 707 458 726 q 624 653 586 688 l 599 618 q 503 668 558 651 q 388 685 447 685 q 211 639 276 685 q 146 517 146 593 q 176 440 146 467 q 254 399 206 413 q 357 376 303 386 q 460 349 411 365 q 538 299 508 332 q 568 207 568 267 q 531 93 568 140 q 426 21 494 46 q 267 -4 358 -4 m 182 -299 q 122 -290 151 -299 q 72 -262 93 -281 l 94 -233 q 134 -256 111 -249 q 185 -264 157 -264 q 261 -238 233 -264 q 289 -172 289 -212 q 267 -124 289 -142 q 206 -107 246 -107 l 183 -107 l 238 7 l 272 7 l 233 -76 q 303 -106 278 -81 q 329 -172 329 -132 q 288 -262 329 -225 q 182 -299 247 -299 z "},"Š":{"ha":839,"x_min":32,"x_max":828,"o":"m 367 -6 q 231 13 297 -6 q 112 60 164 31 q 32 128 60 90 l 60 161 q 138 98 89 126 q 247 53 186 69 q 369 36 307 36 q 539 63 465 36 q 653 143 613 90 q 694 269 694 196 q 666 359 694 325 q 592 415 638 393 q 490 451 546 436 q 380 483 435 465 q 279 526 325 501 q 205 592 233 551 q 176 696 176 632 q 224 849 176 786 q 355 945 272 913 q 542 978 438 978 q 699 956 622 978 q 828 892 775 933 l 803 853 q 684 915 751 893 q 540 936 617 936 q 375 908 447 936 q 263 828 303 881 q 221 700 222 775 q 249 611 221 646 q 324 554 278 576 q 426 516 369 532 q 537 483 482 500 q 638 441 592 467 q 713 376 685 415 q 740 275 740 338 q 691 120 740 182 q 557 26 642 58 q 367 -6 472 -6 z "},"š":{"ha":653,"x_min":-7,"x_max":654,"o":"m 267 -4 q 108 22 183 -4 q -7 89 33 49 l 21 125 q 129 60 63 85 q 269 36 196 36 q 456 81 389 36 q 522 203 522 125 q 492 279 522 253 q 414 319 463 306 q 311 342 365 332 q 208 369 257 353 q 130 419 160 386 q 100 514 100 453 q 136 626 100 578 q 238 700 172 674 q 392 726 304 726 q 522 707 458 726 q 624 653 586 688 l 599 618 q 503 668 558 651 q 388 685 447 685 q 211 639 276 685 q 146 517 146 593 q 176 440 146 467 q 254 399 206 413 q 357 376 303 386 q 460 349 411 365 q 538 299 508 332 q 568 207 568 267 q 531 93 568 140 q 426 21 494 46 q 267 -4 358 -4 m 406 843 l 251 1000 l 300 1000 l 450 864 l 424 864 l 600 1000 l 654 1000 l 464 843 l 406 843 z "},"Ţ":{"ha":771,"x_min":119,"x_max":888,"o":"m 289 0 l 475 929 l 119 929 l 128 972 l 888 972 l 878 929 l 522 929 l 336 0 l 289 0 m 240 -299 q 181 -290 210 -299 q 131 -262 151 -281 l 153 -233 q 192 -256 169 -249 q 243 -264 215 -264 q 319 -238 292 -264 q 347 -172 347 -212 q 326 -124 347 -142 q 264 -107 304 -107 l 242 -107 l 296 7 l 331 7 l 292 -76 q 362 -106 336 -81 q 388 -172 388 -132 q 347 -262 388 -225 q 240 -299 306 -299 z "},"ţ":{"ha":544,"x_min":83,"x_max":521,"o":"m 283 -4 q 186 19 224 -4 q 135 88 149 43 q 133 194 121 132 l 269 879 l 315 879 l 181 200 q 192 77 164 118 q 292 36 219 36 q 358 47 326 36 q 414 79 389 58 l 432 46 q 361 8 401 19 q 283 -4 321 -4 m 94 681 l 101 721 l 521 721 l 514 681 l 94 681 m 193 -299 q 133 -290 163 -299 q 83 -262 104 -281 l 106 -233 q 145 -256 122 -249 q 196 -264 168 -264 q 272 -238 244 -264 q 300 -172 300 -212 q 278 -124 300 -142 q 217 -107 257 -107 l 194 -107 l 249 7 l 283 7 l 244 -76 q 315 -106 289 -81 q 340 -172 340 -132 q 299 -262 340 -225 q 193 -299 258 -299 z "},"Ť":{"ha":771,"x_min":119,"x_max":888,"o":"m 289 0 l 475 929 l 119 929 l 128 972 l 888 972 l 878 929 l 522 929 l 336 0 l 289 0 z "},"ť":{"ha":544,"x_min":94,"x_max":533,"o":"m 283 -4 q 186 19 224 -4 q 135 88 149 43 q 133 194 121 132 l 269 879 l 315 879 l 181 200 q 192 77 164 118 q 292 36 219 36 q 358 47 326 36 q 414 79 389 58 l 432 46 q 361 8 401 19 q 283 -4 321 -4 m 94 681 l 101 721 l 521 721 l 514 681 l 94 681 m 442 808 l 492 1061 l 533 1061 l 478 808 l 442 808 z "},"Ŧ":{"ha":771,"x_min":119,"x_max":888,"o":"m 289 0 l 475 929 l 119 929 l 128 972 l 888 972 l 878 929 l 522 929 l 336 0 l 289 0 m 151 469 l 160 510 l 669 510 l 661 469 l 151 469 z "},"ŧ":{"ha":558,"x_min":60,"x_max":528,"o":"m 290 -4 q 193 19 231 -4 q 142 88 156 43 q 140 194 128 132 l 276 879 l 322 879 l 188 200 q 199 77 171 118 q 299 36 226 36 q 365 47 333 36 q 421 79 396 58 l 439 46 q 368 8 408 19 q 290 -4 328 -4 m 101 681 l 108 721 l 528 721 l 521 681 l 101 681 m 60 403 l 68 440 l 458 440 l 450 403 l 60 403 z "},"Ũ":{"ha":1101,"x_min":156,"x_max":1054,"o":"m 493 -6 q 285 51 363 -6 q 182 200 208 107 q 179 407 156 293 l 292 972 l 339 972 l 225 406 q 216 267 210 333 q 254 149 222 201 q 347 67 286 97 q 500 38 407 38 q 694 80 615 38 q 821 201 772 122 q 890 388 869 281 l 1008 972 l 1054 972 l 938 385 q 792 98 901 201 q 493 -6 682 -6 z "},"ũ":{"ha":925,"x_min":117,"x_max":843,"o":"m 376 -4 q 219 34 279 -4 q 138 140 160 72 q 135 300 117 208 l 218 721 l 264 721 l 181 299 q 208 108 156 178 q 386 38 260 38 q 603 110 517 38 q 718 324 690 183 l 797 721 l 843 721 l 700 0 l 656 0 l 697 208 l 713 204 q 574 46 661 96 q 376 -4 488 -4 m 660 857 q 606 872 628 857 q 564 905 583 886 q 526 938 544 924 q 483 953 507 953 q 429 928 451 953 q 400 861 407 903 l 365 861 q 406 954 374 919 q 485 989 439 989 q 538 974 515 989 q 578 941 560 960 q 616 908 597 922 q 660 893 635 893 q 715 918 692 893 q 743 982 738 943 l 778 982 q 738 892 768 926 q 660 857 707 857 z "},"Ū":{"ha":1101,"x_min":156,"x_max":1054,"o":"m 493 -6 q 285 51 363 -6 q 182 200 208 107 q 179 407 156 293 l 292 972 l 339 972 l 225 406 q 216 267 210 333 q 254 149 222 201 q 347 67 286 97 q 500 38 407 38 q 694 80 615 38 q 821 201 772 122 q 890 388 869 281 l 1008 972 l 1054 972 l 938 385 q 792 98 901 201 q 493 -6 682 -6 z "},"ū":{"ha":925,"x_min":117,"x_max":843,"o":"m 376 -4 q 219 34 279 -4 q 138 140 160 72 q 135 300 117 208 l 218 721 l 264 721 l 181 299 q 208 108 156 178 q 386 38 260 38 q 603 110 517 38 q 718 324 690 183 l 797 721 l 843 721 l 700 0 l 656 0 l 697 208 l 713 204 q 574 46 661 96 q 376 -4 488 -4 m 372 903 l 379 940 l 769 940 l 763 903 l 372 903 z "},"Ŭ":{"ha":1101,"x_min":156,"x_max":1054,"o":"m 493 -6 q 285 51 363 -6 q 182 200 208 107 q 179 407 156 293 l 292 972 l 339 972 l 225 406 q 216 267 210 333 q 254 149 222 201 q 347 67 286 97 q 500 38 407 38 q 694 80 615 38 q 821 201 772 122 q 890 388 869 281 l 1008 972 l 1054 972 l 938 385 q 792 98 901 201 q 493 -6 682 -6 z "},"ŭ":{"ha":925,"x_min":117,"x_max":843,"o":"m 376 -4 q 219 34 279 -4 q 138 140 160 72 q 135 300 117 208 l 218 721 l 264 721 l 181 299 q 208 108 156 178 q 386 38 260 38 q 603 110 517 38 q 718 324 690 183 l 797 721 l 843 721 l 700 0 l 656 0 l 697 208 l 713 204 q 574 46 661 96 q 376 -4 488 -4 m 571 839 q 477 858 518 839 q 413 915 436 878 q 394 1000 390 951 l 432 1000 q 468 908 428 942 q 572 874 508 874 q 683 908 635 874 q 739 1000 731 942 l 776 1000 q 707 883 765 926 q 571 839 649 839 z "},"Ů":{"ha":1101,"x_min":156,"x_max":1054,"o":"m 493 -6 q 285 51 363 -6 q 182 200 208 107 q 179 407 156 293 l 292 972 l 339 972 l 225 406 q 216 267 210 333 q 254 149 222 201 q 347 67 286 97 q 500 38 407 38 q 694 80 615 38 q 821 201 772 122 q 890 388 869 281 l 1008 972 l 1054 972 l 938 385 q 792 98 901 201 q 493 -6 682 -6 m 721 1081 q 653 1098 682 1081 q 606 1145 624 1115 q 589 1210 589 1175 q 606 1275 589 1244 q 653 1324 624 1306 q 721 1342 683 1342 q 790 1324 760 1342 q 837 1275 819 1306 q 854 1210 854 1244 q 837 1145 854 1175 q 790 1098 819 1115 q 721 1081 760 1081 m 721 1111 q 793 1140 765 1111 q 821 1210 821 1169 q 793 1280 821 1250 q 721 1310 765 1310 q 651 1281 679 1310 q 622 1210 622 1251 q 650 1140 622 1168 q 721 1111 678 1111 z "},"ů":{"ha":925,"x_min":117,"x_max":843,"o":"m 376 -4 q 219 34 279 -4 q 138 140 160 72 q 135 300 117 208 l 218 721 l 264 721 l 181 299 q 208 108 156 178 q 386 38 260 38 q 603 110 517 38 q 718 324 690 183 l 797 721 l 843 721 l 700 0 l 656 0 l 697 208 l 713 204 q 574 46 661 96 q 376 -4 488 -4 m 579 829 q 511 847 540 829 q 465 894 482 864 q 447 958 447 924 q 465 1024 447 993 q 512 1072 482 1054 q 579 1090 542 1090 q 648 1072 618 1090 q 695 1024 678 1054 q 713 958 713 993 q 695 894 713 924 q 648 847 678 864 q 579 829 618 829 m 579 860 q 651 889 624 860 q 679 958 679 918 q 651 1028 679 999 q 579 1058 624 1058 q 509 1029 538 1058 q 481 958 481 1000 q 508 888 481 917 q 579 860 536 860 z "},"Ű":{"ha":1101,"x_min":156,"x_max":1054,"o":"m 493 -6 q 285 51 363 -6 q 182 200 208 107 q 179 407 156 293 l 292 972 l 339 972 l 225 406 q 216 267 210 333 q 254 149 222 201 q 347 67 286 97 q 500 38 407 38 q 694 80 615 38 q 821 201 772 122 q 890 388 869 281 l 1008 972 l 1054 972 l 938 385 q 792 98 901 201 q 493 -6 682 -6 z "},"ű":{"ha":925,"x_min":117,"x_max":863,"o":"m 376 -4 q 219 34 279 -4 q 138 140 160 72 q 135 300 117 208 l 218 721 l 264 721 l 181 299 q 208 108 156 178 q 386 38 260 38 q 603 110 517 38 q 718 324 690 183 l 797 721 l 843 721 l 700 0 l 656 0 l 697 208 l 713 204 q 574 46 661 96 q 376 -4 488 -4 m 629 843 l 796 1000 l 863 1000 l 683 843 l 629 843 m 428 843 l 594 1000 l 661 1000 l 482 843 l 428 843 z "},"Ų":{"ha":1101,"x_min":168,"x_max":1054,"o":"m 500 38 q 694 80 617 38 q 821 201 772 122 q 863 288 844 242 q 890 388 881 335 l 1008 972 l 1054 972 l 938 385 q 822 129 907 228 q 600 4 736 31 q 419 -85 478 -31 q 361 -193 361 -140 q 381 -246 361 -228 q 439 -264 401 -264 q 492 -255 467 -264 q 538 -231 517 -246 l 549 -261 q 497 -289 525 -279 q 435 -299 468 -299 q 353 -272 385 -299 q 322 -199 322 -244 q 366 -94 322 -146 q 494 -4 410 -42 q 478 -4 488 -4 q 463 -4 469 -4 q 278 54 351 -1 q 182 203 206 110 q 169 301 169 250 q 179 407 168 351 l 292 972 l 339 972 l 225 407 q 216 269 210 335 q 253 153 222 204 q 344 69 283 100 q 500 38 406 38 z "},"ų":{"ha":925,"x_min":117,"x_max":843,"o":"m 376 -4 q 219 34 279 -4 q 138 140 160 72 q 135 300 117 208 l 218 721 l 264 721 l 181 299 q 208 108 156 178 q 386 38 260 38 q 603 110 517 38 q 718 324 690 183 l 797 721 l 843 721 l 700 0 l 656 0 l 697 208 l 713 204 q 574 46 661 96 q 376 -4 488 -4 m 560 -299 q 478 -272 510 -299 q 447 -199 447 -244 q 472 -117 447 -156 q 548 -42 496 -78 q 682 26 600 -6 l 700 0 q 581 -59 629 -28 q 510 -124 533 -90 q 488 -193 488 -157 q 508 -245 488 -226 q 565 -264 528 -264 q 616 -255 590 -264 q 663 -231 642 -246 l 675 -261 q 621 -289 650 -279 q 560 -299 592 -299 z "},"Ŵ":{"ha":1511,"x_min":182,"x_max":1574,"o":"m 319 0 l 182 972 l 228 972 l 360 33 l 338 33 l 854 972 l 899 972 l 1039 33 l 1015 33 l 1525 972 l 1574 972 l 1047 0 l 999 0 l 861 921 l 875 921 l 367 0 l 319 0 z "},"ŵ":{"ha":1175,"x_min":81,"x_max":1239,"o":"m 228 0 l 81 721 l 124 721 l 263 28 l 243 28 l 639 721 l 678 721 l 822 28 l 801 28 l 1192 721 l 1239 721 l 831 0 l 788 0 l 644 678 l 660 678 l 271 0 l 228 0 m 483 843 l 674 1000 l 732 1000 l 886 843 l 838 843 l 688 979 l 714 979 l 538 843 l 483 843 z "},"Ŷ":{"ha":856,"x_min":133,"x_max":968,"o":"m 332 0 l 401 346 l 407 314 l 133 972 l 182 972 l 436 358 l 414 357 l 914 972 l 968 972 l 431 311 l 449 346 l 379 0 l 332 0 z "},"ŷ":{"ha":718,"x_min":-153,"x_max":783,"o":"m 4 -274 q -86 -257 -43 -274 q -153 -210 -129 -240 l -122 -176 q -66 -219 -99 -206 q 10 -233 -33 -233 q 101 -206 58 -233 q 194 -103 144 -178 l 272 17 l 282 28 l 733 721 l 783 721 l 235 -118 q 159 -212 194 -178 q 86 -260 124 -246 q 4 -274 49 -274 m 269 -17 l 79 721 l 126 721 l 303 31 l 269 -17 m 233 843 l 424 1000 l 482 1000 l 636 843 l 588 843 l 438 979 l 464 979 l 288 843 l 233 843 z "},"Ÿ":{"ha":856,"x_min":133,"x_max":968,"o":"m 332 0 l 401 346 l 407 314 l 133 972 l 182 972 l 436 358 l 414 357 l 914 972 l 968 972 l 431 311 l 449 346 l 379 0 l 332 0 z "},"Ź":{"ha":892,"x_min":-6,"x_max":947,"o":"m -6 0 l 1 33 l 888 947 l 888 929 l 189 929 l 197 972 l 947 972 l 940 939 l 54 25 l 54 43 l 776 43 l 767 0 l -6 0 z "},"ź":{"ha":689,"x_min":-10,"x_max":689,"o":"m -10 0 l -4 32 l 629 696 l 646 681 l 135 681 l 142 721 l 689 721 l 682 689 l 50 26 l 29 40 l 561 40 l 553 0 l -10 0 m 369 843 l 579 1000 l 658 1000 l 428 843 l 369 843 z "},"Ż":{"ha":892,"x_min":-6,"x_max":947,"o":"m -6 0 l 1 33 l 888 947 l 888 929 l 189 929 l 197 972 l 947 972 l 940 939 l 54 25 l 54 43 l 776 43 l 767 0 l -6 0 z "},"ż":{"ha":689,"x_min":-10,"x_max":689,"o":"m -10 0 l -4 32 l 629 696 l 646 681 l 135 681 l 142 721 l 689 721 l 682 689 l 50 26 l 29 40 l 561 40 l 553 0 l -10 0 m 456 886 q 426 898 439 886 q 414 926 414 910 q 427 960 414 946 q 460 975 440 975 q 489 963 476 975 q 501 935 501 951 q 488 901 501 915 q 456 886 475 886 z "},"Ž":{"ha":892,"x_min":-6,"x_max":947,"o":"m -6 0 l 1 33 l 888 947 l 888 929 l 189 929 l 197 972 l 947 972 l 940 939 l 54 25 l 54 43 l 776 43 l 767 0 l -6 0 z "},"ž":{"ha":689,"x_min":-10,"x_max":689,"o":"m -10 0 l -4 32 l 629 696 l 646 681 l 135 681 l 142 721 l 689 721 l 682 689 l 50 26 l 29 40 l 561 40 l 553 0 l -10 0 m 424 843 l 269 1000 l 318 1000 l 468 864 l 442 864 l 618 1000 l 672 1000 l 482 843 l 424 843 z "},"ſ":{"ha":388,"x_min":110,"x_max":632,"o":"m 111 0 l 279 846 q 353 988 299 940 q 497 1035 408 1035 q 574 1022 538 1035 q 632 985 611 1010 l 607 953 q 496 994 567 994 q 382 957 424 994 q 324 838 340 919 l 157 0 l 111 0 m 110 681 l 118 721 l 285 721 l 278 681 l 110 681 z "},"Ə":{"ha":1133,"x_min":93,"x_max":1089,"o":"m 522 -6 q 292 44 389 -6 q 144 182 196 94 q 93 383 93 269 q 97 440 93 411 q 107 506 101 468 l 1044 506 l 1036 463 l 129 463 l 151 485 q 142 435 146 458 q 139 386 139 411 q 186 203 139 282 q 320 81 233 124 q 528 38 407 38 q 738 81 643 38 q 900 199 832 124 q 1005 372 968 274 q 1042 581 1042 471 q 997 765 1042 686 q 867 890 953 844 q 656 935 782 935 q 467 904 551 935 q 325 821 383 874 l 299 854 q 453 944 358 911 q 660 978 549 978 q 892 928 796 978 q 1038 789 988 878 q 1089 582 1089 700 q 1049 358 1089 464 q 935 171 1008 253 q 756 42 861 89 q 522 -6 651 -6 z "},"ƒ":{"ha":585,"x_min":-236,"x_max":758,"o":"m -99 -274 q -178 -261 -142 -274 q -236 -224 -214 -249 l -206 -190 q -96 -233 -165 -233 q 17 -194 -31 -233 q 89 -81 64 -156 l 389 849 q 477 985 417 935 q 626 1035 538 1035 q 702 1023 667 1035 q 758 985 738 1011 l 726 951 q 683 983 713 972 q 619 994 654 994 q 506 956 553 994 q 433 842 458 917 l 390 711 l 385 689 l 133 -89 q 49 -224 107 -174 q -99 -274 -10 -274 m 199 678 l 211 718 l 631 718 l 618 678 l 199 678 z "},"Ơ":{"ha":1163,"x_min":96,"x_max":1193,"o":"m 538 -6 q 297 44 394 -6 q 147 184 199 94 q 96 390 96 274 q 136 614 96 508 q 251 801 176 719 q 434 931 326 883 q 676 978 542 978 q 801 973 749 978 q 901 963 854 968 q 1000 957 947 957 q 1114 987 1075 957 q 1153 1068 1153 1017 q 1144 1119 1153 1096 q 1125 1161 1136 1142 l 1161 1175 q 1184 1126 1175 1154 q 1193 1069 1193 1099 q 1171 988 1193 1022 q 1106 936 1149 954 q 1004 918 1064 918 q 944 920 969 918 q 894 925 918 922 l 906 929 q 1063 793 1010 883 q 1117 582 1117 703 q 1077 358 1117 464 q 962 171 1038 253 q 779 42 886 89 q 538 -6 672 -6 m 542 38 q 760 81 663 38 q 926 199 857 124 q 1032 372 994 274 q 1069 581 1069 471 q 1025 765 1069 686 q 892 890 981 844 q 672 935 803 935 q 453 892 551 935 q 287 774 356 849 q 181 600 218 699 q 143 392 143 501 q 188 208 143 288 q 322 83 233 128 q 542 38 410 38 z "},"ơ":{"ha":853,"x_min":65,"x_max":851,"o":"m 378 -4 q 213 32 283 -4 q 103 135 142 68 q 65 292 65 201 q 118 515 65 417 q 263 669 171 613 q 475 726 356 726 q 570 724 533 726 q 636 720 607 722 q 700 718 665 718 q 783 744 754 718 q 813 818 813 769 q 804 869 813 846 q 785 911 796 892 l 819 925 q 843 876 835 904 q 851 819 851 849 q 833 744 851 775 q 781 697 815 714 q 700 681 747 681 q 644 683 671 681 q 583 689 617 685 l 625 694 q 746 593 704 661 q 788 429 788 525 q 735 207 788 306 q 590 52 682 108 q 378 -4 497 -4 m 383 38 q 568 88 488 38 q 695 227 649 139 q 742 428 742 315 q 670 617 742 550 q 471 683 599 683 q 287 633 368 683 q 158 494 206 582 q 111 293 111 406 q 183 105 111 172 q 383 38 254 38 z "},"Ư":{"ha":1104,"x_min":156,"x_max":1189,"o":"m 493 -6 q 285 51 363 -6 q 182 200 208 107 q 179 407 156 293 l 292 972 l 339 972 l 225 406 q 216 267 210 333 q 254 149 222 201 q 347 67 286 97 q 500 38 407 38 q 694 80 615 38 q 821 201 772 122 q 890 388 869 281 l 1008 972 l 1054 972 l 938 385 q 792 98 901 201 q 493 -6 682 -6 m 1038 933 l 1038 972 l 1053 972 q 1127 1001 1106 972 q 1149 1068 1149 1029 q 1140 1119 1149 1096 q 1121 1161 1132 1142 l 1157 1175 q 1180 1126 1171 1154 q 1189 1069 1189 1099 q 1174 1001 1189 1032 q 1131 952 1160 971 q 1053 933 1101 933 l 1038 933 z "},"ư":{"ha":928,"x_min":117,"x_max":957,"o":"m 376 -4 q 219 34 279 -4 q 138 140 160 72 q 135 300 117 208 l 218 721 l 264 721 l 181 299 q 208 108 156 178 q 386 38 260 38 q 603 110 517 38 q 718 324 690 183 l 797 721 l 843 721 l 700 0 l 656 0 l 697 208 l 713 204 q 574 46 661 96 q 376 -4 488 -4 m 806 682 l 806 721 l 821 721 q 895 749 874 721 q 917 817 917 778 q 908 867 917 844 q 889 910 900 890 l 925 924 q 948 875 939 903 q 957 818 957 847 q 942 750 957 781 q 899 701 928 719 q 821 682 869 682 l 806 682 z "},"Ʒ":{"ha":806,"x_min":1,"x_max":800,"o":"m 324 -6 q 126 33 211 -6 q 1 129 40 71 l 33 163 q 143 73 67 108 q 326 38 219 38 q 501 70 428 38 q 614 163 575 103 q 653 301 653 222 q 588 450 653 399 q 386 501 522 501 l 342 501 l 349 535 l 743 946 l 750 929 l 194 929 l 203 972 l 800 972 l 793 939 l 397 526 l 382 542 l 393 542 q 563 514 494 542 q 665 433 631 486 q 700 303 700 379 q 653 142 700 211 q 522 33 607 72 q 324 -6 438 -6 z "},"Ǆ":{"ha":2028,"x_min":106,"x_max":2069,"o":"m 106 0 l 300 972 l 654 972 q 900 924 800 972 q 1051 787 1000 875 q 1103 582 1103 699 q 1060 349 1103 456 q 939 164 1018 242 q 748 43 860 86 q 497 0 636 0 l 106 0 m 161 43 l 501 43 q 796 112 672 43 q 988 302 919 181 q 1057 581 1057 424 q 1012 764 1057 685 q 876 886 967 843 q 650 929 786 929 l 338 929 l 161 43 m 1117 0 l 1124 33 l 2010 947 l 2010 929 l 1311 929 l 1319 972 l 2069 972 l 2063 939 l 1176 25 l 1176 43 l 1899 43 l 1889 0 l 1117 0 z "},"ǅ":{"ha":1836,"x_min":106,"x_max":1836,"o":"m 106 0 l 300 972 l 654 972 q 900 924 800 972 q 1051 787 1000 875 q 1103 582 1103 699 q 1060 349 1103 456 q 939 164 1018 242 q 748 43 860 86 q 497 0 636 0 l 106 0 m 161 43 l 501 43 q 796 112 672 43 q 988 302 919 181 q 1057 581 1057 424 q 1012 764 1057 685 q 876 886 967 843 q 650 929 786 929 l 338 929 l 161 43 m 1138 0 l 1143 32 l 1776 696 l 1793 681 l 1282 681 l 1289 721 l 1836 721 l 1829 689 l 1197 26 l 1176 40 l 1708 40 l 1700 0 l 1138 0 m 1571 843 l 1417 1000 l 1465 1000 l 1615 864 l 1589 864 l 1765 1000 l 1819 1000 l 1629 843 l 1571 843 z "},"ǆ":{"ha":1624,"x_min":65,"x_max":1624,"o":"m 375 -4 q 212 31 282 -4 q 103 133 142 67 q 65 292 65 200 q 95 464 65 385 q 180 602 125 543 q 309 694 235 661 q 474 726 383 726 q 635 692 568 726 q 738 592 703 657 q 774 438 774 528 q 745 261 774 342 q 664 122 717 181 q 538 29 611 63 q 375 -4 464 -4 m 383 38 q 568 88 488 38 q 695 227 649 139 q 742 428 742 315 q 670 617 742 550 q 471 683 599 683 q 287 633 368 683 q 158 494 206 582 q 111 293 111 406 q 183 105 111 172 q 383 38 254 38 m 664 0 l 713 240 l 750 350 l 757 468 l 869 1031 l 915 1031 l 710 0 l 664 0 m 925 0 l 931 32 l 1564 696 l 1581 681 l 1069 681 l 1076 721 l 1624 721 l 1617 689 l 985 26 l 964 40 l 1496 40 l 1488 0 l 925 0 m 1358 843 l 1204 1000 l 1253 1000 l 1403 864 l 1376 864 l 1553 1000 l 1607 1000 l 1417 843 l 1358 843 z "},"Ǉ":{"ha":1481,"x_min":106,"x_max":1432,"o":"m 106 0 l 300 972 l 347 972 l 161 43 l 732 43 l 722 0 l 106 0 m 1004 -6 q 856 33 919 -6 q 764 133 792 71 l 801 160 q 881 71 828 104 q 1008 38 933 38 q 1161 91 1103 38 q 1246 276 1219 144 l 1376 929 l 1015 929 l 1024 972 l 1432 972 l 1292 271 q 1233 110 1271 171 q 1139 22 1196 49 q 1004 -6 1082 -6 z "},"ǈ":{"ha":1169,"x_min":106,"x_max":1156,"o":"m 106 0 l 300 972 l 347 972 l 161 43 l 732 43 l 722 0 l 106 0 m 714 -274 q 634 -261 671 -274 q 572 -225 597 -249 l 599 -190 q 717 -233 646 -233 q 824 -197 783 -233 q 881 -78 864 -160 l 1040 721 l 1086 721 l 925 -85 q 714 -274 889 -274 m 1107 910 q 1076 922 1089 910 q 1064 951 1064 935 q 1078 985 1064 971 q 1113 1000 1093 1000 q 1143 988 1131 1000 q 1156 958 1156 975 q 1141 924 1156 939 q 1107 910 1126 910 z "},"ǉ":{"ha":715,"x_min":82,"x_max":701,"o":"m 82 0 l 288 1031 l 333 1031 l 128 0 l 82 0 m 260 -274 q 180 -261 217 -274 q 118 -225 143 -249 l 144 -190 q 263 -233 192 -233 q 369 -197 329 -233 q 426 -78 410 -160 l 586 721 l 632 721 l 471 -85 q 260 -274 435 -274 m 653 910 q 622 922 635 910 q 610 951 610 935 q 624 985 610 971 q 658 1000 639 1000 q 689 988 676 1000 q 701 958 701 975 q 687 924 701 939 q 653 910 672 910 z "},"Ǌ":{"ha":1803,"x_min":106,"x_max":1756,"o":"m 106 0 l 300 972 l 339 972 l 864 54 l 847 58 l 1029 972 l 1076 972 l 882 0 l 843 0 l 318 918 l 335 914 l 153 0 l 106 0 m 1328 -6 q 1179 33 1243 -6 q 1088 133 1115 71 l 1125 160 q 1204 71 1151 104 q 1332 38 1257 38 q 1485 91 1426 38 q 1569 276 1543 144 l 1700 929 l 1339 929 l 1347 972 l 1756 972 l 1615 271 q 1557 110 1594 171 q 1463 22 1519 49 q 1328 -6 1406 -6 z "},"ǋ":{"ha":1493,"x_min":106,"x_max":1479,"o":"m 106 0 l 300 972 l 339 972 l 864 54 l 847 58 l 1029 972 l 1076 972 l 882 0 l 843 0 l 318 918 l 335 914 l 153 0 l 106 0 m 1038 -274 q 958 -261 994 -274 q 896 -225 921 -249 l 922 -190 q 1040 -233 969 -233 q 1147 -197 1107 -233 q 1204 -78 1188 -160 l 1364 721 l 1410 721 l 1249 -85 q 1038 -274 1213 -274 m 1431 910 q 1400 922 1413 910 q 1388 951 1388 935 q 1402 985 1388 971 q 1436 1000 1417 1000 q 1467 988 1454 1000 q 1479 958 1479 975 q 1465 924 1479 939 q 1431 910 1450 910 z "},"ǌ":{"ha":1292,"x_min":82,"x_max":1278,"o":"m 551 726 q 711 688 650 726 q 794 581 772 649 q 797 422 815 513 l 713 0 l 667 0 l 751 422 q 723 613 775 543 q 542 683 671 683 q 323 611 411 683 q 207 397 235 539 l 128 0 l 82 0 l 225 721 l 271 721 l 229 513 l 213 517 q 351 676 264 626 q 551 726 439 726 m 836 -274 q 756 -261 793 -274 q 694 -225 719 -249 l 721 -190 q 839 -233 768 -233 q 946 -197 906 -233 q 1003 -78 986 -160 l 1163 721 l 1208 721 l 1047 -85 q 836 -274 1011 -274 m 1229 910 q 1199 922 1211 910 q 1186 951 1186 935 q 1201 985 1186 971 q 1235 1000 1215 1000 q 1265 988 1253 1000 q 1278 958 1278 975 q 1263 924 1278 939 q 1229 910 1249 910 z "},"Ǎ":{"ha":967,"x_min":-62,"x_max":883,"o":"m -62 0 l 582 972 l 628 972 l 883 0 l 836 0 l 592 940 l 611 940 l -10 0 l -62 0 m 150 285 l 176 325 l 771 325 l 781 285 l 150 285 z "},"ǎ":{"ha":935,"x_min":65,"x_max":853,"o":"m 375 -4 q 212 31 282 -4 q 103 133 142 67 q 65 292 65 200 q 95 464 65 385 q 180 602 125 543 q 309 694 235 661 q 474 726 383 726 q 635 692 568 726 q 738 592 703 657 q 774 438 774 528 q 724 211 775 311 q 584 53 674 111 q 375 -4 494 -4 m 383 38 q 568 88 488 38 q 695 227 649 139 q 742 428 742 315 q 670 617 742 550 q 471 683 599 683 q 287 633 368 683 q 158 494 206 582 q 111 293 111 406 q 183 105 111 172 q 383 38 254 38 m 664 0 l 713 240 l 750 350 l 757 468 l 807 721 l 853 721 l 710 0 l 664 0 m 524 843 l 369 1000 l 418 1000 l 568 864 l 542 864 l 718 1000 l 772 1000 l 582 843 l 524 843 z "},"Ǔ":{"ha":1101,"x_min":156,"x_max":1054,"o":"m 493 -6 q 285 51 363 -6 q 182 200 208 107 q 179 407 156 293 l 292 972 l 339 972 l 225 406 q 216 267 210 333 q 254 149 222 201 q 347 67 286 97 q 500 38 407 38 q 694 80 615 38 q 821 201 772 122 q 890 388 869 281 l 1008 972 l 1054 972 l 938 385 q 792 98 901 201 q 493 -6 682 -6 z "},"ǔ":{"ha":925,"x_min":117,"x_max":843,"o":"m 376 -4 q 219 34 279 -4 q 138 140 160 72 q 135 300 117 208 l 218 721 l 264 721 l 181 299 q 208 108 156 178 q 386 38 260 38 q 603 110 517 38 q 718 324 690 183 l 797 721 l 843 721 l 700 0 l 656 0 l 697 208 l 713 204 q 574 46 661 96 q 376 -4 488 -4 m 539 843 l 385 1000 l 433 1000 l 583 864 l 557 864 l 733 1000 l 788 1000 l 597 843 l 539 843 z "},"Ǥ":{"ha":1118,"x_min":96,"x_max":1081,"o":"m 567 306 l 575 346 l 1081 346 l 1072 306 l 567 306 m 538 -6 q 297 44 396 -6 q 147 184 199 94 q 96 390 96 274 q 136 614 96 508 q 252 801 176 719 q 437 931 328 883 q 683 978 546 978 q 885 944 797 978 q 1024 850 974 910 l 990 819 q 863 906 940 876 q 679 935 785 935 q 458 892 557 935 q 288 774 358 849 q 181 601 218 699 q 143 392 143 503 q 188 208 143 288 q 322 83 233 128 q 543 38 411 38 q 716 69 639 38 q 857 156 793 100 l 878 119 q 726 28 814 63 q 538 -6 639 -6 m 833 122 l 904 479 l 949 479 l 878 119 l 833 122 z "},"ǥ":{"ha":949,"x_min":25,"x_max":864,"o":"m 331 -274 q 153 -243 232 -274 q 25 -157 74 -212 l 58 -124 q 174 -204 103 -176 q 333 -232 246 -232 q 571 -161 485 -232 q 686 63 657 -90 l 731 283 l 763 376 l 769 471 l 818 721 l 864 721 l 733 69 q 600 -192 697 -111 q 331 -274 503 -274 m 321 -93 l 328 -56 l 796 -56 l 789 -93 l 321 -93 m 382 29 q 216 64 286 29 q 108 162 146 99 q 69 311 69 225 q 122 523 69 429 q 267 672 175 617 q 479 726 360 726 q 641 694 572 726 q 747 599 710 661 q 783 449 783 538 q 734 236 785 331 q 592 85 683 142 q 382 29 501 29 m 389 71 q 576 119 494 71 q 704 251 657 167 q 751 442 751 335 q 679 622 751 558 q 478 685 607 685 q 292 637 374 685 q 163 505 210 589 q 115 314 115 421 q 188 135 115 199 q 389 71 260 71 z "},"Ǧ":{"ha":1075,"x_min":96,"x_max":1024,"o":"m 538 -6 q 297 44 396 -6 q 147 184 199 94 q 96 390 96 274 q 136 614 96 508 q 252 801 176 719 q 437 931 328 883 q 683 978 546 978 q 885 944 797 978 q 1024 850 974 910 l 990 819 q 863 906 940 876 q 679 935 785 935 q 458 892 557 935 q 288 774 358 849 q 181 601 218 699 q 143 392 143 503 q 188 208 143 288 q 322 83 233 128 q 543 38 411 38 q 716 69 639 38 q 857 156 793 100 l 878 119 q 726 28 814 63 q 538 -6 639 -6 m 833 122 l 904 479 l 949 479 l 878 119 l 833 122 z "},"ǧ":{"ha":943,"x_min":25,"x_max":863,"o":"m 331 -274 q 153 -243 232 -274 q 25 -157 74 -212 l 58 -124 q 173 -204 101 -176 q 333 -232 244 -232 q 571 -161 485 -232 q 686 63 657 -90 l 731 283 l 763 376 l 768 471 l 818 721 l 863 721 l 733 69 q 600 -192 697 -111 q 331 -274 503 -274 m 382 25 q 215 59 285 25 q 106 157 144 93 q 68 308 68 221 q 99 474 68 399 q 184 607 129 550 q 314 695 239 664 q 479 726 389 726 q 640 694 572 726 q 746 599 708 661 q 783 446 783 536 q 733 233 783 328 q 592 81 682 138 q 382 25 501 25 m 388 67 q 574 115 493 67 q 703 248 656 164 q 750 439 750 332 q 678 619 750 556 q 476 683 607 683 q 291 635 372 683 q 162 503 210 588 q 114 311 114 419 q 186 131 114 194 q 388 67 258 67 m 519 843 l 365 1000 l 414 1000 l 564 864 l 538 864 l 714 1000 l 768 1000 l 578 843 l 519 843 z "},"Ǩ":{"ha":968,"x_min":106,"x_max":1043,"o":"m 196 250 l 207 315 l 978 972 l 1043 972 l 514 522 l 490 501 l 196 250 m 106 0 l 300 972 l 347 972 l 153 0 l 106 0 m 824 0 l 469 514 l 506 540 l 878 0 l 824 0 z "},"ǩ":{"ha":785,"x_min":82,"x_max":822,"o":"m 158 208 l 165 265 l 754 721 l 822 721 l 443 428 l 415 406 l 158 208 m 82 0 l 288 1031 l 333 1031 l 128 0 l 82 0 m 654 0 l 406 411 l 440 443 l 708 0 l 654 0 m 318 1153 l 164 1310 l 213 1310 l 363 1174 l 336 1174 l 513 1310 l 567 1310 l 376 1153 l 318 1153 z "},"Ǫ":{"ha":1163,"x_min":96,"x_max":1117,"o":"m 444 -299 q 364 -272 394 -299 q 333 -199 333 -244 q 380 -87 333 -140 q 531 6 426 -33 l 538 -6 q 297 44 394 -6 q 147 184 199 94 q 96 390 96 274 q 136 614 96 508 q 251 801 176 719 q 434 931 326 883 q 676 978 542 978 q 917 928 818 978 q 1066 789 1015 878 q 1117 582 1117 700 q 1061 321 1117 443 q 902 115 1006 199 q 656 6 799 32 q 492 -47 554 -14 q 402 -118 431 -79 q 374 -193 374 -157 q 394 -245 374 -226 q 451 -264 414 -264 q 502 -255 476 -264 q 549 -231 528 -246 l 561 -261 q 507 -289 536 -279 q 444 -299 478 -299 m 542 38 q 760 81 663 38 q 926 199 857 124 q 1032 372 994 274 q 1069 581 1069 471 q 1025 765 1069 686 q 892 890 981 844 q 672 935 803 935 q 453 892 551 935 q 287 774 356 849 q 181 600 218 699 q 143 392 143 501 q 188 208 143 288 q 322 83 233 128 q 542 38 410 38 z "},"ǫ":{"ha":853,"x_min":65,"x_max":788,"o":"m 335 -299 q 253 -272 285 -299 q 222 -199 222 -244 q 268 -87 222 -142 q 418 10 314 -33 l 425 -1 q 399 -3 410 -3 q 378 -4 388 -4 q 213 32 283 -4 q 103 135 142 68 q 65 292 65 201 q 118 515 65 417 q 263 669 171 613 q 475 726 356 726 q 642 690 572 726 q 749 588 711 654 q 788 429 788 521 q 754 249 788 332 q 660 107 721 167 q 515 17 599 47 q 372 -48 428 -14 q 289 -119 315 -82 q 263 -193 263 -156 q 283 -245 263 -226 q 340 -264 304 -264 q 392 -255 367 -264 q 438 -231 417 -246 l 450 -261 q 397 -289 425 -279 q 335 -299 368 -299 m 383 38 q 568 88 488 38 q 695 227 649 139 q 742 428 742 315 q 670 617 742 550 q 471 683 599 683 q 287 633 368 683 q 158 494 206 582 q 111 293 111 406 q 183 105 111 172 q 383 38 254 38 z "},"Ǯ":{"ha":806,"x_min":1,"x_max":800,"o":"m 324 -6 q 126 33 211 -6 q 1 129 40 71 l 33 163 q 143 73 67 108 q 326 38 219 38 q 501 70 428 38 q 614 163 575 103 q 653 301 653 222 q 588 450 653 399 q 386 501 522 501 l 342 501 l 349 535 l 743 946 l 750 929 l 194 929 l 203 972 l 800 972 l 793 939 l 397 526 l 382 542 l 393 542 q 563 514 494 542 q 665 433 631 486 q 700 303 700 379 q 653 142 700 211 q 522 33 607 72 q 324 -6 438 -6 z "},"ǯ":{"ha":685,"x_min":-133,"x_max":667,"o":"m 411 843 l 257 1000 l 306 1000 l 456 864 l 429 864 l 606 1000 l 660 1000 l 469 843 l 411 843 z "},"Ǻ":{"ha":967,"x_min":-62,"x_max":883,"o":"m -62 0 l 582 972 l 628 972 l 883 0 l 836 0 l 592 940 l 611 940 l -10 0 l -62 0 m 150 285 l 176 325 l 771 325 l 781 285 l 150 285 m 653 1081 q 585 1098 614 1081 q 538 1145 556 1115 q 521 1210 521 1175 q 538 1275 521 1244 q 585 1324 556 1306 q 653 1342 615 1342 q 722 1324 692 1342 q 769 1275 751 1306 q 786 1210 786 1244 q 769 1145 786 1175 q 722 1098 751 1115 q 653 1081 692 1081 m 653 1111 q 725 1140 697 1111 q 753 1210 753 1169 q 725 1280 753 1250 q 653 1310 697 1310 q 583 1281 611 1310 q 554 1210 554 1251 q 582 1140 554 1168 q 653 1111 610 1111 m 751 1289 l 715 1304 l 842 1426 l 874 1401 l 751 1289 z "},"ǻ":{"ha":935,"x_min":65,"x_max":853,"o":"m 375 -4 q 212 31 282 -4 q 103 133 142 67 q 65 292 65 200 q 95 464 65 385 q 180 602 125 543 q 309 694 235 661 q 474 726 383 726 q 635 692 568 726 q 738 592 703 657 q 774 438 774 528 q 724 211 775 311 q 584 53 674 111 q 375 -4 494 -4 m 383 38 q 568 88 488 38 q 695 227 649 139 q 742 428 742 315 q 670 617 742 550 q 471 683 599 683 q 287 633 368 683 q 158 494 206 582 q 111 293 111 406 q 183 105 111 172 q 383 38 254 38 m 664 0 l 713 240 l 750 350 l 757 468 l 807 721 l 853 721 l 710 0 l 664 0 m 564 829 q 496 847 525 829 q 449 894 467 864 q 432 958 432 924 q 449 1024 432 993 q 497 1072 467 1054 q 564 1090 526 1090 q 633 1072 603 1090 q 680 1024 663 1054 q 697 958 697 993 q 680 894 697 924 q 633 847 663 864 q 564 829 603 829 m 564 860 q 636 889 608 860 q 664 958 664 918 q 636 1028 664 999 q 564 1058 608 1058 q 494 1029 522 1058 q 465 958 465 1000 q 493 888 465 917 q 564 860 521 860 m 663 1038 l 626 1053 l 753 1175 l 785 1150 l 663 1038 z "},"Ǽ":{"ha":1406,"x_min":-62,"x_max":1414,"o":"m -62 0 l 740 972 l 792 972 l 783 931 l 738 931 l 772 944 l -7 0 l -62 0 m 203 285 l 224 325 l 663 325 l 654 285 l 203 285 m 583 0 l 778 972 l 1414 972 l 1406 929 l 815 929 l 639 43 l 1250 43 l 1240 0 l 583 0 m 717 472 l 725 515 l 1261 515 l 1253 472 l 717 472 z "},"ǽ":{"ha":1367,"x_min":53,"x_max":1299,"o":"m 290 -4 q 163 17 215 -4 q 81 78 110 39 q 53 174 53 118 q 131 335 53 276 q 351 394 210 394 l 626 394 l 619 357 l 349 357 q 165 309 231 357 q 99 176 99 261 q 149 72 99 108 q 294 35 199 35 q 428 63 367 35 q 534 146 490 92 q 594 281 578 200 l 629 457 q 606 626 651 569 q 443 683 560 683 q 298 658 368 683 q 179 589 228 632 l 158 624 q 242 678 194 656 q 343 714 290 701 q 447 726 396 726 q 633 664 576 726 q 676 496 689 601 l 658 508 q 745 626 693 576 q 862 701 797 675 q 999 726 926 726 q 1159 691 1092 726 q 1263 589 1226 656 q 1299 429 1299 522 q 1296 391 1299 410 q 1290 357 1293 372 l 646 357 l 653 394 l 1271 394 l 1250 374 q 1238 544 1267 475 q 1146 649 1208 613 q 996 685 1083 685 q 821 634 899 685 q 698 496 743 583 q 653 296 653 408 q 725 103 653 169 q 935 38 797 38 q 1079 65 1014 38 q 1189 140 1144 92 l 1214 108 q 1092 26 1165 57 q 931 -4 1018 -4 q 772 25 840 -4 q 661 113 703 54 q 611 260 619 172 l 631 257 q 553 106 607 164 q 432 22 500 49 q 290 -4 364 -4 m 658 843 l 868 1000 l 947 1000 l 717 843 l 658 843 z "},"Ǿ":{"ha":1163,"x_min":40,"x_max":1169,"o":"m 538 -6 q 297 44 394 -6 q 147 184 199 94 q 96 390 96 274 q 136 614 96 508 q 251 801 176 719 q 434 931 326 883 q 676 978 542 978 q 917 928 818 978 q 1066 789 1015 878 q 1117 582 1117 700 q 1077 358 1117 464 q 962 171 1038 253 q 779 42 886 89 q 538 -6 672 -6 m 542 38 q 760 81 663 38 q 926 199 857 124 q 1032 372 994 274 q 1069 581 1069 471 q 1025 765 1069 686 q 892 890 981 844 q 672 935 803 935 q 453 892 551 935 q 287 774 356 849 q 181 600 218 699 q 143 392 143 501 q 188 208 143 288 q 322 83 233 128 q 542 38 410 38 m 40 -97 l 1122 1069 l 1169 1069 l 88 -97 l 40 -97 z "},"ǿ":{"ha":853,"x_min":4,"x_max":844,"o":"m 378 -4 q 213 32 283 -4 q 103 135 142 68 q 65 292 65 201 q 118 515 65 417 q 263 669 171 613 q 475 726 356 726 q 642 690 572 726 q 749 588 711 654 q 788 429 788 521 q 735 207 788 306 q 590 52 682 108 q 378 -4 497 -4 m 383 38 q 568 88 488 38 q 695 227 649 139 q 742 428 742 315 q 670 617 742 550 q 471 683 599 683 q 287 633 368 683 q 158 494 206 582 q 111 293 111 406 q 183 105 111 172 q 383 38 254 38 m 4 -96 l 801 819 l 844 819 l 47 -96 l 4 -96 m 451 843 l 661 1000 l 740 1000 l 510 843 l 451 843 z "},"Ȁ":{"ha":967,"x_min":-62,"x_max":883,"o":"m -62 0 l 582 972 l 628 972 l 883 0 l 836 0 l 592 940 l 611 940 l -10 0 l -62 0 m 150 285 l 176 325 l 771 325 l 781 285 l 150 285 z "},"ȁ":{"ha":935,"x_min":65,"x_max":853,"o":"m 375 -4 q 212 31 282 -4 q 103 133 142 67 q 65 292 65 200 q 95 464 65 385 q 180 602 125 543 q 309 694 235 661 q 474 726 383 726 q 635 692 568 726 q 738 592 703 657 q 774 438 774 528 q 724 211 775 311 q 584 53 674 111 q 375 -4 494 -4 m 383 38 q 568 88 488 38 q 695 227 649 139 q 742 428 742 315 q 670 617 742 550 q 471 683 599 683 q 287 633 368 683 q 158 494 206 582 q 111 293 111 406 q 183 105 111 172 q 383 38 254 38 m 664 0 l 713 240 l 750 350 l 757 468 l 807 721 l 853 721 l 710 0 l 664 0 m 617 843 l 486 1000 l 549 1000 l 665 843 l 617 843 m 415 843 l 285 1000 l 346 1000 l 464 843 l 415 843 z "},"Ȃ":{"ha":967,"x_min":-62,"x_max":883,"o":"m -62 0 l 582 972 l 628 972 l 883 0 l 836 0 l 592 940 l 611 940 l -10 0 l -62 0 m 150 285 l 176 325 l 771 325 l 781 285 l 150 285 z "},"ȃ":{"ha":935,"x_min":65,"x_max":853,"o":"m 375 -4 q 212 31 282 -4 q 103 133 142 67 q 65 292 65 200 q 95 464 65 385 q 180 602 125 543 q 309 694 235 661 q 474 726 383 726 q 635 692 568 726 q 738 592 703 657 q 774 438 774 528 q 724 211 775 311 q 584 53 674 111 q 375 -4 494 -4 m 383 38 q 568 88 488 38 q 695 227 649 139 q 742 428 742 315 q 670 617 742 550 q 471 683 599 683 q 287 633 368 683 q 158 494 206 582 q 111 293 111 406 q 183 105 111 172 q 383 38 254 38 m 664 0 l 713 240 l 750 350 l 757 468 l 807 721 l 853 721 l 710 0 l 664 0 m 350 843 q 419 963 361 919 q 556 1006 476 1006 q 648 985 607 1006 q 712 929 689 965 q 731 843 735 893 l 693 843 q 658 937 697 903 q 553 971 618 971 q 444 937 492 971 q 388 843 396 903 l 350 843 z "},"Ȅ":{"ha":928,"x_min":106,"x_max":936,"o":"m 247 515 l 783 515 l 775 472 l 239 472 l 247 515 m 161 43 l 772 43 l 763 0 l 106 0 l 300 972 l 936 972 l 928 929 l 338 929 l 161 43 z "},"ȅ":{"ha":824,"x_min":67,"x_max":754,"o":"m 389 -4 q 216 31 289 -4 q 105 133 143 67 q 67 294 67 200 q 117 515 67 418 q 256 669 168 613 q 456 726 344 726 q 615 691 549 726 q 718 589 682 656 q 754 429 754 522 q 752 390 754 410 q 747 354 750 371 l 101 354 l 110 393 l 726 393 l 707 374 q 694 544 724 475 q 603 649 665 613 q 454 685 540 685 q 278 634 356 685 q 156 496 200 583 q 111 296 111 408 q 183 104 111 171 q 393 38 256 38 q 539 65 472 38 q 649 140 606 92 l 671 108 q 551 26 626 57 q 389 -4 476 -4 m 575 843 l 444 1000 l 507 1000 l 624 843 l 575 843 m 374 843 l 243 1000 l 304 1000 l 422 843 l 374 843 z "},"Ȇ":{"ha":928,"x_min":106,"x_max":936,"o":"m 247 515 l 783 515 l 775 472 l 239 472 l 247 515 m 161 43 l 772 43 l 763 0 l 106 0 l 300 972 l 936 972 l 928 929 l 338 929 l 161 43 z "},"ȇ":{"ha":824,"x_min":67,"x_max":754,"o":"m 389 -4 q 216 31 289 -4 q 105 133 143 67 q 67 294 67 200 q 117 515 67 418 q 256 669 168 613 q 456 726 344 726 q 615 691 549 726 q 718 589 682 656 q 754 429 754 522 q 752 390 754 410 q 747 354 750 371 l 101 354 l 110 393 l 726 393 l 707 374 q 694 544 724 475 q 603 649 665 613 q 454 685 540 685 q 278 634 356 685 q 156 496 200 583 q 111 296 111 408 q 183 104 111 171 q 393 38 256 38 q 539 65 472 38 q 649 140 606 92 l 671 108 q 551 26 626 57 q 389 -4 476 -4 m 308 843 q 377 963 319 919 q 514 1006 435 1006 q 606 985 565 1006 q 670 929 647 965 q 689 843 693 893 l 651 843 q 616 937 656 903 q 511 971 576 971 q 402 937 450 971 q 346 843 354 903 l 308 843 z "},"Ȉ":{"ha":403,"x_min":83,"x_max":464,"o":"m 106 0 l 300 972 l 347 972 l 153 0 l 106 0 z "},"ȉ":{"ha":354,"x_min":17,"x_max":397,"o":"m 82 0 l 225 721 l 271 721 l 128 0 l 82 0 m 349 843 l 218 1000 l 281 1000 l 397 843 l 349 843 m 147 843 l 17 1000 l 78 1000 l 196 843 l 147 843 z "},"Ȋ":{"ha":403,"x_min":106,"x_max":533,"o":"m 106 0 l 300 972 l 347 972 l 153 0 l 106 0 z "},"ȋ":{"ha":354,"x_min":82,"x_max":435,"o":"m 82 0 l 225 721 l 271 721 l 128 0 l 82 0 m 117 843 q 169 964 125 922 q 288 1006 214 1006 q 369 985 336 1006 q 419 928 403 965 q 428 843 435 892 l 393 843 q 372 938 400 904 q 288 971 343 971 q 154 843 169 971 l 117 843 z "},"Ȍ":{"ha":1163,"x_min":96,"x_max":1117,"o":"m 538 -6 q 297 44 394 -6 q 147 184 199 94 q 96 390 96 274 q 136 614 96 508 q 251 801 176 719 q 434 931 326 883 q 676 978 542 978 q 917 928 818 978 q 1066 789 1015 878 q 1117 582 1117 700 q 1077 358 1117 464 q 962 171 1038 253 q 779 42 886 89 q 538 -6 672 -6 m 542 38 q 760 81 663 38 q 926 199 857 124 q 1032 372 994 274 q 1069 581 1069 471 q 1025 765 1069 686 q 892 890 981 844 q 672 935 803 935 q 453 892 551 935 q 287 774 356 849 q 181 600 218 699 q 143 392 143 501 q 188 208 143 288 q 322 83 233 128 q 542 38 410 38 z "},"ȍ":{"ha":853,"x_min":65,"x_max":788,"o":"m 378 -4 q 213 32 283 -4 q 103 135 142 68 q 65 292 65 201 q 118 515 65 417 q 263 669 171 613 q 475 726 356 726 q 642 690 572 726 q 749 588 711 654 q 788 429 788 521 q 735 207 788 306 q 590 52 682 108 q 378 -4 497 -4 m 383 38 q 568 88 488 38 q 695 227 649 139 q 742 428 742 315 q 670 617 742 550 q 471 683 599 683 q 287 633 368 683 q 158 494 206 582 q 111 293 111 406 q 183 105 111 172 q 383 38 254 38 m 599 843 l 468 1000 l 531 1000 l 647 843 l 599 843 m 397 843 l 267 1000 l 328 1000 l 446 843 l 397 843 z "},"Ȏ":{"ha":1163,"x_min":96,"x_max":1117,"o":"m 538 -6 q 297 44 394 -6 q 147 184 199 94 q 96 390 96 274 q 136 614 96 508 q 251 801 176 719 q 434 931 326 883 q 676 978 542 978 q 917 928 818 978 q 1066 789 1015 878 q 1117 582 1117 700 q 1077 358 1117 464 q 962 171 1038 253 q 779 42 886 89 q 538 -6 672 -6 m 542 38 q 760 81 663 38 q 926 199 857 124 q 1032 372 994 274 q 1069 581 1069 471 q 1025 765 1069 686 q 892 890 981 844 q 672 935 803 935 q 453 892 551 935 q 287 774 356 849 q 181 600 218 699 q 143 392 143 501 q 188 208 143 288 q 322 83 233 128 q 542 38 410 38 z "},"ȏ":{"ha":853,"x_min":65,"x_max":788,"o":"m 378 -4 q 213 32 283 -4 q 103 135 142 68 q 65 292 65 201 q 118 515 65 417 q 263 669 171 613 q 475 726 356 726 q 642 690 572 726 q 749 588 711 654 q 788 429 788 521 q 735 207 788 306 q 590 52 682 108 q 378 -4 497 -4 m 383 38 q 568 88 488 38 q 695 227 649 139 q 742 428 742 315 q 670 617 742 550 q 471 683 599 683 q 287 633 368 683 q 158 494 206 582 q 111 293 111 406 q 183 105 111 172 q 383 38 254 38 m 332 843 q 401 963 343 919 q 538 1006 458 1006 q 630 985 589 1006 q 694 929 671 965 q 713 843 717 893 l 675 843 q 640 937 679 903 q 535 971 600 971 q 426 937 474 971 q 369 843 378 903 l 332 843 z "},"Ȑ":{"ha":997,"x_min":106,"x_max":964,"o":"m 106 0 l 300 972 l 633 972 q 877 903 790 972 q 964 710 964 835 q 910 499 964 585 q 756 371 856 414 q 521 328 657 328 l 197 328 l 222 349 l 153 0 l 106 0 m 792 0 l 592 353 l 644 353 l 843 0 l 792 0 m 222 349 l 206 369 l 519 369 q 813 454 708 369 q 917 707 917 539 q 843 872 917 814 q 632 929 769 929 l 318 929 l 343 951 l 222 349 z "},"ȑ":{"ha":539,"x_min":82,"x_max":551,"o":"m 82 0 l 225 721 l 271 721 l 226 500 l 218 515 q 345 672 264 617 q 551 726 426 726 l 543 681 q 535 681 539 681 q 526 681 531 681 q 316 603 399 681 q 203 374 233 526 l 128 0 l 82 0 m 489 843 l 358 1000 l 421 1000 l 538 843 l 489 843 m 288 843 l 157 1000 l 218 1000 l 336 843 l 288 843 z "},"Ȓ":{"ha":997,"x_min":106,"x_max":964,"o":"m 106 0 l 300 972 l 633 972 q 877 903 790 972 q 964 710 964 835 q 910 499 964 585 q 756 371 856 414 q 521 328 657 328 l 197 328 l 222 349 l 153 0 l 106 0 m 792 0 l 592 353 l 644 353 l 843 0 l 792 0 m 222 349 l 206 369 l 519 369 q 813 454 708 369 q 917 707 917 539 q 843 872 917 814 q 632 929 769 929 l 318 929 l 343 951 l 222 349 z "},"ȓ":{"ha":539,"x_min":82,"x_max":607,"o":"m 82 0 l 225 721 l 271 721 l 226 500 l 218 515 q 345 672 264 617 q 551 726 426 726 l 543 681 q 535 681 539 681 q 526 681 531 681 q 316 603 399 681 q 203 374 233 526 l 128 0 l 82 0 m 222 843 q 291 963 233 919 q 428 1006 349 1006 q 520 985 479 1006 q 584 929 561 965 q 603 843 607 893 l 565 843 q 530 937 569 903 q 425 971 490 971 q 316 937 364 971 q 260 843 268 903 l 222 843 z "},"Ȕ":{"ha":1101,"x_min":156,"x_max":1054,"o":"m 493 -6 q 285 51 363 -6 q 182 200 208 107 q 179 407 156 293 l 292 972 l 339 972 l 225 406 q 216 267 210 333 q 254 149 222 201 q 347 67 286 97 q 500 38 407 38 q 694 80 615 38 q 821 201 772 122 q 890 388 869 281 l 1008 972 l 1054 972 l 938 385 q 792 98 901 201 q 493 -6 682 -6 z "},"ȕ":{"ha":925,"x_min":117,"x_max":843,"o":"m 376 -4 q 219 34 279 -4 q 138 140 160 72 q 135 300 117 208 l 218 721 l 264 721 l 181 299 q 208 108 156 178 q 386 38 260 38 q 603 110 517 38 q 718 324 690 183 l 797 721 l 843 721 l 700 0 l 656 0 l 697 208 l 713 204 q 574 46 661 96 q 376 -4 488 -4 m 632 843 l 501 1000 l 564 1000 l 681 843 l 632 843 m 431 843 l 300 1000 l 361 1000 l 479 843 l 431 843 z "},"Ȗ":{"ha":1101,"x_min":156,"x_max":1054,"o":"m 493 -6 q 285 51 363 -6 q 182 200 208 107 q 179 407 156 293 l 292 972 l 339 972 l 225 406 q 216 267 210 333 q 254 149 222 201 q 347 67 286 97 q 500 38 407 38 q 694 80 615 38 q 821 201 772 122 q 890 388 869 281 l 1008 972 l 1054 972 l 938 385 q 792 98 901 201 q 493 -6 682 -6 z "},"ȗ":{"ha":925,"x_min":117,"x_max":843,"o":"m 376 -4 q 219 34 279 -4 q 138 140 160 72 q 135 300 117 208 l 218 721 l 264 721 l 181 299 q 208 108 156 178 q 386 38 260 38 q 603 110 517 38 q 718 324 690 183 l 797 721 l 843 721 l 700 0 l 656 0 l 697 208 l 713 204 q 574 46 661 96 q 376 -4 488 -4 m 365 843 q 434 963 376 919 q 571 1006 492 1006 q 663 985 622 1006 q 727 929 704 965 q 746 843 750 893 l 708 843 q 673 937 713 903 q 568 971 633 971 q 459 937 507 971 q 403 843 411 903 l 365 843 z "},"Ș":{"ha":839,"x_min":32,"x_max":828,"o":"m 367 -6 q 231 13 297 -6 q 112 60 164 31 q 32 128 60 90 l 60 161 q 138 98 89 126 q 247 53 186 69 q 369 36 307 36 q 539 63 465 36 q 653 143 613 90 q 694 269 694 196 q 666 359 694 325 q 592 415 638 393 q 490 451 546 436 q 380 483 435 465 q 279 526 325 501 q 205 592 233 551 q 176 696 176 632 q 224 849 176 786 q 355 945 272 913 q 542 978 438 978 q 699 956 622 978 q 828 892 775 933 l 803 853 q 684 915 751 893 q 540 936 617 936 q 375 908 447 936 q 263 828 303 881 q 221 700 222 775 q 249 611 221 646 q 324 554 278 576 q 426 516 369 532 q 537 483 482 500 q 638 441 592 467 q 713 376 685 415 q 740 275 740 338 q 691 120 740 182 q 557 26 642 58 q 367 -6 472 -6 m 265 -361 l 325 -225 l 328 -247 q 298 -235 310 -247 q 286 -207 286 -222 q 298 -177 286 -189 q 328 -165 310 -165 q 358 -176 347 -165 q 369 -206 369 -187 q 367 -227 369 -217 q 354 -251 364 -237 l 297 -361 l 265 -361 z "},"ș":{"ha":653,"x_min":-7,"x_max":624,"o":"m 267 -4 q 108 22 183 -4 q -7 89 33 49 l 21 125 q 129 60 63 85 q 269 36 196 36 q 456 81 389 36 q 522 203 522 125 q 492 279 522 253 q 414 319 463 306 q 311 342 365 332 q 208 369 257 353 q 130 419 160 386 q 100 514 100 453 q 136 626 100 578 q 238 700 172 674 q 392 726 304 726 q 522 707 458 726 q 624 653 586 688 l 599 618 q 503 668 558 651 q 388 685 447 685 q 211 639 276 685 q 146 517 146 593 q 176 440 146 467 q 254 399 206 413 q 357 376 303 386 q 460 349 411 365 q 538 299 508 332 q 568 207 568 267 q 531 93 568 140 q 426 21 494 46 q 267 -4 358 -4 m 150 -361 l 210 -225 l 213 -247 q 183 -235 194 -247 q 171 -207 171 -222 q 183 -177 171 -189 q 213 -165 194 -165 q 243 -176 232 -165 q 254 -206 254 -187 q 251 -227 254 -217 q 239 -251 249 -237 l 182 -361 l 150 -361 z "},"Ț":{"ha":771,"x_min":119,"x_max":888,"o":"m 289 0 l 475 929 l 119 929 l 128 972 l 888 972 l 878 929 l 522 929 l 336 0 l 289 0 m 208 -361 l 268 -225 l 271 -247 q 241 -235 253 -247 q 229 -207 229 -222 q 241 -177 229 -189 q 271 -165 253 -165 q 301 -176 290 -165 q 313 -206 313 -187 q 310 -227 313 -217 q 297 -251 307 -237 l 240 -361 l 208 -361 z "},"ț":{"ha":544,"x_min":94,"x_max":521,"o":"m 283 -4 q 186 19 224 -4 q 135 88 149 43 q 133 194 121 132 l 269 879 l 315 879 l 181 200 q 192 77 164 118 q 292 36 219 36 q 358 47 326 36 q 414 79 389 58 l 432 46 q 361 8 401 19 q 283 -4 321 -4 m 94 681 l 101 721 l 521 721 l 514 681 l 94 681 m 161 -361 l 221 -225 l 224 -247 q 194 -235 206 -247 q 182 -207 182 -222 q 194 -177 182 -189 q 224 -165 206 -165 q 254 -176 243 -165 q 265 -206 265 -187 q 263 -227 265 -217 q 250 -251 260 -237 l 193 -361 l 161 -361 z "},"Ȟ":{"ha":1132,"x_min":106,"x_max":1076,"o":"m 1029 972 l 1076 972 l 882 0 l 835 0 l 1029 972 m 153 0 l 106 0 l 300 972 l 347 972 l 153 0 m 938 472 l 239 472 l 247 515 l 946 515 l 938 472 z "},"ȟ":{"ha":931,"x_min":82,"x_max":815,"o":"m 551 726 q 711 688 650 726 q 794 581 772 649 q 797 422 815 513 l 713 0 l 667 0 l 751 422 q 723 613 775 543 q 542 683 671 683 q 323 611 411 683 q 207 397 235 539 l 128 0 l 82 0 l 288 1031 l 333 1031 l 229 513 l 213 517 q 351 676 264 626 q 551 726 439 726 m 318 1153 l 164 1310 l 213 1310 l 363 1174 l 336 1174 l 513 1310 l 567 1310 l 376 1153 l 318 1153 z "},"Ȫ":{"ha":1163,"x_min":96,"x_max":1117,"o":"m 538 -6 q 297 44 394 -6 q 147 184 199 94 q 96 390 96 274 q 136 614 96 508 q 251 801 176 719 q 434 931 326 883 q 676 978 542 978 q 917 928 818 978 q 1066 789 1015 878 q 1117 582 1117 700 q 1077 358 1117 464 q 962 171 1038 253 q 779 42 886 89 q 538 -6 672 -6 m 542 38 q 760 81 663 38 q 926 199 857 124 q 1032 372 994 274 q 1069 581 1069 471 q 1025 765 1069 686 q 892 890 981 844 q 672 935 803 935 q 453 892 551 935 q 287 774 356 849 q 181 600 218 699 q 143 392 143 501 q 188 208 143 288 q 322 83 233 128 q 542 38 410 38 z "},"ȫ":{"ha":853,"x_min":65,"x_max":788,"o":"m 378 -4 q 213 32 283 -4 q 103 135 142 68 q 65 292 65 201 q 118 515 65 417 q 263 669 171 613 q 475 726 356 726 q 642 690 572 726 q 749 588 711 654 q 788 429 788 521 q 735 207 788 306 q 590 52 682 108 q 378 -4 497 -4 m 383 38 q 568 88 488 38 q 695 227 649 139 q 742 428 742 315 q 670 617 742 550 q 471 683 599 683 q 287 633 368 683 q 158 494 206 582 q 111 293 111 406 q 183 105 111 172 q 383 38 254 38 z "},"Ȭ":{"ha":1163,"x_min":96,"x_max":1117,"o":"m 538 -6 q 297 44 394 -6 q 147 184 199 94 q 96 390 96 274 q 136 614 96 508 q 251 801 176 719 q 434 931 326 883 q 676 978 542 978 q 917 928 818 978 q 1066 789 1015 878 q 1117 582 1117 700 q 1077 358 1117 464 q 962 171 1038 253 q 779 42 886 89 q 538 -6 672 -6 m 542 38 q 760 81 663 38 q 926 199 857 124 q 1032 372 994 274 q 1069 581 1069 471 q 1025 765 1069 686 q 892 890 981 844 q 672 935 803 935 q 453 892 551 935 q 287 774 356 849 q 181 600 218 699 q 143 392 143 501 q 188 208 143 288 q 322 83 233 128 q 542 38 410 38 z "},"ȭ":{"ha":853,"x_min":65,"x_max":788,"o":"m 378 -4 q 213 32 283 -4 q 103 135 142 68 q 65 292 65 201 q 118 515 65 417 q 263 669 171 613 q 475 726 356 726 q 642 690 572 726 q 749 588 711 654 q 788 429 788 521 q 735 207 788 306 q 590 52 682 108 q 378 -4 497 -4 m 383 38 q 568 88 488 38 q 695 227 649 139 q 742 428 742 315 q 670 617 742 550 q 471 683 599 683 q 287 633 368 683 q 158 494 206 582 q 111 293 111 406 q 183 105 111 172 q 383 38 254 38 z "},"Ȱ":{"ha":1163,"x_min":96,"x_max":1117,"o":"m 538 -6 q 297 44 394 -6 q 147 184 199 94 q 96 390 96 274 q 136 614 96 508 q 251 801 176 719 q 434 931 326 883 q 676 978 542 978 q 917 928 818 978 q 1066 789 1015 878 q 1117 582 1117 700 q 1077 358 1117 464 q 962 171 1038 253 q 779 42 886 89 q 538 -6 672 -6 m 542 38 q 760 81 663 38 q 926 199 857 124 q 1032 372 994 274 q 1069 581 1069 471 q 1025 765 1069 686 q 892 890 981 844 q 672 935 803 935 q 453 892 551 935 q 287 774 356 849 q 181 600 218 699 q 143 392 143 501 q 188 208 143 288 q 322 83 233 128 q 542 38 410 38 z "},"ȱ":{"ha":853,"x_min":65,"x_max":788,"o":"m 378 -4 q 213 32 283 -4 q 103 135 142 68 q 65 292 65 201 q 118 515 65 417 q 263 669 171 613 q 475 726 356 726 q 642 690 572 726 q 749 588 711 654 q 788 429 788 521 q 735 207 788 306 q 590 52 682 108 q 378 -4 497 -4 m 383 38 q 568 88 488 38 q 695 227 649 139 q 742 428 742 315 q 670 617 742 550 q 471 683 599 683 q 287 633 368 683 q 158 494 206 582 q 111 293 111 406 q 183 105 111 172 q 383 38 254 38 z "},"Ȳ":{"ha":856,"x_min":133,"x_max":968,"o":"m 332 0 l 401 346 l 407 314 l 133 972 l 182 972 l 436 358 l 414 357 l 914 972 l 968 972 l 431 311 l 449 346 l 379 0 l 332 0 z "},"ȳ":{"ha":718,"x_min":-153,"x_max":783,"o":"m 4 -274 q -86 -257 -43 -274 q -153 -210 -129 -240 l -122 -176 q -66 -219 -99 -206 q 10 -233 -33 -233 q 101 -206 58 -233 q 194 -103 144 -178 l 272 17 l 282 28 l 733 721 l 783 721 l 235 -118 q 159 -212 194 -178 q 86 -260 124 -246 q 4 -274 49 -274 m 269 -17 l 79 721 l 126 721 l 303 31 l 269 -17 m 251 903 l 258 940 l 649 940 l 642 903 l 251 903 z "},"ȷ":{"ha":361,"x_min":-236,"x_max":278,"o":"m -94 -274 q -174 -261 -137 -274 q -236 -225 -211 -249 l -210 -190 q -92 -233 -162 -233 q 15 -197 -25 -233 q 72 -78 56 -160 l 232 721 l 278 721 l 117 -85 q -94 -274 81 -274 z "},"ə":{"ha":824,"x_min":68,"x_max":757,"o":"m 433 726 q 608 690 536 726 q 718 588 679 654 q 757 426 757 521 q 706 206 757 304 q 568 52 656 108 q 368 -4 481 -4 q 209 31 276 -4 q 105 133 142 65 q 68 292 68 200 q 71 331 68 313 q 76 367 74 350 l 722 367 l 714 329 l 97 329 l 115 347 q 129 178 100 247 q 222 72 158 108 q 369 36 285 36 q 546 87 468 36 q 668 226 624 138 q 713 425 713 314 q 640 617 713 550 q 431 683 568 683 q 286 656 353 683 q 175 581 219 629 l 151 613 q 273 696 199 665 q 433 726 347 726 z "},"ʒ":{"ha":686,"x_min":-133,"x_max":667,"o":"m 185 -276 q 13 -244 97 -276 q -133 -140 -71 -212 l -106 -106 q 29 -202 -49 -172 q 188 -232 107 -232 q 351 -201 275 -232 q 472 -108 426 -169 q 518 40 518 -47 q 454 190 518 138 q 253 243 390 243 l 207 243 l 214 275 l 611 694 l 617 679 l 63 679 l 71 721 l 667 721 l 661 688 l 260 267 l 247 282 l 258 282 q 488 219 410 282 q 565 39 565 156 q 535 -96 565 -37 q 451 -194 504 -154 q 328 -256 397 -235 q 185 -276 260 -276 z "},"ʹ":{"ha":261,"x_min":164,"x_max":275,"o":"m 164 621 l 231 972 l 275 972 l 201 621 l 164 621 z "},"ʺ":{"ha":478,"x_min":164,"x_max":490,"o":"m 379 621 l 446 972 l 490 972 l 417 621 l 379 621 m 164 621 l 231 972 l 275 972 l 201 621 l 164 621 z "},"ʻ":{"ha":357,"x_min":213,"x_max":354,"o":"m 354 1122 l 263 904 l 258 931 q 291 917 278 931 q 304 886 304 904 q 290 853 304 867 q 257 839 276 839 q 226 852 239 839 q 213 883 213 865 q 217 907 213 896 q 228 932 221 918 l 318 1122 l 354 1122 z "},"ʼ":{"ha":276,"x_min":168,"x_max":310,"o":"m 168 751 l 260 971 l 264 943 q 232 957 246 943 q 218 989 218 971 q 233 1022 218 1008 q 265 1035 247 1035 q 297 1022 285 1035 q 310 990 310 1010 q 306 967 310 978 q 294 942 301 956 l 204 751 l 168 751 z "},"ʾ":{"ha":833,"x_min":511,"x_max":669,"o":"m 517 865 q 526 864 522 864 q 536 864 531 864 q 608 893 581 864 q 635 964 635 922 q 614 1026 635 1000 q 557 1060 593 1053 l 563 1090 q 640 1047 611 1082 q 669 964 669 1011 q 652 899 669 929 q 605 850 635 868 q 536 832 575 832 q 524 832 531 832 q 511 833 518 832 l 517 865 z "},"ʿ":{"ha":833,"x_min":404,"x_max":563,"o":"m 556 1057 q 546 1058 550 1058 q 536 1058 542 1058 q 466 1029 494 1058 q 438 958 438 1000 q 459 896 438 922 q 515 863 481 869 l 511 832 q 433 876 463 840 q 404 958 404 911 q 422 1024 404 993 q 469 1072 439 1054 q 536 1090 499 1090 q 549 1090 543 1090 q 563 1089 556 1090 l 556 1057 z "},"ˆ":{"ha":833,"x_min":311,"x_max":714,"o":"m 311 843 l 501 1000 l 560 1000 l 714 843 l 665 843 l 515 979 l 542 979 l 365 843 l 311 843 z "},"ˇ":{"ha":833,"x_min":342,"x_max":744,"o":"m 496 843 l 342 1000 l 390 1000 l 540 864 l 514 864 l 690 1000 l 744 1000 l 554 843 l 496 843 z "},"ˈ":{"ha":218,"x_min":161,"x_max":250,"o":"m 161 718 l 211 971 l 250 971 l 200 718 l 161 718 z "},"ˉ":{"ha":833,"x_min":331,"x_max":728,"o":"m 331 903 l 338 940 l 728 940 l 721 903 l 331 903 z "},"ˊ":{"ha":833,"x_min":442,"x_max":731,"o":"m 442 843 l 651 1000 l 731 1000 l 500 843 l 442 843 z "},"ˋ":{"ha":833,"x_min":344,"x_max":582,"o":"m 526 843 l 344 1000 l 419 1000 l 582 843 l 526 843 z "},"ˌ":{"ha":218,"x_min":-42,"x_max":47,"o":"m -42 -294 l 8 -42 l 47 -42 l -3 -294 l -42 -294 z "},"˘":{"ha":833,"x_min":347,"x_max":733,"o":"m 528 839 q 434 858 475 839 q 370 915 393 878 q 351 1000 347 951 l 389 1000 q 425 908 385 942 q 529 874 465 874 q 640 908 592 874 q 696 1000 688 942 l 733 1000 q 664 883 722 926 q 528 839 606 839 z "},"˙":{"ha":833,"x_min":486,"x_max":574,"o":"m 528 886 q 499 898 511 886 q 486 926 486 910 q 499 960 486 946 q 532 975 513 975 q 561 963 549 975 q 574 935 574 951 q 560 901 574 915 q 528 886 547 886 z "},"˚":{"ha":833,"x_min":404,"x_max":669,"o":"m 536 829 q 468 847 497 829 q 422 894 439 864 q 404 958 404 924 q 422 1024 404 993 q 469 1072 439 1054 q 536 1090 499 1090 q 605 1072 575 1090 q 652 1024 635 1054 q 669 958 669 993 q 652 894 669 924 q 605 847 635 864 q 536 829 575 829 m 536 860 q 608 889 581 860 q 636 958 636 918 q 608 1028 636 999 q 536 1058 581 1058 q 466 1029 494 1058 q 438 958 438 1000 q 465 888 438 917 q 536 860 493 860 z "},"˛":{"ha":833,"x_min":93,"x_max":346,"o":"m 206 -299 q 124 -272 156 -299 q 93 -199 93 -244 q 117 -117 93 -156 q 194 -42 142 -78 q 328 26 246 -6 l 346 0 q 227 -59 275 -28 q 156 -124 179 -90 q 133 -193 133 -157 q 153 -245 133 -226 q 211 -264 174 -264 q 262 -255 236 -264 q 308 -231 288 -246 l 321 -261 q 267 -289 296 -279 q 206 -299 238 -299 z "},"˜":{"ha":833,"x_min":322,"x_max":735,"o":"m 617 857 q 563 872 585 857 q 521 905 540 886 q 483 938 501 924 q 440 953 464 953 q 386 928 408 953 q 357 861 364 903 l 322 861 q 363 954 331 919 q 442 989 396 989 q 494 974 472 989 q 535 941 517 960 q 573 908 554 922 q 617 893 592 893 q 672 918 649 893 q 700 982 694 943 l 735 982 q 694 892 725 926 q 617 857 664 857 z "},"˝":{"ha":833,"x_min":385,"x_max":819,"o":"m 586 843 l 753 1000 l 819 1000 l 640 843 l 586 843 m 385 843 l 551 1000 l 618 1000 l 439 843 l 385 843 z "},"̀":{"ha":0,"x_min":344,"x_max":582,"o":"m 526 843 l 344 1000 l 419 1000 l 582 843 l 526 843 z "},"́":{"ha":0,"x_min":442,"x_max":731,"o":"m 442 843 l 651 1000 l 731 1000 l 500 843 l 442 843 z "},"̂":{"ha":0,"x_min":311,"x_max":714,"o":"m 311 843 l 501 1000 l 560 1000 l 714 843 l 665 843 l 515 979 l 542 979 l 365 843 l 311 843 z "},"̃":{"ha":0,"x_min":322,"x_max":735,"o":"m 617 857 q 563 872 585 857 q 521 905 540 886 q 483 938 501 924 q 440 953 464 953 q 386 928 408 953 q 357 861 364 903 l 322 861 q 363 954 331 919 q 442 989 396 989 q 494 974 472 989 q 535 941 517 960 q 573 908 554 922 q 617 893 592 893 q 672 918 649 893 q 700 982 694 943 l 735 982 q 694 892 725 926 q 617 857 664 857 z "},"̄":{"ha":0,"x_min":329,"x_max":726,"o":"m 329 903 l 336 940 l 726 940 l 719 903 l 329 903 z "},"̆":{"ha":0,"x_min":347,"x_max":733,"o":"m 528 839 q 434 858 475 839 q 370 915 393 878 q 351 1000 347 951 l 389 1000 q 425 908 385 942 q 529 874 465 874 q 640 908 592 874 q 696 1000 688 942 l 733 1000 q 664 883 722 926 q 528 839 606 839 z "},"̇":{"ha":0,"x_min":486,"x_max":574,"o":"m 528 886 q 499 898 511 886 q 486 926 486 910 q 499 960 486 946 q 532 975 513 975 q 561 963 549 975 q 574 935 574 951 q 560 901 574 915 q 528 886 547 886 z "},"̈":{"ha":0,"x_min":371,"x_max":688,"o":"m 644 886 q 616 897 628 886 q 604 925 604 908 q 617 957 604 943 q 647 971 629 971 q 676 960 664 971 q 688 932 688 949 q 674 900 688 914 q 644 886 661 886 m 411 886 q 383 897 394 886 q 371 925 371 908 q 384 957 371 943 q 415 971 397 971 q 443 960 431 971 q 456 932 456 949 q 442 900 456 914 q 411 886 429 886 z "},"̉":{"ha":0,"x_min":438,"x_max":649,"o":"m 528 836 l 513 864 q 584 911 558 883 q 610 976 610 939 q 590 1024 610 1007 q 536 1042 569 1042 q 450 1015 494 1042 l 438 1044 q 488 1069 460 1061 q 542 1076 515 1076 q 619 1051 590 1076 q 649 983 649 1026 q 620 900 649 936 q 528 836 592 864 z "},"̊":{"ha":0,"x_min":404,"x_max":669,"o":"m 536 829 q 468 847 497 829 q 422 894 439 864 q 404 958 404 924 q 422 1024 404 993 q 469 1072 439 1054 q 536 1090 499 1090 q 605 1072 575 1090 q 652 1024 635 1054 q 669 958 669 993 q 652 894 669 924 q 605 847 635 864 q 536 829 575 829 m 536 860 q 608 889 581 860 q 636 958 636 918 q 608 1028 636 999 q 536 1058 581 1058 q 466 1029 494 1058 q 438 958 438 1000 q 465 888 438 917 q 536 860 493 860 z "},"̋":{"ha":0,"x_min":385,"x_max":819,"o":"m 586 843 l 753 1000 l 819 1000 l 640 843 l 586 843 m 385 843 l 551 1000 l 618 1000 l 439 843 l 385 843 z "},"̌":{"ha":0,"x_min":342,"x_max":744,"o":"m 496 843 l 342 1000 l 390 1000 l 540 864 l 514 864 l 690 1000 l 744 1000 l 554 843 l 496 843 z "},"̏":{"ha":0,"x_min":257,"x_max":638,"o":"m 589 843 l 458 1000 l 521 1000 l 638 843 l 589 843 m 388 843 l 257 1000 l 318 1000 l 436 843 l 388 843 z "},"̑":{"ha":0,"x_min":322,"x_max":707,"o":"m 322 843 q 391 963 333 919 q 528 1006 449 1006 q 620 985 579 1006 q 684 929 661 965 q 703 843 707 893 l 665 843 q 630 937 669 903 q 525 971 590 971 q 416 937 464 971 q 360 843 368 903 l 322 843 z "},"̒":{"ha":0,"x_min":478,"x_max":597,"o":"m 522 839 q 490 851 501 839 q 478 878 478 863 q 482 901 478 890 q 494 925 486 911 l 564 1061 l 597 1061 l 525 899 l 522 919 q 552 908 540 919 q 564 881 564 897 q 553 851 564 864 q 522 839 542 839 z "},"̛":{"ha":0,"x_min":472,"x_max":624,"o":"m 472 682 l 472 721 l 488 721 q 562 749 540 721 q 583 817 583 778 q 575 867 583 844 q 556 910 567 890 l 592 924 q 615 875 606 903 q 624 818 624 847 q 609 750 624 781 q 565 701 594 719 q 488 682 536 682 l 472 682 z "},"̣":{"ha":0,"x_min":258,"x_max":347,"o":"m 296 -249 q 269 -237 279 -249 q 261 -208 258 -225 q 278 -178 263 -190 q 310 -165 293 -165 q 338 -177 328 -165 q 344 -206 347 -189 q 328 -236 343 -224 q 296 -249 314 -249 z "},"̤":{"ha":0,"x_min":154,"x_max":451,"o":"m 408 -249 q 380 -237 392 -249 q 368 -210 368 -226 q 381 -178 368 -192 q 411 -165 394 -165 q 440 -176 428 -165 q 451 -203 451 -187 q 439 -235 451 -222 q 408 -249 426 -249 m 194 -249 q 166 -237 178 -249 q 154 -210 154 -226 q 167 -178 154 -192 q 197 -165 181 -165 q 226 -176 214 -165 q 238 -203 238 -187 q 225 -235 238 -222 q 194 -249 213 -249 z "},"̦":{"ha":0,"x_min":240,"x_max":344,"o":"m 240 -361 l 300 -225 l 303 -247 q 273 -235 285 -247 q 261 -207 261 -222 q 273 -177 261 -189 q 303 -165 285 -165 q 333 -176 322 -165 q 344 -206 344 -187 q 342 -227 344 -217 q 329 -251 339 -237 l 272 -361 l 240 -361 z "},"̧":{"ha":0,"x_min":163,"x_max":419,"o":"m 272 -299 q 213 -290 242 -299 q 163 -262 183 -281 l 185 -233 q 224 -256 201 -249 q 275 -264 247 -264 q 351 -238 324 -264 q 379 -172 379 -212 q 358 -124 379 -142 q 296 -107 336 -107 l 274 -107 l 328 7 l 363 7 l 324 -76 q 394 -106 368 -81 q 419 -172 419 -132 q 378 -262 419 -225 q 272 -299 338 -299 z "},"̨":{"ha":0,"x_min":93,"x_max":346,"o":"m 206 -299 q 124 -272 156 -299 q 93 -199 93 -244 q 117 -117 93 -156 q 194 -42 142 -78 q 328 26 246 -6 l 346 0 q 227 -59 275 -28 q 156 -124 179 -90 q 133 -193 133 -157 q 153 -245 133 -226 q 211 -264 174 -264 q 262 -255 236 -264 q 308 -231 288 -246 l 321 -261 q 267 -289 296 -279 q 206 -299 238 -299 z "},"̮":{"ha":0,"x_min":125,"x_max":508,"o":"m 303 -278 q 209 -258 250 -278 q 147 -204 168 -239 q 128 -122 125 -169 l 165 -122 q 200 -211 163 -179 q 304 -243 238 -243 q 415 -212 368 -243 q 471 -122 463 -181 l 508 -122 q 439 -237 499 -197 q 303 -278 379 -278 z "},"̱":{"ha":0,"x_min":104,"x_max":501,"o":"m 104 -225 l 111 -187 l 501 -187 l 494 -225 l 104 -225 z "},"̵":{"ha":0,"x_min":197,"x_max":735,"o":"m 197 593 l 206 632 l 735 632 l 728 593 l 197 593 z "},"̶":{"ha":0,"x_min":67,"x_max":1161,"o":"m 67 592 l 75 632 l 1161 632 l 1153 592 l 67 592 z "},"̷":{"ha":0,"x_min":86,"x_max":431,"o":"m 104 406 l 86 435 l 413 647 l 431 617 l 104 406 z "},"̸":{"ha":0,"x_min":1,"x_max":842,"o":"m 1 -97 l 799 818 l 842 818 l 44 -97 l 1 -97 z "},"Δ":{"ha":967,"x_min":-62,"x_max":883,"o":"m 628 972 l 883 0 l -62 0 l 582 972 l 628 972 m 4 22 l -7 43 l 843 43 l 831 22 l 592 940 l 611 940 l 4 22 z "},"Ω":{"ha":1261,"x_min":-58,"x_max":1183,"o":"m -58 0 l -50 43 l 336 43 q 189 211 232 119 q 146 433 146 303 q 188 657 146 557 q 305 828 229 757 q 485 939 381 900 q 713 978 589 978 q 953 932 851 978 q 1110 797 1054 886 q 1165 583 1165 708 q 1135 387 1165 475 q 1053 232 1104 299 q 938 119 1001 165 q 813 43 875 72 l 1183 43 l 1175 0 l 721 0 l 729 42 q 875 117 806 69 q 999 232 944 165 q 1087 386 1054 299 q 1119 582 1119 474 q 1010 844 1119 753 q 711 935 900 935 q 441 872 558 935 q 258 697 324 810 q 192 432 192 585 q 214 271 192 340 q 283 146 236 201 q 404 42 331 90 l 396 0 l -58 0 z "},"μ":{"ha":933,"x_min":29,"x_max":851,"o":"m 29 -269 l 226 721 l 272 721 l 188 299 q 216 108 164 178 q 394 38 268 38 q 612 110 525 38 q 726 324 699 183 l 806 721 l 851 721 l 708 0 l 663 0 l 704 208 l 721 204 q 637 85 688 132 q 524 17 586 39 q 390 -4 461 -4 q 230 36 293 -4 q 149 160 167 76 l 165 185 l 75 -269 l 29 -269 z "},"π":{"ha":999,"x_min":25,"x_max":1060,"o":"m 54 372 q 33 422 40 396 q 25 479 25 449 q 56 600 25 546 q 150 688 86 654 q 314 721 214 721 l 1060 721 l 1051 681 l 311 681 q 128 622 188 681 q 68 481 68 564 q 74 433 68 457 q 92 390 81 410 l 54 372 m 186 0 l 410 707 l 456 707 l 232 0 l 186 0 m 625 0 l 767 707 l 813 707 l 671 0 l 625 0 z "},"Ѐ":{"ha":900,"x_min":111,"x_max":942,"o":"z "},"Ё":{"ha":900,"x_min":111,"x_max":942,"o":"z "},"Ђ":{"ha":1131,"x_min":126,"x_max":1056,"o":"m 297 0 l 486 946 l 499 929 l 126 929 l 136 972 l 918 972 l 908 929 l 513 929 l 533 946 l 344 0 l 297 0 m 569 11 l 583 53 q 744 44 668 32 q 881 99 821 57 q 974 204 940 140 q 1008 349 1008 268 q 933 498 1008 450 q 723 535 857 546 q 415 450 589 525 l 425 496 q 676 570 561 553 q 877 567 792 588 q 1009 492 963 547 q 1056 351 1056 438 q 1016 185 1056 258 q 907 63 976 111 q 751 1 838 15 q 569 11 664 -14 z "},"Ѓ":{"ha":783,"x_min":111,"x_max":893,"o":"m 111 0 l 306 972 l 893 972 l 885 929 l 326 929 l 346 946 l 158 0 l 111 0 z "},"Є":{"ha":982,"x_min":111,"x_max":1019,"o":"m 718 496 l 711 454 l 147 454 l 154 496 l 718 496 m 499 -6 q 294 47 382 -6 q 159 190 207 99 q 111 397 111 282 q 158 624 111 518 q 288 809 206 729 q 476 933 371 889 q 694 978 581 978 q 885 946 800 978 q 1019 849 969 914 l 983 818 q 855 908 931 881 q 688 935 779 935 q 489 894 583 935 q 320 780 394 853 q 203 611 246 707 q 160 407 160 515 q 203 218 160 301 q 326 86 247 135 q 508 38 404 38 q 688 65 601 38 q 851 156 774 92 l 875 125 q 701 27 799 60 q 499 -6 604 -6 z "},"Ѕ":{"ha":851,"x_min":39,"x_max":835,"o":"m 374 -6 q 238 13 304 -6 q 119 60 171 31 q 39 128 67 90 l 67 161 q 144 98 96 126 q 253 53 193 69 q 376 36 314 36 q 546 63 472 36 q 660 143 619 90 q 701 269 701 196 q 673 359 701 325 q 599 415 644 393 q 497 451 553 436 q 387 483 442 465 q 286 526 332 501 q 212 592 240 551 q 183 696 183 632 q 231 849 183 786 q 362 945 279 913 q 549 978 444 978 q 706 956 629 978 q 835 892 782 933 l 810 853 q 691 915 758 893 q 547 936 624 936 q 382 908 454 936 q 269 828 310 881 q 228 700 229 775 q 256 611 228 646 q 331 554 285 576 q 433 516 376 532 q 544 483 489 500 q 645 441 599 467 q 719 376 692 415 q 747 275 747 338 q 698 120 747 182 q 564 26 649 58 q 374 -6 479 -6 z "},"І":{"ha":403,"x_min":106,"x_max":347,"o":"m 106 0 l 300 972 l 347 972 l 153 0 l 106 0 z "},"Ї":{"ha":403,"x_min":106,"x_max":514,"o":"m 106 0 l 300 972 l 347 972 l 153 0 l 106 0 z "},"Ј":{"ha":708,"x_min":-10,"x_max":658,"o":"m 231 -6 q 82 33 146 -6 q -10 133 18 71 l 28 160 q 107 71 54 104 q 235 38 160 38 q 388 91 329 38 q 472 276 446 144 l 603 929 l 242 929 l 250 972 l 658 972 l 518 271 q 460 110 497 171 q 365 22 422 49 q 231 -6 308 -6 z "},"Љ":{"ha":1650,"x_min":-60,"x_max":1574,"o":"m 3 -4 q -28 -3 -14 -4 q -60 4 -43 -1 l -47 47 q -1 42 -22 42 q 114 91 63 42 q 210 251 165 140 q 299 546 256 363 l 399 972 l 1018 972 l 824 0 l 778 0 l 967 946 l 979 929 l 418 929 l 438 946 l 343 543 q 271 291 307 396 q 194 121 235 186 q 106 26 153 56 q 3 -4 58 -4 m 1275 610 q 1574 358 1574 610 q 1522 168 1574 249 q 1373 44 1469 88 q 1143 0 1276 0 l 778 0 l 972 972 l 1019 972 l 946 610 l 1275 610 m 1146 40 q 1349 78 1264 40 q 1480 188 1433 117 q 1526 357 1526 258 q 1463 519 1526 468 q 1264 569 1400 569 l 938 569 l 833 40 l 1146 40 z "},"Њ":{"ha":1656,"x_min":111,"x_max":1581,"o":"m 111 0 l 306 972 l 353 972 l 268 556 l 928 556 l 1011 972 l 1057 972 l 863 0 l 817 0 l 918 514 l 260 514 l 158 0 l 111 0 m 868 24 l 857 40 l 1186 40 q 1371 76 1293 40 q 1490 176 1449 111 q 1532 328 1532 240 q 1467 467 1532 418 q 1281 515 1403 515 l 951 515 l 969 532 l 868 24 m 817 0 l 1011 972 l 1057 972 l 971 540 l 960 557 l 1303 557 q 1509 499 1438 557 q 1581 336 1581 440 q 1531 159 1581 235 q 1390 42 1481 83 q 1175 0 1299 0 l 817 0 z "},"Ћ":{"ha":1147,"x_min":125,"x_max":1075,"o":"m 296 0 l 485 946 l 497 929 l 125 929 l 135 972 l 915 972 l 906 929 l 511 929 l 532 946 l 343 0 l 296 0 m 424 494 q 613 558 526 538 q 776 579 700 579 q 999 505 924 579 q 1046 283 1075 431 l 989 0 l 942 0 l 999 285 q 962 472 1024 407 q 769 536 900 536 q 607 515 694 536 q 415 447 519 493 l 424 494 z "},"Ќ":{"ha":956,"x_min":111,"x_max":1018,"o":"m 111 0 l 306 972 l 353 972 l 158 0 l 111 0 m 238 472 l 244 515 l 533 515 l 526 472 l 238 472 m 796 0 l 488 493 l 526 514 l 847 0 l 796 0 m 525 483 l 482 494 l 961 972 l 1018 972 l 525 483 z "},"Ѝ":{"ha":1147,"x_min":111,"x_max":1085,"o":"m 111 0 l 306 972 l 353 972 l 174 82 l 1046 972 l 1085 972 l 890 0 l 844 0 l 1024 890 l 151 0 l 111 0 z "},"Ў":{"ha":922,"x_min":60,"x_max":1019,"o":"m 81 57 q 168 38 122 39 q 263 60 214 36 q 356 143 311 85 l 419 224 l 426 232 l 969 972 l 1019 972 l 399 128 q 286 26 346 57 q 168 -5 226 -6 q 60 18 110 -4 l 81 57 m 417 185 l 160 972 l 211 972 l 451 229 l 417 185 m 589 1049 q 451 1094 500 1049 q 414 1211 401 1139 l 450 1211 q 480 1118 442 1154 q 589 1082 518 1082 q 710 1117 658 1082 q 776 1211 761 1153 l 813 1211 q 736 1092 797 1136 q 589 1049 675 1049 z "},"Џ":{"ha":1117,"x_min":111,"x_max":1056,"o":"m 1056 972 l 861 0 l 508 0 l 461 -239 l 415 -239 l 464 0 l 111 0 l 306 972 l 353 972 l 167 43 l 824 43 l 1008 972 l 1056 972 z "},"А":{"ha":1004,"x_min":-43,"x_max":903,"o":"m -43 0 l 601 972 l 647 972 l 903 0 l 856 0 l 611 940 l 631 940 l 10 0 l -43 0 m 169 285 l 196 325 l 790 325 l 800 285 l 169 285 z "},"Б":{"ha":1003,"x_min":111,"x_max":985,"o":"m 111 0 l 306 972 l 985 972 l 976 931 l 343 931 l 268 554 l 607 554 q 832 495 757 554 q 907 317 907 436 q 856 147 907 218 q 710 38 806 75 q 481 0 615 0 l 111 0 m 167 40 l 492 40 q 763 113 665 40 q 860 315 860 185 q 794 466 860 418 q 586 514 728 514 l 260 514 l 167 40 z "},"В":{"ha":1042,"x_min":106,"x_max":979,"o":"m 106 0 l 300 972 l 693 972 q 903 922 826 972 q 979 774 979 872 q 933 614 979 678 q 809 518 886 550 q 639 486 732 486 l 665 506 q 865 454 792 506 q 939 299 939 403 q 890 136 939 203 q 751 35 842 69 q 532 0 661 0 l 106 0 m 161 42 l 539 42 q 800 107 708 42 q 892 296 892 172 q 826 433 892 392 q 631 474 760 474 l 238 474 l 246 514 l 604 514 q 772 542 699 514 q 888 627 846 571 q 931 767 931 683 q 867 890 931 849 q 688 931 803 931 l 339 931 l 161 42 z "},"Г":{"ha":783,"x_min":111,"x_max":893,"o":"m 111 0 l 306 972 l 893 972 l 885 929 l 326 929 l 346 946 l 158 0 l 111 0 z "},"Д":{"ha":1081,"x_min":-106,"x_max":997,"o":"m 761 22 l 942 929 l 418 929 l 351 646 q 292 417 324 526 q 224 219 261 307 q 141 81 186 132 q 40 26 96 29 l -17 43 q 89 85 42 39 q 176 215 136 131 q 248 413 215 300 q 310 653 281 526 l 383 972 l 997 972 l 807 22 l 761 22 m -106 -226 l -50 43 l 963 43 l 908 -226 l 864 -226 l 908 0 l -14 0 l -60 -226 l -106 -226 z "},"Е":{"ha":900,"x_min":111,"x_max":942,"o":"m 253 515 l 789 515 l 781 472 l 244 472 l 253 515 m 167 43 l 778 43 l 768 0 l 111 0 l 306 972 l 942 972 l 933 929 l 343 929 l 167 43 z "},"Ж":{"ha":1367,"x_min":-31,"x_max":1419,"o":"m 1197 0 l 943 493 l 986 514 l 1251 0 l 1197 0 m 713 472 l 721 515 l 986 515 l 979 472 l 713 472 m 982 482 l 942 494 l 1364 972 l 1419 972 l 982 482 m 26 0 l -31 0 l 440 514 l 478 493 l 26 0 m 633 0 l 588 0 l 782 972 l 828 972 l 633 0 m 699 472 l 433 472 l 440 515 l 707 515 l 699 472 m 433 482 l 193 972 l 246 972 l 478 494 l 433 482 z "},"З":{"ha":869,"x_min":7,"x_max":796,"o":"m 333 -6 q 152 29 239 -6 q 7 135 65 64 l 35 165 q 169 69 89 100 q 335 39 250 39 q 469 57 404 39 q 587 111 535 75 q 669 197 639 147 q 700 308 700 246 q 635 441 700 396 q 446 486 569 486 l 251 486 l 260 528 l 454 528 q 610 556 544 528 q 712 634 675 583 q 749 750 749 685 q 715 852 749 811 q 626 914 682 893 q 499 935 571 935 q 355 914 432 935 q 201 850 278 893 l 190 889 q 351 956 269 933 q 504 978 432 978 q 653 952 588 978 q 757 876 718 926 q 796 754 796 826 q 754 622 796 681 q 638 529 713 563 q 463 496 563 496 l 472 518 q 621 492 560 518 q 715 419 682 467 q 747 304 747 371 q 712 177 747 235 q 617 78 676 119 q 484 16 558 38 q 333 -6 410 -6 z "},"И":{"ha":1147,"x_min":111,"x_max":1085,"o":"m 111 0 l 306 972 l 353 972 l 174 82 l 1046 972 l 1085 972 l 890 0 l 844 0 l 1024 890 l 151 0 l 111 0 z "},"Й":{"ha":1147,"x_min":111,"x_max":1085,"o":"m 111 0 l 306 972 l 353 972 l 174 82 l 1046 972 l 1085 972 l 890 0 l 844 0 l 1024 890 l 151 0 l 111 0 m 710 1049 q 572 1094 621 1049 q 535 1211 522 1139 l 571 1211 q 601 1118 563 1154 q 710 1082 639 1082 q 831 1117 779 1082 q 897 1211 882 1153 l 933 1211 q 857 1092 918 1136 q 710 1049 796 1049 z "},"К":{"ha":956,"x_min":111,"x_max":1018,"o":"m 111 0 l 306 972 l 353 972 l 158 0 l 111 0 m 238 472 l 244 515 l 533 515 l 526 472 l 238 472 m 796 0 l 488 493 l 526 514 l 847 0 l 796 0 m 525 483 l 482 494 l 961 972 l 1018 972 l 525 483 z "},"Л":{"ha":1081,"x_min":-60,"x_max":1018,"o":"m 3 -4 q -28 -3 -14 -4 q -60 4 -43 -1 l -47 47 q -1 42 -22 42 q 114 91 63 42 q 210 251 165 140 q 299 546 256 363 l 399 972 l 1018 972 l 824 0 l 778 0 l 967 946 l 979 929 l 418 929 l 438 946 l 343 543 q 271 291 307 396 q 194 121 235 186 q 106 26 153 56 q 3 -4 58 -4 z "},"М":{"ha":1339,"x_min":111,"x_max":1276,"o":"m 111 0 l 306 972 l 344 972 l 650 176 l 629 181 l 1235 972 l 1276 972 l 1082 0 l 1036 0 l 1217 904 l 1233 901 l 644 135 l 621 135 l 324 904 l 338 903 l 157 0 l 111 0 z "},"Н":{"ha":1143,"x_min":111,"x_max":1082,"o":"m 1035 972 l 1082 972 l 888 0 l 840 0 l 1035 972 m 158 0 l 111 0 l 306 972 l 353 972 l 158 0 m 943 472 l 244 472 l 253 515 l 951 515 l 943 472 z "},"О":{"ha":1203,"x_min":117,"x_max":1138,"o":"m 558 -6 q 317 44 415 -6 q 168 184 219 94 q 117 390 117 274 q 157 614 117 508 q 272 801 197 719 q 455 931 347 883 q 697 978 563 978 q 938 928 839 978 q 1087 789 1036 878 q 1138 582 1138 700 q 1098 358 1138 464 q 983 171 1058 253 q 800 42 907 89 q 558 -6 693 -6 m 563 38 q 781 81 683 38 q 947 199 878 124 q 1053 372 1015 274 q 1090 581 1090 471 q 1046 765 1090 686 q 913 890 1001 844 q 693 935 824 935 q 474 892 572 935 q 308 774 376 849 q 201 600 239 699 q 164 392 164 501 q 209 208 164 288 q 342 83 254 128 q 563 38 431 38 z "},"П":{"ha":1154,"x_min":111,"x_max":1093,"o":"m 111 0 l 306 972 l 1093 972 l 899 0 l 851 0 l 1040 946 l 1053 929 l 326 929 l 347 946 l 158 0 l 111 0 z "},"Р":{"ha":981,"x_min":110,"x_max":967,"o":"m 110 0 l 304 972 l 636 972 q 880 903 793 972 q 967 710 967 835 q 913 499 967 585 q 760 370 860 414 q 524 326 661 326 l 201 326 l 226 349 l 157 0 l 110 0 m 226 349 l 210 369 l 524 369 q 817 454 713 369 q 921 707 921 539 q 847 872 921 814 q 636 929 774 929 l 322 929 l 347 953 l 226 349 z "},"С":{"ha":1018,"x_min":117,"x_max":1035,"o":"m 558 -6 q 318 44 417 -6 q 168 184 219 94 q 117 390 117 274 q 157 614 117 508 q 273 801 197 719 q 458 931 349 883 q 703 978 567 978 q 901 944 815 978 q 1035 850 986 911 l 1001 821 q 878 906 953 878 q 700 935 803 935 q 477 892 576 935 q 308 774 378 849 q 201 600 239 699 q 164 392 164 501 q 209 208 164 288 q 342 83 254 128 q 563 38 431 38 q 750 69 667 38 q 894 157 833 100 l 922 122 q 765 29 861 64 q 558 -6 669 -6 z "},"Т":{"ha":783,"x_min":125,"x_max":893,"o":"m 296 0 l 485 946 l 497 929 l 125 929 l 135 972 l 893 972 l 885 929 l 511 929 l 532 946 l 343 0 l 296 0 z "},"У":{"ha":922,"x_min":60,"x_max":1019,"o":"m 81 57 q 168 38 122 39 q 263 60 214 36 q 356 143 311 85 l 419 224 l 426 232 l 969 972 l 1019 972 l 399 128 q 286 26 346 57 q 168 -5 226 -6 q 60 18 110 -4 l 81 57 m 417 185 l 160 972 l 211 972 l 451 229 l 417 185 z "},"Ф":{"ha":1258,"x_min":99,"x_max":1210,"o":"m 567 68 q 222 160 346 68 q 99 417 99 253 q 176 674 99 564 q 395 844 254 783 q 726 904 536 904 l 738 904 q 1085 813 960 904 q 1210 556 1210 721 q 1131 299 1210 408 q 911 128 1053 189 q 578 68 769 68 l 567 68 m 569 111 l 578 111 q 890 165 758 111 q 1092 319 1021 219 q 1163 553 1163 418 q 1051 781 1163 700 q 735 863 939 863 l 725 863 q 418 808 549 863 q 217 653 288 753 q 146 419 146 554 q 256 192 146 272 q 569 111 367 111 m 529 -29 l 735 1001 l 781 1001 l 574 -29 l 529 -29 z "},"Х":{"ha":864,"x_min":-31,"x_max":918,"o":"m 190 972 l 244 972 l 467 542 l 863 972 l 918 972 l 489 503 l 750 0 l 696 0 l 453 464 l 26 0 l -31 0 l 432 503 l 190 972 z "},"Ц":{"ha":1142,"x_min":111,"x_max":1056,"o":"m 111 0 l 306 972 l 353 972 l 167 43 l 824 43 l 1008 972 l 1056 972 l 861 0 l 111 0 m 929 -239 l 979 17 l 992 0 l 814 0 l 824 43 l 1031 43 l 974 -239 l 929 -239 z "},"Ч":{"ha":1003,"x_min":122,"x_max":942,"o":"m 803 435 q 609 371 703 393 q 436 349 515 349 q 198 428 274 349 q 150 646 122 507 l 214 972 l 261 972 l 196 644 q 237 458 172 525 q 439 392 301 392 q 615 415 521 392 q 811 481 710 438 l 803 435 m 700 0 l 894 972 l 942 972 l 747 0 l 700 0 z "},"Ш":{"ha":1518,"x_min":111,"x_max":1456,"o":"m 686 43 l 669 26 l 857 972 l 904 972 l 717 26 l 703 43 l 1240 43 l 1221 26 l 1410 972 l 1456 972 l 1261 0 l 111 0 l 306 972 l 353 972 l 164 26 l 150 43 l 686 43 z "},"Щ":{"ha":1542,"x_min":111,"x_max":1456,"o":"m 686 43 l 669 26 l 857 972 l 904 972 l 717 26 l 703 43 l 1240 43 l 1221 26 l 1410 972 l 1456 972 l 1261 0 l 111 0 l 306 972 l 353 972 l 164 26 l 150 43 l 686 43 m 1331 -226 l 1378 17 l 1392 0 l 1214 0 l 1224 43 l 1428 43 l 1375 -226 l 1331 -226 z "},"Ъ":{"ha":1126,"x_min":125,"x_max":1051,"o":"m 754 610 q 976 550 901 610 q 1051 374 1051 490 q 1001 173 1051 257 q 853 44 950 89 q 615 0 757 0 l 256 0 l 440 929 l 125 929 l 135 972 l 496 972 l 424 610 l 754 610 m 628 40 q 908 126 814 40 q 1003 365 1003 213 q 935 519 1003 468 q 733 569 868 569 l 415 569 l 310 40 l 628 40 z "},"Ы":{"ha":1329,"x_min":111,"x_max":1268,"o":"m 608 610 q 907 358 907 610 q 855 168 907 249 q 706 44 803 88 q 476 0 610 0 l 111 0 l 306 972 l 353 972 l 279 610 l 608 610 m 479 40 q 682 78 597 40 q 813 188 767 117 q 860 357 860 258 q 797 519 860 468 q 597 569 733 569 l 271 569 l 167 40 l 479 40 m 1026 0 l 1221 972 l 1268 972 l 1074 0 l 1026 0 z "},"Ь":{"ha":983,"x_min":111,"x_max":907,"o":"m 608 610 q 907 358 907 610 q 855 168 907 249 q 706 44 803 88 q 476 0 610 0 l 111 0 l 306 972 l 353 972 l 279 610 l 608 610 m 479 40 q 682 78 597 40 q 813 188 767 117 q 860 357 860 258 q 797 519 860 468 q 597 569 733 569 l 271 569 l 167 40 l 479 40 z "},"Э":{"ha":982,"x_min":13,"x_max":919,"o":"m 313 476 l 321 518 l 883 518 l 876 476 l 313 476 m 532 978 q 737 926 650 978 q 872 783 824 874 q 919 575 919 692 q 872 349 919 454 q 743 163 825 243 q 556 39 661 83 q 336 -6 451 -6 q 147 26 232 -6 q 13 124 63 58 l 47 154 q 176 65 100 92 q 344 38 251 38 q 542 78 447 38 q 712 192 638 119 q 828 361 786 265 q 871 565 871 457 q 828 755 871 672 q 707 886 785 838 q 522 935 629 935 q 344 908 431 935 q 179 817 257 881 l 157 847 q 331 945 232 913 q 532 978 429 978 z "},"Ю":{"ha":1507,"x_min":111,"x_max":1444,"o":"m 111 0 l 306 972 l 353 972 l 261 515 l 511 515 l 503 472 l 251 472 l 158 0 l 111 0 m 876 -6 q 667 46 757 -6 q 526 188 576 97 q 476 400 476 278 q 522 621 476 517 q 646 806 567 725 q 828 932 725 886 q 1044 978 931 978 q 1253 926 1164 978 q 1394 783 1343 874 q 1444 569 1444 692 q 1399 349 1444 453 q 1275 166 1354 246 q 1093 40 1196 86 q 876 -6 990 -6 m 878 39 q 1076 81 982 39 q 1242 198 1169 124 q 1356 368 1314 272 q 1397 569 1397 464 q 1353 760 1397 678 q 1229 888 1308 843 q 1042 933 1150 933 q 845 891 939 933 q 679 774 751 849 q 565 604 607 700 q 524 401 524 508 q 568 211 524 293 q 692 84 613 129 q 878 39 772 39 z "},"Я":{"ha":1022,"x_min":40,"x_max":960,"o":"m 719 0 l 785 329 l 799 314 l 457 314 q 240 385 319 314 q 161 593 161 457 q 215 793 161 708 q 367 925 268 878 q 601 972 465 972 l 960 972 l 765 0 l 719 0 m 40 0 l 346 339 l 401 339 l 97 0 l 40 0 m 788 339 l 908 946 l 921 929 l 599 929 q 388 888 475 929 q 254 772 300 847 q 208 596 208 697 q 276 415 208 475 q 469 356 344 356 l 807 356 l 788 339 z "},"а":{"ha":954,"x_min":81,"x_max":868,"o":"m 390 -4 q 227 31 297 -4 q 119 133 157 67 q 81 292 81 200 q 110 464 81 385 q 195 602 140 543 q 324 694 250 661 q 489 726 399 726 q 651 692 583 726 q 753 592 718 657 q 789 438 789 528 q 740 211 790 311 q 599 53 689 111 q 390 -4 510 -4 m 399 38 q 583 88 503 38 q 710 227 664 139 q 757 428 757 315 q 685 617 757 550 q 486 683 614 683 q 302 633 383 683 q 174 494 221 582 q 126 293 126 406 q 198 105 126 172 q 399 38 269 38 m 679 0 l 728 240 l 765 350 l 772 468 l 822 721 l 868 721 l 725 0 l 679 0 z "},"б":{"ha":919,"x_min":110,"x_max":910,"o":"m 429 -6 q 194 86 279 -6 q 110 344 110 178 q 144 564 110 458 q 242 756 178 669 q 392 903 306 843 q 581 986 478 964 l 904 1057 l 910 1015 l 590 944 q 384 844 475 918 q 234 664 293 771 q 157 429 175 557 l 139 428 q 308 631 201 560 q 546 701 414 701 q 760 624 682 701 q 838 411 838 547 q 783 198 838 292 q 637 49 729 104 q 429 -6 544 -6 m 433 36 q 615 85 535 36 q 743 217 696 133 q 790 407 790 301 q 724 592 790 526 q 538 657 658 657 q 396 630 464 657 q 273 556 328 603 q 187 449 218 510 q 156 324 156 389 q 231 113 156 190 q 433 36 306 36 z "},"в":{"ha":829,"x_min":83,"x_max":738,"o":"m 83 0 l 228 721 l 518 721 q 683 682 628 721 q 738 567 738 643 q 662 417 738 474 q 465 360 586 360 l 483 376 q 645 340 594 376 q 696 226 696 304 q 613 60 696 119 q 385 0 531 0 l 83 0 m 138 39 l 390 39 q 583 88 514 39 q 651 225 651 138 q 609 319 651 292 q 468 347 567 347 l 199 347 l 138 39 m 207 385 l 451 385 q 626 433 560 385 q 692 561 692 482 q 647 653 692 624 q 513 682 603 682 l 265 682 l 207 385 z "},"г":{"ha":632,"x_min":83,"x_max":707,"o":"m 83 0 l 228 721 l 707 721 l 699 679 l 250 679 l 268 693 l 129 0 l 83 0 z "},"д":{"ha":874,"x_min":-93,"x_max":769,"o":"m 583 22 l 715 679 l 317 679 l 268 482 q 225 322 247 401 q 174 177 203 243 q 109 71 144 111 q 29 28 74 31 l -18 40 q 63 75 26 38 q 128 177 99 113 q 181 322 157 242 q 225 488 204 403 l 283 721 l 769 721 l 629 22 l 583 22 m -93 -183 l -49 40 l 751 40 l 707 -183 l 663 -183 l 699 0 l -14 0 l -49 -183 l -93 -183 z "},"е":{"ha":865,"x_min":82,"x_max":769,"o":"m 404 -4 q 231 31 304 -4 q 120 133 158 67 q 82 294 82 200 q 133 515 82 418 q 272 669 183 613 q 471 726 360 726 q 631 691 564 726 q 733 589 697 656 q 769 429 769 522 q 767 390 769 410 q 763 354 765 371 l 117 354 l 125 393 l 742 393 l 722 374 q 710 544 739 475 q 618 649 681 613 q 469 685 556 685 q 293 634 371 685 q 171 496 215 583 q 126 296 126 408 q 199 104 126 171 q 408 38 271 38 q 554 65 488 38 q 664 140 621 92 l 686 108 q 567 26 642 57 q 404 -4 492 -4 z "},"ж":{"ha":1097,"x_min":-39,"x_max":1117,"o":"m 938 0 l 738 364 l 778 382 l 990 0 l 938 0 m 553 347 l 561 385 l 781 385 l 772 347 l 553 347 m 781 357 l 736 367 l 1061 721 l 1117 721 l 781 357 m 21 0 l -39 0 l 326 385 l 364 364 l 21 0 m 500 0 l 454 0 l 599 721 l 644 721 l 500 0 m 538 347 l 321 347 l 329 385 l 546 385 l 538 347 m 319 357 l 129 721 l 178 721 l 363 367 l 319 357 z "},"з":{"ha":713,"x_min":-3,"x_max":622,"o":"m 264 -6 q -3 96 90 -6 l 25 126 q 125 60 64 82 q 263 38 186 38 q 405 62 342 38 q 505 126 468 86 q 542 218 542 167 q 486 319 542 283 q 333 356 431 356 l 228 356 l 235 396 l 328 396 q 506 440 438 396 q 575 553 575 483 q 522 648 575 613 q 379 683 469 683 q 261 667 319 683 q 143 622 203 651 l 125 663 q 254 710 190 694 q 379 726 318 726 q 507 705 453 726 q 592 645 561 683 q 622 554 622 607 q 597 472 622 510 q 526 410 572 435 q 415 371 481 385 l 415 381 q 544 324 501 364 q 588 218 588 283 q 545 104 588 154 q 430 24 503 54 q 264 -6 357 -6 z "},"и":{"ha":939,"x_min":83,"x_max":856,"o":"m 83 0 l 228 721 l 275 721 l 144 71 l 811 721 l 856 721 l 711 0 l 665 0 l 796 650 l 128 0 l 83 0 z "},"й":{"ha":939,"x_min":83,"x_max":856,"o":"m 83 0 l 228 721 l 275 721 l 144 71 l 811 721 l 856 721 l 711 0 l 665 0 l 796 650 l 128 0 l 83 0 m 571 838 q 440 883 486 838 q 407 1000 394 929 l 443 1000 q 470 908 435 944 q 572 872 506 872 q 686 908 638 872 q 749 1000 735 943 l 785 1000 q 710 882 768 926 q 571 838 653 838 z "},"к":{"ha":771,"x_min":83,"x_max":799,"o":"m 621 0 l 372 364 l 411 382 l 674 0 l 621 0 m 83 0 l 228 721 l 274 721 l 129 0 l 83 0 m 183 346 l 192 386 l 414 386 l 406 346 l 183 346 m 413 356 l 365 367 l 740 721 l 799 721 l 413 356 z "},"л":{"ha":858,"x_min":-62,"x_max":775,"o":"m -62 3 l -51 43 q -32 40 -40 42 q -18 38 -24 38 q 72 83 32 38 q 149 226 111 128 q 226 482 186 324 l 288 721 l 775 721 l 631 0 l 585 0 l 724 696 l 736 679 l 307 679 l 324 696 l 268 472 q 205 255 236 346 q 140 106 174 164 q 70 22 107 49 q -11 -6 33 -6 q -35 -3 -24 -6 q -62 3 -46 -1 z "},"м":{"ha":1079,"x_min":83,"x_max":996,"o":"m 83 0 l 228 721 l 269 721 l 504 136 l 483 136 l 954 721 l 996 721 l 851 0 l 808 0 l 942 663 l 951 660 l 499 97 l 476 97 l 247 661 l 260 663 l 128 0 l 83 0 z "},"н":{"ha":922,"x_min":83,"x_max":839,"o":"m 83 0 l 228 721 l 274 721 l 206 383 l 725 383 l 793 721 l 839 721 l 694 0 l 649 0 l 718 343 l 199 343 l 129 0 l 83 0 z "},"о":{"ha":885,"x_min":81,"x_max":803,"o":"m 393 -4 q 228 32 299 -4 q 119 135 157 68 q 81 292 81 201 q 133 515 81 417 q 278 669 186 613 q 490 726 371 726 q 657 690 588 726 q 765 588 726 654 q 803 429 803 521 q 750 207 803 306 q 605 52 697 108 q 393 -4 513 -4 m 399 38 q 583 88 503 38 q 710 227 664 139 q 757 428 757 315 q 685 617 757 550 q 486 683 614 683 q 302 633 383 683 q 174 494 221 582 q 126 293 126 406 q 198 105 126 172 q 399 38 269 38 z "},"п":{"ha":928,"x_min":83,"x_max":844,"o":"m 83 0 l 228 721 l 844 721 l 700 0 l 654 0 l 792 694 l 804 679 l 250 679 l 268 694 l 129 0 l 83 0 z "},"р":{"ha":956,"x_min":33,"x_max":875,"o":"m 467 -4 q 305 30 372 -4 q 203 128 238 64 q 167 285 168 193 q 217 510 167 411 q 357 668 267 610 q 565 726 447 726 q 729 690 660 726 q 837 588 799 654 q 875 429 875 522 q 844 257 875 336 q 760 119 814 178 q 631 28 706 60 q 467 -4 556 -4 m 33 -269 l 231 721 l 276 721 l 228 482 l 190 371 l 183 253 l 79 -269 l 33 -269 m 469 38 q 654 88 574 38 q 782 227 735 139 q 829 428 829 315 q 758 617 829 550 q 557 683 686 683 q 373 633 454 683 q 245 495 292 583 q 199 293 199 407 q 270 105 199 172 q 469 38 342 38 z "},"с":{"ha":783,"x_min":81,"x_max":757,"o":"m 400 -4 q 229 32 301 -4 q 119 135 157 68 q 81 292 81 201 q 134 516 81 418 q 280 670 188 614 q 492 726 372 726 q 653 694 585 726 q 757 599 721 661 l 721 574 q 628 657 686 631 q 489 683 569 683 q 303 633 385 683 q 174 494 221 582 q 126 293 126 406 q 199 105 126 172 q 404 38 271 38 q 544 65 479 38 q 653 144 610 93 l 683 117 q 562 27 638 58 q 400 -4 486 -4 z "},"т":{"ha":614,"x_min":60,"x_max":690,"o":"m 213 0 l 350 694 l 363 679 l 60 679 l 69 721 l 690 721 l 682 679 l 379 679 l 396 694 l 258 0 l 213 0 z "},"у":{"ha":744,"x_min":-151,"x_max":785,"o":"m 6 -274 q -85 -257 -42 -274 q -151 -210 -128 -240 l -121 -176 q -65 -219 -97 -206 q 11 -233 -32 -233 q 103 -206 60 -233 q 196 -103 146 -178 l 274 17 l 283 28 l 735 721 l 785 721 l 236 -118 q 160 -212 196 -178 q 88 -260 125 -246 q 6 -274 50 -274 m 271 -17 l 81 721 l 128 721 l 304 31 l 271 -17 z "},"ф":{"ha":1046,"x_min":71,"x_max":974,"o":"m 446 -6 q 166 72 261 -3 q 71 293 71 146 q 138 517 71 419 q 322 670 204 615 q 592 725 440 725 l 599 725 q 878 650 783 724 q 974 428 974 576 q 908 203 974 301 q 725 50 842 106 q 457 -6 608 -6 l 446 -6 m 451 36 l 457 36 q 702 86 596 36 q 869 224 808 136 q 929 425 929 311 q 845 619 929 554 q 592 685 761 685 l 585 685 q 342 634 449 685 q 176 497 236 583 q 115 297 115 410 q 203 101 115 164 q 451 36 290 39 m 376 -269 l 636 1031 l 679 1031 l 419 -269 l 376 -269 z "},"х":{"ha":699,"x_min":-40,"x_max":718,"o":"m -40 0 l 335 383 l 329 364 l 121 721 l 171 721 l 364 390 l 344 393 l 663 721 l 718 721 l 364 357 l 368 382 l 593 0 l 542 0 l 339 350 l 357 350 l 18 0 l -40 0 z "},"ц":{"ha":936,"x_min":83,"x_max":829,"o":"m 83 0 l 228 721 l 274 721 l 138 40 l 647 40 l 783 721 l 829 721 l 685 0 l 83 0 m 725 -183 l 765 10 l 778 0 l 639 0 l 647 40 l 815 40 l 769 -183 l 725 -183 z "},"ч":{"ha":808,"x_min":74,"x_max":725,"o":"m 607 319 q 456 273 529 289 q 322 257 383 257 q 138 313 201 257 q 96 481 74 369 l 144 721 l 190 721 l 142 478 q 176 342 125 389 q 328 296 228 296 q 460 313 389 296 q 613 361 532 329 l 607 319 m 535 0 l 679 721 l 725 721 l 581 0 l 535 0 z "},"ш":{"ha":1261,"x_min":83,"x_max":1178,"o":"m 557 40 l 543 25 l 681 721 l 726 721 l 589 25 l 576 40 l 1011 40 l 993 25 l 1132 721 l 1178 721 l 1033 0 l 83 0 l 228 721 l 274 721 l 136 25 l 124 40 l 557 40 z "},"щ":{"ha":1282,"x_min":83,"x_max":1178,"o":"m 557 40 l 543 25 l 681 721 l 726 721 l 589 25 l 576 40 l 1011 40 l 993 25 l 1132 721 l 1178 721 l 1033 0 l 83 0 l 228 721 l 274 721 l 136 25 l 124 40 l 557 40 m 1069 -167 l 1107 15 l 1118 0 l 982 0 l 990 40 l 1156 40 l 1114 -167 l 1069 -167 z "},"ъ":{"ha":829,"x_min":60,"x_max":753,"o":"m 313 679 l 60 679 l 69 721 l 349 721 l 313 679 m 515 454 q 694 408 635 454 q 753 267 753 361 q 713 126 753 186 q 600 33 674 67 q 428 0 526 0 l 158 0 l 303 721 l 349 721 l 296 454 l 515 454 m 428 38 q 576 66 513 38 q 674 146 639 94 q 708 264 708 197 q 503 417 708 417 l 288 417 l 213 38 l 428 38 z "},"ы":{"ha":1043,"x_min":83,"x_max":960,"o":"m 768 0 l 914 721 l 960 721 l 814 0 l 768 0 m 438 454 q 617 408 558 454 q 676 267 676 361 q 637 126 676 186 q 524 33 597 67 q 351 0 450 0 l 83 0 l 228 721 l 274 721 l 221 454 l 438 454 m 351 38 q 499 66 436 38 q 597 146 563 94 q 632 264 632 197 q 425 417 632 417 l 213 417 l 138 38 l 351 38 z "},"ь":{"ha":754,"x_min":83,"x_max":678,"o":"m 440 454 q 619 408 560 454 q 678 267 678 361 q 638 126 678 186 q 525 33 599 67 q 353 0 451 0 l 83 0 l 228 721 l 274 721 l 221 454 l 440 454 m 353 38 q 501 66 438 38 q 599 146 564 94 q 633 264 633 197 q 426 417 633 417 l 213 417 l 138 38 l 353 38 z "},"э":{"ha":786,"x_min":4,"x_max":714,"o":"m 236 349 l 243 386 l 682 386 l 674 349 l 236 349 m 393 726 q 563 690 490 726 q 674 585 635 653 q 714 428 714 518 q 678 261 714 339 q 578 124 642 183 q 431 29 514 64 q 257 -6 349 -6 q 109 22 176 -6 q 4 94 42 49 l 33 119 q 128 57 69 79 q 254 35 186 35 q 414 66 339 35 q 546 152 489 97 q 635 277 603 207 q 668 425 668 347 q 592 617 668 546 q 389 688 517 688 q 251 664 318 688 q 132 597 183 640 l 107 628 q 236 700 160 674 q 393 726 313 726 z "}}}
